%TF.GenerationSoftware,KiCad,Pcbnew,7.0.11*%
%TF.CreationDate,2024-05-24T13:54:11+08:00*%
%TF.ProjectId,panel,70616e65-6c2e-46b6-9963-61645f706362,rev?*%
%TF.SameCoordinates,Original*%
%TF.FileFunction,Profile,NP*%
%FSLAX46Y46*%
G04 Gerber Fmt 4.6, Leading zero omitted, Abs format (unit mm)*
G04 Created by KiCad (PCBNEW 7.0.11) date 2024-05-24 13:54:11*
%MOMM*%
%LPD*%
G01*
G04 APERTURE LIST*
%TA.AperFunction,Profile*%
%ADD10C,0.100000*%
%TD*%
G04 APERTURE END LIST*
D10*
X80044078Y-70376966D02*
X79913091Y-70454072D01*
X78806566Y-21678811D02*
X78743107Y-21816927D01*
X80748030Y-20095765D02*
X80601897Y-20137578D01*
X130674396Y-117066937D02*
X130776293Y-116954153D01*
X138500010Y-20000000D02*
X133500010Y-20000000D01*
X81196485Y-20015393D02*
X81045706Y-20034595D01*
X77499991Y-71163688D02*
X79127652Y-71163688D01*
X131496151Y-65151948D02*
X131499999Y-65000000D01*
X78500011Y-64999999D02*
X78504124Y-65157006D01*
X131362436Y-22101902D02*
X131313275Y-21958074D01*
X131500010Y-73000014D02*
X131496162Y-72848065D01*
X79072966Y-66763340D02*
X79168579Y-66887944D01*
X78686725Y-21958079D02*
X78637564Y-22101907D01*
X78503839Y-72848066D02*
X78499991Y-73000014D01*
X79612050Y-117331433D02*
X79736654Y-117427046D01*
X79168579Y-116887958D02*
X79270581Y-117007388D01*
X131313271Y-66041926D02*
X131362431Y-65898098D01*
X79223705Y-71045888D02*
X79127652Y-71163688D01*
X79545863Y-70723730D02*
X79433079Y-70825626D01*
X78500011Y-115000013D02*
X78504124Y-115157020D01*
X77499991Y-23000000D02*
X77499991Y-21413101D01*
X128803498Y-70015400D02*
X128651939Y-70003861D01*
X77499991Y-117374940D02*
X78901942Y-116500000D01*
X78743107Y-21816927D02*
X78686725Y-21958079D01*
X130454130Y-70723721D02*
X130336329Y-70627668D01*
X129683070Y-70243124D02*
X129541917Y-70186742D01*
X79127652Y-70164188D02*
X78758064Y-70000513D01*
X129683070Y-20243110D02*
X129541917Y-20186728D01*
X131123058Y-116455935D02*
X131193431Y-116321210D01*
X128651939Y-70003861D02*
X128519736Y-70000513D01*
X81499990Y-20000006D02*
X81348043Y-20003854D01*
X79866091Y-117516007D02*
X80000007Y-117598072D01*
X78699277Y-66075094D02*
X78759382Y-66220198D01*
X79378694Y-117121316D02*
X79492621Y-117229430D01*
X130674393Y-70933095D02*
X130566914Y-70825617D01*
X130086900Y-20454049D02*
X129955912Y-20376942D01*
X131496162Y-72848065D02*
X131484622Y-72696506D01*
X79325601Y-20933090D02*
X79223705Y-21045874D01*
X128651947Y-67996165D02*
X128803506Y-67984626D01*
X78602240Y-115776464D02*
X78646848Y-115927056D01*
X80316917Y-70243134D02*
X80178802Y-70306593D01*
X131313275Y-21958074D02*
X131256892Y-21816921D01*
X130674396Y-67066923D02*
X130776293Y-66954139D01*
X130776290Y-71045879D02*
X130674393Y-70933095D01*
X78901942Y-66499986D02*
X78984006Y-66633902D01*
X129541917Y-20186728D02*
X129398089Y-20137568D01*
X78534581Y-22545715D02*
X78515379Y-22696494D01*
X130336329Y-20627654D02*
X130213814Y-20537691D01*
X130872344Y-71163679D02*
X132285279Y-70000513D01*
X77499991Y-64999999D02*
X78500011Y-64999999D01*
X78565574Y-65623729D02*
X78602240Y-65776450D01*
X131484612Y-115303521D02*
X131496151Y-115151962D01*
X130674393Y-20933081D02*
X130566914Y-20825603D01*
X80044078Y-20376952D02*
X79913091Y-20454058D01*
X130213820Y-117462330D02*
X130336334Y-117372366D01*
X131499999Y-65000000D02*
X132500010Y-65000000D01*
X131404249Y-72248049D02*
X131362436Y-72101916D01*
X131241938Y-68000513D02*
X128499998Y-68000513D01*
X78595752Y-22248039D02*
X78561394Y-22396102D01*
X130872346Y-67836838D02*
X131241938Y-68000513D01*
X130872344Y-71163679D02*
X130776290Y-71045879D01*
X78876940Y-71544101D02*
X78806566Y-71678825D01*
X78876940Y-21544087D02*
X78806566Y-21678811D01*
X131123058Y-21544080D02*
X131045951Y-21413093D01*
X78637564Y-22101907D02*
X78595752Y-22248039D01*
X130776293Y-116954153D02*
X130872346Y-116836352D01*
X131045951Y-21413093D02*
X130962308Y-21286179D01*
X78954047Y-21413101D02*
X77499991Y-20575822D01*
X78646848Y-65927042D02*
X78699277Y-66075094D01*
X78826999Y-116361973D02*
X78901942Y-116500000D01*
X130962308Y-71286193D02*
X130872344Y-71163679D01*
X81480486Y-70000513D02*
X81348043Y-70003868D01*
X80896093Y-20061408D02*
X80748030Y-20095765D01*
X131438599Y-65603901D02*
X131465412Y-65454287D01*
X131256889Y-66183079D02*
X131313271Y-66041926D01*
X128651947Y-117996179D02*
X128803506Y-117984640D01*
X80138034Y-117673016D02*
X80279793Y-117740634D01*
X131241917Y-70000513D02*
X130872344Y-70164179D01*
X131193432Y-21678805D02*
X131123058Y-21544080D01*
X81348043Y-70003868D02*
X81196485Y-70015407D01*
X78504124Y-115157020D02*
X78516448Y-115313596D01*
X79168579Y-66887944D02*
X77499991Y-66887944D01*
X128954278Y-70034601D02*
X128803498Y-70015400D01*
X129821194Y-117693453D02*
X129955918Y-117623080D01*
X80896093Y-70061422D02*
X80748030Y-70095779D01*
X131499999Y-115000014D02*
X132500010Y-115000014D01*
X131404243Y-65751964D02*
X131438599Y-65603901D01*
X132500010Y-23000000D02*
X131500010Y-23000000D01*
X78561394Y-72396116D02*
X78534581Y-72545729D01*
X79866091Y-67515993D02*
X80000007Y-67598058D01*
X81186408Y-67983560D02*
X81342984Y-67995885D01*
X129541917Y-70186742D02*
X129398089Y-70137582D01*
X81499991Y-118000014D02*
X128499998Y-118000027D01*
X130086906Y-117545973D02*
X130213820Y-117462330D01*
X131465412Y-65454287D02*
X131484612Y-65303507D01*
X78503839Y-22848052D02*
X78499991Y-23000000D01*
X129821194Y-67693439D02*
X129955918Y-67623066D01*
X129398089Y-70137582D02*
X129251955Y-70095770D01*
X130454134Y-117276313D02*
X130566918Y-117174416D01*
X79072966Y-116763354D02*
X79168579Y-116887958D01*
X128519736Y-70000513D02*
X131241917Y-70000513D01*
X131438606Y-72396113D02*
X131404249Y-72248049D01*
X131045951Y-71413107D02*
X130962308Y-71286193D01*
X79786177Y-20537701D02*
X79663663Y-20627664D01*
X128499998Y-118000027D02*
X128651947Y-117996179D01*
X131500010Y-23000000D02*
X131496162Y-22848051D01*
X129955912Y-20376942D02*
X129821187Y-20306569D01*
X132500010Y-117999027D02*
X133500010Y-117999027D01*
X130872346Y-66836338D02*
X130872346Y-67836838D01*
X77499991Y-66887944D02*
X77499991Y-64999999D01*
X78806566Y-71678825D02*
X78743107Y-71816941D01*
X80458070Y-20186738D02*
X80316917Y-20243120D01*
X129103899Y-117938625D02*
X129251963Y-117904268D01*
X76499991Y-20000000D02*
X71499991Y-20000000D01*
X80723541Y-117897779D02*
X80876261Y-117934446D01*
X81342984Y-67995885D02*
X81499991Y-68000000D01*
X138500010Y-118000027D02*
X138500010Y-20000000D01*
X130566914Y-20825603D02*
X130454130Y-20723707D01*
X130566918Y-67174402D02*
X130674396Y-67066923D01*
X78561394Y-22396102D02*
X78534581Y-22545715D01*
X80138034Y-67673002D02*
X80279793Y-67740620D01*
X131123058Y-66455921D02*
X131193431Y-66321196D01*
X131484612Y-65303507D02*
X131496151Y-65151948D01*
X79492621Y-117229430D02*
X79612050Y-117331433D01*
X78984006Y-116633916D02*
X79072966Y-116763354D01*
X80876261Y-117934446D02*
X81030691Y-117963071D01*
X131496162Y-22848051D02*
X131484622Y-22696492D01*
X131496151Y-115151962D02*
X131499999Y-115000014D01*
X77499991Y-115000013D02*
X78500011Y-115000013D01*
X132500010Y-73000014D02*
X131500010Y-73000014D01*
X77499991Y-117999027D02*
X77499991Y-117374940D01*
X78515379Y-72696508D02*
X78503839Y-72848066D01*
X129103892Y-20061400D02*
X128954278Y-20034587D01*
X81499991Y-68000513D02*
X78899650Y-68000513D01*
X79736654Y-67427032D02*
X79866091Y-67515993D01*
X80279793Y-67740620D02*
X80424898Y-67800726D01*
X131465412Y-115454301D02*
X131484612Y-115303521D01*
X79492621Y-67229416D02*
X79612050Y-67331419D01*
X79270581Y-117007388D02*
X79378694Y-117121316D01*
X131465420Y-22545712D02*
X131438606Y-22396099D01*
X79270581Y-67007374D02*
X79378694Y-67121302D01*
X80424898Y-67800726D02*
X80572949Y-67853155D01*
X79325601Y-70933104D02*
X79223705Y-71045888D01*
X131045951Y-116586923D02*
X131123058Y-116455935D01*
X132285279Y-70000513D02*
X130872344Y-71163679D01*
X78602240Y-65776450D02*
X78646848Y-65927042D01*
X129955912Y-70376956D02*
X129821187Y-70306583D01*
X130566914Y-70825617D02*
X130454130Y-70723721D01*
X128803498Y-20015386D02*
X128651939Y-20003847D01*
X81030691Y-117963071D02*
X81186408Y-117983574D01*
X129955918Y-117623080D02*
X130086906Y-117545973D01*
X78637564Y-72101921D02*
X78595752Y-72248053D01*
X80601897Y-70137592D02*
X80458070Y-70186752D01*
X131193431Y-116321210D02*
X131256889Y-116183093D01*
X78901942Y-116500000D02*
X78984006Y-116633916D01*
X131193432Y-71678819D02*
X131123058Y-71544094D01*
X129683077Y-117756913D02*
X129821194Y-117693453D01*
X131256892Y-21816921D02*
X131193432Y-21678805D01*
X78743107Y-71816941D02*
X78686725Y-71958093D01*
X80723541Y-67897765D02*
X80876261Y-67934432D01*
X129541924Y-67813281D02*
X129683077Y-67756899D01*
X129103899Y-67938611D02*
X129251963Y-67904254D01*
X79545863Y-20723716D02*
X79433079Y-20825612D01*
X130336334Y-117372366D02*
X130454134Y-117276313D01*
X81030691Y-67963057D02*
X81186408Y-67983560D01*
X131193431Y-66321196D02*
X131256889Y-66183079D01*
X79663663Y-70627678D02*
X79545863Y-70723730D01*
X78565574Y-115623743D02*
X78602240Y-115776464D01*
X133500010Y-20000000D02*
X132500010Y-20000000D01*
X78595752Y-72248053D02*
X78561394Y-72396116D01*
X77499991Y-116500000D02*
X77499991Y-115000013D01*
X129251963Y-117904268D02*
X129398096Y-117862456D01*
X130962309Y-116713837D02*
X131045951Y-116586923D01*
X78699277Y-116075108D02*
X78759382Y-116220212D01*
X132500010Y-20575818D02*
X131045951Y-21413093D01*
X130872346Y-66836338D02*
X130962309Y-66713823D01*
X78954047Y-71413115D02*
X78876940Y-71544101D01*
X129541924Y-117813295D02*
X129683077Y-117756913D01*
X79913091Y-70454072D02*
X79786177Y-70537715D01*
X132500010Y-116586923D02*
X131045951Y-116586923D01*
X80000007Y-117598072D02*
X80138034Y-117673016D01*
X131362431Y-65898098D02*
X131404243Y-65751964D01*
X129398096Y-117862456D02*
X129541924Y-117813295D01*
X131362436Y-72101916D02*
X131313275Y-71958088D01*
X131256889Y-116183093D02*
X131313271Y-116041940D01*
X131484622Y-72696506D02*
X131465420Y-72545726D01*
X129251955Y-70095770D02*
X129103892Y-70061414D01*
X77499991Y-20000000D02*
X76499991Y-20000000D01*
X78504124Y-65157006D02*
X78516448Y-65313582D01*
X133500010Y-118000027D02*
X138500010Y-118000027D01*
X130872344Y-71163679D02*
X132500010Y-71163679D01*
X78499991Y-23000000D02*
X77499991Y-23000000D01*
X79433079Y-70825626D02*
X79325601Y-70933104D01*
X80601897Y-20137578D02*
X80458070Y-20186738D01*
X130776293Y-66954139D02*
X130872346Y-66836338D01*
X132500010Y-115000014D02*
X132500010Y-116586923D01*
X130086906Y-67545959D02*
X130213820Y-67462316D01*
X132500010Y-65000000D02*
X132500010Y-66836338D01*
X79612050Y-67331419D02*
X79736654Y-67427032D01*
X79168579Y-67888444D02*
X79168579Y-66887944D01*
X131313271Y-116041940D02*
X131362431Y-115898112D01*
X79127652Y-71163688D02*
X79127652Y-70164188D01*
X78826999Y-66361959D02*
X78901942Y-66499986D01*
X128954278Y-20034587D02*
X128803498Y-20015386D01*
X79913091Y-20454058D02*
X79786177Y-20537701D01*
X129398096Y-67862442D02*
X129541924Y-67813281D01*
X81186408Y-117983574D02*
X81342984Y-117995899D01*
X129683077Y-67756899D02*
X129821194Y-67693439D01*
X131045951Y-116586923D02*
X132500010Y-117423612D01*
X131313275Y-71958088D02*
X131256892Y-71816935D01*
X81342984Y-117995899D02*
X81499991Y-118000014D01*
X130872344Y-70164179D02*
X130872344Y-71163679D01*
X79037689Y-21286187D02*
X78954047Y-21413101D01*
X132500010Y-20000000D02*
X132500010Y-20575818D01*
X78516448Y-65313582D02*
X78536950Y-65469299D01*
X78536950Y-115469313D02*
X78565574Y-115623743D01*
X79223705Y-21045874D02*
X79127652Y-21163674D01*
X78499991Y-73000014D02*
X77499991Y-73000014D01*
X128499998Y-68000013D02*
X128651947Y-67996165D01*
X130776290Y-21045865D02*
X130674393Y-20933081D01*
X78646848Y-115927056D02*
X78699277Y-116075108D01*
X80178802Y-20306579D02*
X80044078Y-20376952D01*
X79127652Y-21163674D02*
X79037689Y-21286187D01*
X81045706Y-70034609D02*
X80896093Y-70061422D01*
X80572949Y-117853169D02*
X80723541Y-117897779D01*
X130213820Y-67462316D02*
X130336334Y-67372352D01*
X130336334Y-67372352D02*
X130454134Y-67276299D01*
X128954286Y-67965425D02*
X129103899Y-67938611D01*
X128803506Y-67984626D02*
X128954286Y-67965425D01*
X78516448Y-115313596D02*
X78536950Y-115469313D01*
X80458070Y-70186752D02*
X80316917Y-70243134D01*
X77499991Y-21413101D02*
X78954047Y-21413101D01*
X79168579Y-66887944D02*
X79270581Y-67007374D01*
X78759382Y-116220212D02*
X78826999Y-116361973D01*
X131438606Y-22396099D02*
X131404249Y-22248035D01*
X80000007Y-67598058D02*
X80138034Y-67673002D01*
X81196485Y-70015407D02*
X81045706Y-70034609D01*
X78534581Y-72545729D02*
X78515379Y-72696508D01*
X78899650Y-68000513D02*
X79168579Y-67888444D01*
X79663663Y-20627664D02*
X79545863Y-20723716D01*
X130566918Y-117174416D02*
X130674396Y-117066937D01*
X131438599Y-115603915D02*
X131465412Y-115454301D01*
X78758064Y-70000513D02*
X81480486Y-70000513D01*
X81348043Y-20003854D02*
X81196485Y-20015393D01*
X131045951Y-66586909D02*
X131123058Y-66455921D01*
X132500010Y-21413093D02*
X132500010Y-23000000D01*
X131404243Y-115751978D02*
X131438599Y-115603915D01*
X80572949Y-67853155D02*
X80723541Y-67897765D01*
X131362431Y-115898112D02*
X131404243Y-115751978D01*
X129398089Y-20137568D02*
X129251955Y-20095756D01*
X78901942Y-116500000D02*
X77499991Y-116500000D01*
X128651939Y-20003847D02*
X128499991Y-20000000D01*
X77499991Y-73000014D02*
X77499991Y-71163688D01*
X80876261Y-67934432D02*
X81030691Y-67963057D01*
X80424898Y-117800740D02*
X80572949Y-117853169D01*
X78515379Y-22696494D02*
X78503839Y-22848052D01*
X131045951Y-21413093D02*
X132500010Y-21413093D01*
X131465420Y-72545726D02*
X131438606Y-72396113D01*
X76499991Y-117999027D02*
X77499991Y-117999027D01*
X128954286Y-117965439D02*
X129103899Y-117938625D01*
X128499991Y-20000000D02*
X81499990Y-20000006D01*
X130213814Y-70537705D02*
X130086900Y-70454063D01*
X130213814Y-20537691D02*
X130086900Y-20454049D01*
X78984006Y-66633902D02*
X79072966Y-66763340D01*
X79378694Y-67121302D02*
X79492621Y-67229416D01*
X131256892Y-71816935D02*
X131193432Y-71678819D01*
X130872344Y-21163665D02*
X130776290Y-21045865D01*
X81045706Y-20034595D02*
X80896093Y-20061408D01*
X80279793Y-117740634D02*
X80424898Y-117800740D01*
X130872346Y-116836352D02*
X130962309Y-116713837D01*
X132500010Y-117423612D02*
X132500010Y-117999027D01*
X71499991Y-20000000D02*
X71499991Y-118000027D01*
X130336329Y-70627668D02*
X130213814Y-70537705D01*
X130962308Y-21286179D02*
X130872344Y-21163665D01*
X79127652Y-71163688D02*
X79037689Y-71286201D01*
X77499991Y-20575822D02*
X77499991Y-20000000D01*
X79433079Y-20825612D02*
X79325601Y-20933090D01*
X78759382Y-66220198D02*
X78826999Y-66361959D01*
X131484622Y-22696492D02*
X131465420Y-22545712D01*
X129251955Y-20095756D02*
X129103892Y-20061400D01*
X128803506Y-117984640D02*
X128954286Y-117965439D01*
X132500010Y-71163679D02*
X132500010Y-73000014D01*
X129821187Y-20306569D02*
X129683070Y-20243110D01*
X80178802Y-70306593D02*
X80044078Y-70376966D01*
X129103892Y-70061414D02*
X128954278Y-70034601D01*
X79736654Y-117427046D02*
X79866091Y-117516007D01*
X79786177Y-70537715D02*
X79663663Y-70627678D01*
X79037689Y-71286201D02*
X78954047Y-71413115D01*
X129251963Y-67904254D02*
X129398096Y-67862442D01*
X78954047Y-21413101D02*
X78876940Y-21544087D01*
X129955918Y-67623066D02*
X130086906Y-67545959D01*
X131123058Y-71544094D02*
X131045951Y-71413107D01*
X78686725Y-71958093D02*
X78637564Y-72101921D01*
X80748030Y-70095779D02*
X80601897Y-70137592D01*
X130086900Y-70454063D02*
X129955912Y-70376956D01*
X71499991Y-118000027D02*
X76499991Y-118000027D01*
X132500010Y-66836338D02*
X130872346Y-66836338D01*
X129821187Y-70306583D02*
X129683070Y-70243124D01*
X78536950Y-65469299D02*
X78565574Y-65623729D01*
X131404249Y-22248035D02*
X131362436Y-22101902D01*
X130454134Y-67276299D02*
X130566918Y-67174402D01*
X130962309Y-66713823D02*
X131045951Y-66586909D01*
X80316917Y-20243120D02*
X80178802Y-20306579D01*
X130454130Y-20723707D02*
X130336329Y-20627654D01*
M02*
