%TF.GenerationSoftware,KiCad,Pcbnew,7.0.11*%
%TF.CreationDate,2024-05-24T13:54:11+08:00*%
%TF.ProjectId,panel,70616e65-6c2e-46b6-9963-61645f706362,rev?*%
%TF.SameCoordinates,Original*%
%TF.FileFunction,Legend,Bot*%
%TF.FilePolarity,Positive*%
%FSLAX46Y46*%
G04 Gerber Fmt 4.6, Leading zero omitted, Abs format (unit mm)*
G04 Created by KiCad (PCBNEW 7.0.11) date 2024-05-24 13:54:11*
%MOMM*%
%LPD*%
G01*
G04 APERTURE LIST*
%ADD10C,0.150000*%
%ADD11C,0.120000*%
%ADD12C,0.100000*%
%ADD13C,0.127000*%
G04 APERTURE END LIST*
D10*
X105597973Y-25464124D02*
X105264640Y-25464124D01*
X105664640Y-25749839D02*
X105431307Y-24749839D01*
X105431307Y-24749839D02*
X105197973Y-25749839D01*
X104831307Y-24749839D02*
X104764640Y-24749839D01*
X104764640Y-24749839D02*
X104697973Y-24797458D01*
X104697973Y-24797458D02*
X104664640Y-24845077D01*
X104664640Y-24845077D02*
X104631307Y-24940315D01*
X104631307Y-24940315D02*
X104597973Y-25130791D01*
X104597973Y-25130791D02*
X104597973Y-25368886D01*
X104597973Y-25368886D02*
X104631307Y-25559362D01*
X104631307Y-25559362D02*
X104664640Y-25654600D01*
X104664640Y-25654600D02*
X104697973Y-25702220D01*
X104697973Y-25702220D02*
X104764640Y-25749839D01*
X104764640Y-25749839D02*
X104831307Y-25749839D01*
X104831307Y-25749839D02*
X104897973Y-25702220D01*
X104897973Y-25702220D02*
X104931307Y-25654600D01*
X104931307Y-25654600D02*
X104964640Y-25559362D01*
X104964640Y-25559362D02*
X104997973Y-25368886D01*
X104997973Y-25368886D02*
X104997973Y-25130791D01*
X104997973Y-25130791D02*
X104964640Y-24940315D01*
X104964640Y-24940315D02*
X104931307Y-24845077D01*
X104931307Y-24845077D02*
X104897973Y-24797458D01*
X104897973Y-24797458D02*
X104831307Y-24749839D01*
X103797973Y-25464124D02*
X103464640Y-25464124D01*
X103864640Y-25749839D02*
X103631307Y-24749839D01*
X103631307Y-24749839D02*
X103397973Y-25749839D01*
X102797973Y-25749839D02*
X103197973Y-25749839D01*
X102997973Y-25749839D02*
X102997973Y-24749839D01*
X102997973Y-24749839D02*
X103064640Y-24892696D01*
X103064640Y-24892696D02*
X103131307Y-24987934D01*
X103131307Y-24987934D02*
X103197973Y-25035553D01*
X101997973Y-25464124D02*
X101664640Y-25464124D01*
X102064640Y-25749839D02*
X101831307Y-24749839D01*
X101831307Y-24749839D02*
X101597973Y-25749839D01*
X101397973Y-24845077D02*
X101364640Y-24797458D01*
X101364640Y-24797458D02*
X101297973Y-24749839D01*
X101297973Y-24749839D02*
X101131307Y-24749839D01*
X101131307Y-24749839D02*
X101064640Y-24797458D01*
X101064640Y-24797458D02*
X101031307Y-24845077D01*
X101031307Y-24845077D02*
X100997973Y-24940315D01*
X100997973Y-24940315D02*
X100997973Y-25035553D01*
X100997973Y-25035553D02*
X101031307Y-25178410D01*
X101031307Y-25178410D02*
X101431307Y-25749839D01*
X101431307Y-25749839D02*
X100997973Y-25749839D01*
X100197973Y-25464124D02*
X99864640Y-25464124D01*
X100264640Y-25749839D02*
X100031307Y-24749839D01*
X100031307Y-24749839D02*
X99797973Y-25749839D01*
X99631307Y-24749839D02*
X99197973Y-24749839D01*
X99197973Y-24749839D02*
X99431307Y-25130791D01*
X99431307Y-25130791D02*
X99331307Y-25130791D01*
X99331307Y-25130791D02*
X99264640Y-25178410D01*
X99264640Y-25178410D02*
X99231307Y-25226029D01*
X99231307Y-25226029D02*
X99197973Y-25321267D01*
X99197973Y-25321267D02*
X99197973Y-25559362D01*
X99197973Y-25559362D02*
X99231307Y-25654600D01*
X99231307Y-25654600D02*
X99264640Y-25702220D01*
X99264640Y-25702220D02*
X99331307Y-25749839D01*
X99331307Y-25749839D02*
X99531307Y-25749839D01*
X99531307Y-25749839D02*
X99597973Y-25702220D01*
X99597973Y-25702220D02*
X99631307Y-25654600D01*
X98397973Y-25464124D02*
X98064640Y-25464124D01*
X98464640Y-25749839D02*
X98231307Y-24749839D01*
X98231307Y-24749839D02*
X97997973Y-25749839D01*
X97397973Y-24797458D02*
X97464640Y-24749839D01*
X97464640Y-24749839D02*
X97564640Y-24749839D01*
X97564640Y-24749839D02*
X97664640Y-24797458D01*
X97664640Y-24797458D02*
X97731307Y-24892696D01*
X97731307Y-24892696D02*
X97764640Y-24987934D01*
X97764640Y-24987934D02*
X97797973Y-25178410D01*
X97797973Y-25178410D02*
X97797973Y-25321267D01*
X97797973Y-25321267D02*
X97764640Y-25511743D01*
X97764640Y-25511743D02*
X97731307Y-25606981D01*
X97731307Y-25606981D02*
X97664640Y-25702220D01*
X97664640Y-25702220D02*
X97564640Y-25749839D01*
X97564640Y-25749839D02*
X97497973Y-25749839D01*
X97497973Y-25749839D02*
X97397973Y-25702220D01*
X97397973Y-25702220D02*
X97364640Y-25654600D01*
X97364640Y-25654600D02*
X97364640Y-25321267D01*
X97364640Y-25321267D02*
X97497973Y-25321267D01*
X105597973Y-75464138D02*
X105264640Y-75464138D01*
X105664640Y-75749853D02*
X105431307Y-74749853D01*
X105431307Y-74749853D02*
X105197973Y-75749853D01*
X104831307Y-74749853D02*
X104764640Y-74749853D01*
X104764640Y-74749853D02*
X104697973Y-74797472D01*
X104697973Y-74797472D02*
X104664640Y-74845091D01*
X104664640Y-74845091D02*
X104631307Y-74940329D01*
X104631307Y-74940329D02*
X104597973Y-75130805D01*
X104597973Y-75130805D02*
X104597973Y-75368900D01*
X104597973Y-75368900D02*
X104631307Y-75559376D01*
X104631307Y-75559376D02*
X104664640Y-75654614D01*
X104664640Y-75654614D02*
X104697973Y-75702234D01*
X104697973Y-75702234D02*
X104764640Y-75749853D01*
X104764640Y-75749853D02*
X104831307Y-75749853D01*
X104831307Y-75749853D02*
X104897973Y-75702234D01*
X104897973Y-75702234D02*
X104931307Y-75654614D01*
X104931307Y-75654614D02*
X104964640Y-75559376D01*
X104964640Y-75559376D02*
X104997973Y-75368900D01*
X104997973Y-75368900D02*
X104997973Y-75130805D01*
X104997973Y-75130805D02*
X104964640Y-74940329D01*
X104964640Y-74940329D02*
X104931307Y-74845091D01*
X104931307Y-74845091D02*
X104897973Y-74797472D01*
X104897973Y-74797472D02*
X104831307Y-74749853D01*
X103797973Y-75464138D02*
X103464640Y-75464138D01*
X103864640Y-75749853D02*
X103631307Y-74749853D01*
X103631307Y-74749853D02*
X103397973Y-75749853D01*
X102797973Y-75749853D02*
X103197973Y-75749853D01*
X102997973Y-75749853D02*
X102997973Y-74749853D01*
X102997973Y-74749853D02*
X103064640Y-74892710D01*
X103064640Y-74892710D02*
X103131307Y-74987948D01*
X103131307Y-74987948D02*
X103197973Y-75035567D01*
X101997973Y-75464138D02*
X101664640Y-75464138D01*
X102064640Y-75749853D02*
X101831307Y-74749853D01*
X101831307Y-74749853D02*
X101597973Y-75749853D01*
X101397973Y-74845091D02*
X101364640Y-74797472D01*
X101364640Y-74797472D02*
X101297973Y-74749853D01*
X101297973Y-74749853D02*
X101131307Y-74749853D01*
X101131307Y-74749853D02*
X101064640Y-74797472D01*
X101064640Y-74797472D02*
X101031307Y-74845091D01*
X101031307Y-74845091D02*
X100997973Y-74940329D01*
X100997973Y-74940329D02*
X100997973Y-75035567D01*
X100997973Y-75035567D02*
X101031307Y-75178424D01*
X101031307Y-75178424D02*
X101431307Y-75749853D01*
X101431307Y-75749853D02*
X100997973Y-75749853D01*
X100197973Y-75464138D02*
X99864640Y-75464138D01*
X100264640Y-75749853D02*
X100031307Y-74749853D01*
X100031307Y-74749853D02*
X99797973Y-75749853D01*
X99631307Y-74749853D02*
X99197973Y-74749853D01*
X99197973Y-74749853D02*
X99431307Y-75130805D01*
X99431307Y-75130805D02*
X99331307Y-75130805D01*
X99331307Y-75130805D02*
X99264640Y-75178424D01*
X99264640Y-75178424D02*
X99231307Y-75226043D01*
X99231307Y-75226043D02*
X99197973Y-75321281D01*
X99197973Y-75321281D02*
X99197973Y-75559376D01*
X99197973Y-75559376D02*
X99231307Y-75654614D01*
X99231307Y-75654614D02*
X99264640Y-75702234D01*
X99264640Y-75702234D02*
X99331307Y-75749853D01*
X99331307Y-75749853D02*
X99531307Y-75749853D01*
X99531307Y-75749853D02*
X99597973Y-75702234D01*
X99597973Y-75702234D02*
X99631307Y-75654614D01*
X98397973Y-75464138D02*
X98064640Y-75464138D01*
X98464640Y-75749853D02*
X98231307Y-74749853D01*
X98231307Y-74749853D02*
X97997973Y-75749853D01*
X97397973Y-74797472D02*
X97464640Y-74749853D01*
X97464640Y-74749853D02*
X97564640Y-74749853D01*
X97564640Y-74749853D02*
X97664640Y-74797472D01*
X97664640Y-74797472D02*
X97731307Y-74892710D01*
X97731307Y-74892710D02*
X97764640Y-74987948D01*
X97764640Y-74987948D02*
X97797973Y-75178424D01*
X97797973Y-75178424D02*
X97797973Y-75321281D01*
X97797973Y-75321281D02*
X97764640Y-75511757D01*
X97764640Y-75511757D02*
X97731307Y-75606995D01*
X97731307Y-75606995D02*
X97664640Y-75702234D01*
X97664640Y-75702234D02*
X97564640Y-75749853D01*
X97564640Y-75749853D02*
X97497973Y-75749853D01*
X97497973Y-75749853D02*
X97397973Y-75702234D01*
X97397973Y-75702234D02*
X97364640Y-75654614D01*
X97364640Y-75654614D02*
X97364640Y-75321281D01*
X97364640Y-75321281D02*
X97497973Y-75321281D01*
X118283344Y-89232324D02*
X118188106Y-89270419D01*
X118188106Y-89270419D02*
X118159535Y-89308515D01*
X118159535Y-89308515D02*
X118135725Y-89384705D01*
X118135725Y-89384705D02*
X118150011Y-89498991D01*
X118150011Y-89498991D02*
X118192868Y-89575181D01*
X118192868Y-89575181D02*
X118230964Y-89613277D01*
X118230964Y-89613277D02*
X118302392Y-89651372D01*
X118302392Y-89651372D02*
X118569059Y-89651372D01*
X118569059Y-89651372D02*
X118469059Y-88851372D01*
X118469059Y-88851372D02*
X118235725Y-88851372D01*
X118235725Y-88851372D02*
X118173821Y-88889467D01*
X118173821Y-88889467D02*
X118145249Y-88927562D01*
X118145249Y-88927562D02*
X118121440Y-89003753D01*
X118121440Y-89003753D02*
X118130964Y-89079943D01*
X118130964Y-89079943D02*
X118173821Y-89156134D01*
X118173821Y-89156134D02*
X118211916Y-89194229D01*
X118211916Y-89194229D02*
X118283344Y-89232324D01*
X118283344Y-89232324D02*
X118516678Y-89232324D01*
X117897630Y-89613277D02*
X117802392Y-89651372D01*
X117802392Y-89651372D02*
X117635725Y-89651372D01*
X117635725Y-89651372D02*
X117564297Y-89613277D01*
X117564297Y-89613277D02*
X117526202Y-89575181D01*
X117526202Y-89575181D02*
X117483344Y-89498991D01*
X117483344Y-89498991D02*
X117473821Y-89422800D01*
X117473821Y-89422800D02*
X117497630Y-89346610D01*
X117497630Y-89346610D02*
X117526202Y-89308515D01*
X117526202Y-89308515D02*
X117588106Y-89270419D01*
X117588106Y-89270419D02*
X117716678Y-89232324D01*
X117716678Y-89232324D02*
X117778583Y-89194229D01*
X117778583Y-89194229D02*
X117807154Y-89156134D01*
X117807154Y-89156134D02*
X117830964Y-89079943D01*
X117830964Y-89079943D02*
X117821440Y-89003753D01*
X117821440Y-89003753D02*
X117778583Y-88927562D01*
X117778583Y-88927562D02*
X117740487Y-88889467D01*
X117740487Y-88889467D02*
X117669059Y-88851372D01*
X117669059Y-88851372D02*
X117502392Y-88851372D01*
X117502392Y-88851372D02*
X117407154Y-88889467D01*
X117202392Y-89651372D02*
X117102392Y-88851372D01*
X117102392Y-88851372D02*
X116935725Y-88851372D01*
X116935725Y-88851372D02*
X116840487Y-88889467D01*
X116840487Y-88889467D02*
X116783344Y-88965657D01*
X116783344Y-88965657D02*
X116759535Y-89041848D01*
X116759535Y-89041848D02*
X116745249Y-89194229D01*
X116745249Y-89194229D02*
X116759535Y-89308515D01*
X116759535Y-89308515D02*
X116811916Y-89460896D01*
X116811916Y-89460896D02*
X116854773Y-89537086D01*
X116854773Y-89537086D02*
X116930963Y-89613277D01*
X116930963Y-89613277D02*
X117035725Y-89651372D01*
X117035725Y-89651372D02*
X117202392Y-89651372D01*
X116464297Y-89346610D02*
X115930963Y-89346610D01*
X115602391Y-88851372D02*
X115169058Y-88851372D01*
X115169058Y-88851372D02*
X115440487Y-89156134D01*
X115440487Y-89156134D02*
X115340487Y-89156134D01*
X115340487Y-89156134D02*
X115278582Y-89194229D01*
X115278582Y-89194229D02*
X115250010Y-89232324D01*
X115250010Y-89232324D02*
X115226201Y-89308515D01*
X115226201Y-89308515D02*
X115250010Y-89498991D01*
X115250010Y-89498991D02*
X115292868Y-89575181D01*
X115292868Y-89575181D02*
X115330963Y-89613277D01*
X115330963Y-89613277D02*
X115402391Y-89651372D01*
X115402391Y-89651372D02*
X115602391Y-89651372D01*
X115602391Y-89651372D02*
X115664296Y-89613277D01*
X115664296Y-89613277D02*
X115692868Y-89575181D01*
X114930963Y-89346610D02*
X114397629Y-89346610D01*
X113692867Y-89575181D02*
X113730962Y-89613277D01*
X113730962Y-89613277D02*
X113835724Y-89651372D01*
X113835724Y-89651372D02*
X113902391Y-89651372D01*
X113902391Y-89651372D02*
X113997629Y-89613277D01*
X113997629Y-89613277D02*
X114054772Y-89537086D01*
X114054772Y-89537086D02*
X114078581Y-89460896D01*
X114078581Y-89460896D02*
X114092867Y-89308515D01*
X114092867Y-89308515D02*
X114078581Y-89194229D01*
X114078581Y-89194229D02*
X114026200Y-89041848D01*
X114026200Y-89041848D02*
X113983343Y-88965657D01*
X113983343Y-88965657D02*
X113907153Y-88889467D01*
X113907153Y-88889467D02*
X113802391Y-88851372D01*
X113802391Y-88851372D02*
X113735724Y-88851372D01*
X113735724Y-88851372D02*
X113640486Y-88889467D01*
X113640486Y-88889467D02*
X113611915Y-88927562D01*
X113302391Y-89651372D02*
X113364296Y-89613277D01*
X113364296Y-89613277D02*
X113388105Y-89537086D01*
X113388105Y-89537086D02*
X113302391Y-88851372D01*
X112735724Y-89651372D02*
X112683343Y-89232324D01*
X112683343Y-89232324D02*
X112707152Y-89156134D01*
X112707152Y-89156134D02*
X112769057Y-89118038D01*
X112769057Y-89118038D02*
X112902390Y-89118038D01*
X112902390Y-89118038D02*
X112973819Y-89156134D01*
X112730962Y-89613277D02*
X112802390Y-89651372D01*
X112802390Y-89651372D02*
X112969057Y-89651372D01*
X112969057Y-89651372D02*
X113030962Y-89613277D01*
X113030962Y-89613277D02*
X113054771Y-89537086D01*
X113054771Y-89537086D02*
X113045248Y-89460896D01*
X113045248Y-89460896D02*
X113002390Y-89384705D01*
X113002390Y-89384705D02*
X112930962Y-89346610D01*
X112930962Y-89346610D02*
X112764295Y-89346610D01*
X112764295Y-89346610D02*
X112692867Y-89308515D01*
X112035724Y-89118038D02*
X112102391Y-89651372D01*
X112335724Y-89118038D02*
X112388105Y-89537086D01*
X112388105Y-89537086D02*
X112364296Y-89613277D01*
X112364296Y-89613277D02*
X112302391Y-89651372D01*
X112302391Y-89651372D02*
X112202391Y-89651372D01*
X112202391Y-89651372D02*
X112130962Y-89613277D01*
X112130962Y-89613277D02*
X112092867Y-89575181D01*
X111797629Y-89613277D02*
X111735724Y-89651372D01*
X111735724Y-89651372D02*
X111602391Y-89651372D01*
X111602391Y-89651372D02*
X111530963Y-89613277D01*
X111530963Y-89613277D02*
X111488105Y-89537086D01*
X111488105Y-89537086D02*
X111483343Y-89498991D01*
X111483343Y-89498991D02*
X111507153Y-89422800D01*
X111507153Y-89422800D02*
X111569058Y-89384705D01*
X111569058Y-89384705D02*
X111669058Y-89384705D01*
X111669058Y-89384705D02*
X111730963Y-89346610D01*
X111730963Y-89346610D02*
X111754772Y-89270419D01*
X111754772Y-89270419D02*
X111750010Y-89232324D01*
X111750010Y-89232324D02*
X111707153Y-89156134D01*
X111707153Y-89156134D02*
X111635724Y-89118038D01*
X111635724Y-89118038D02*
X111535724Y-89118038D01*
X111535724Y-89118038D02*
X111473820Y-89156134D01*
X110930962Y-89613277D02*
X111002391Y-89651372D01*
X111002391Y-89651372D02*
X111135724Y-89651372D01*
X111135724Y-89651372D02*
X111197629Y-89613277D01*
X111197629Y-89613277D02*
X111221438Y-89537086D01*
X111221438Y-89537086D02*
X111183343Y-89232324D01*
X111183343Y-89232324D02*
X111140486Y-89156134D01*
X111140486Y-89156134D02*
X111069057Y-89118038D01*
X111069057Y-89118038D02*
X110935724Y-89118038D01*
X110935724Y-89118038D02*
X110873819Y-89156134D01*
X110873819Y-89156134D02*
X110850010Y-89232324D01*
X110850010Y-89232324D02*
X110859534Y-89308515D01*
X110859534Y-89308515D02*
X111202391Y-89384705D01*
X118469059Y-90939372D02*
X118530964Y-90901277D01*
X118530964Y-90901277D02*
X118559535Y-90863181D01*
X118559535Y-90863181D02*
X118583344Y-90786991D01*
X118583344Y-90786991D02*
X118554773Y-90558419D01*
X118554773Y-90558419D02*
X118511916Y-90482229D01*
X118511916Y-90482229D02*
X118473821Y-90444134D01*
X118473821Y-90444134D02*
X118402392Y-90406038D01*
X118402392Y-90406038D02*
X118302392Y-90406038D01*
X118302392Y-90406038D02*
X118240487Y-90444134D01*
X118240487Y-90444134D02*
X118211916Y-90482229D01*
X118211916Y-90482229D02*
X118188106Y-90558419D01*
X118188106Y-90558419D02*
X118216678Y-90786991D01*
X118216678Y-90786991D02*
X118259535Y-90863181D01*
X118259535Y-90863181D02*
X118297630Y-90901277D01*
X118297630Y-90901277D02*
X118369059Y-90939372D01*
X118369059Y-90939372D02*
X118469059Y-90939372D01*
X117869059Y-90406038D02*
X117969059Y-91206038D01*
X117873821Y-90444134D02*
X117802392Y-90406038D01*
X117802392Y-90406038D02*
X117669059Y-90406038D01*
X117669059Y-90406038D02*
X117607154Y-90444134D01*
X117607154Y-90444134D02*
X117578583Y-90482229D01*
X117578583Y-90482229D02*
X117554773Y-90558419D01*
X117554773Y-90558419D02*
X117583345Y-90786991D01*
X117583345Y-90786991D02*
X117626202Y-90863181D01*
X117626202Y-90863181D02*
X117664297Y-90901277D01*
X117664297Y-90901277D02*
X117735726Y-90939372D01*
X117735726Y-90939372D02*
X117869059Y-90939372D01*
X117869059Y-90939372D02*
X117930964Y-90901277D01*
X117030964Y-90901277D02*
X117102393Y-90939372D01*
X117102393Y-90939372D02*
X117235726Y-90939372D01*
X117235726Y-90939372D02*
X117297631Y-90901277D01*
X117297631Y-90901277D02*
X117321440Y-90825086D01*
X117321440Y-90825086D02*
X117283345Y-90520324D01*
X117283345Y-90520324D02*
X117240488Y-90444134D01*
X117240488Y-90444134D02*
X117169059Y-90406038D01*
X117169059Y-90406038D02*
X117035726Y-90406038D01*
X117035726Y-90406038D02*
X116973821Y-90444134D01*
X116973821Y-90444134D02*
X116950012Y-90520324D01*
X116950012Y-90520324D02*
X116959536Y-90596515D01*
X116959536Y-90596515D02*
X117302393Y-90672705D01*
X116635726Y-90406038D02*
X116702393Y-90939372D01*
X116645250Y-90482229D02*
X116607155Y-90444134D01*
X116607155Y-90444134D02*
X116535726Y-90406038D01*
X116535726Y-90406038D02*
X116435726Y-90406038D01*
X116435726Y-90406038D02*
X116373821Y-90444134D01*
X116373821Y-90444134D02*
X116350012Y-90520324D01*
X116350012Y-90520324D02*
X116402393Y-90939372D01*
X115564298Y-90901277D02*
X115502393Y-90939372D01*
X115502393Y-90939372D02*
X115369060Y-90939372D01*
X115369060Y-90939372D02*
X115297632Y-90901277D01*
X115297632Y-90901277D02*
X115254774Y-90825086D01*
X115254774Y-90825086D02*
X115250012Y-90786991D01*
X115250012Y-90786991D02*
X115273822Y-90710800D01*
X115273822Y-90710800D02*
X115335727Y-90672705D01*
X115335727Y-90672705D02*
X115435727Y-90672705D01*
X115435727Y-90672705D02*
X115497632Y-90634610D01*
X115497632Y-90634610D02*
X115521441Y-90558419D01*
X115521441Y-90558419D02*
X115516679Y-90520324D01*
X115516679Y-90520324D02*
X115473822Y-90444134D01*
X115473822Y-90444134D02*
X115402393Y-90406038D01*
X115402393Y-90406038D02*
X115302393Y-90406038D01*
X115302393Y-90406038D02*
X115240489Y-90444134D01*
X114869060Y-90939372D02*
X114930965Y-90901277D01*
X114930965Y-90901277D02*
X114959536Y-90863181D01*
X114959536Y-90863181D02*
X114983345Y-90786991D01*
X114983345Y-90786991D02*
X114954774Y-90558419D01*
X114954774Y-90558419D02*
X114911917Y-90482229D01*
X114911917Y-90482229D02*
X114873822Y-90444134D01*
X114873822Y-90444134D02*
X114802393Y-90406038D01*
X114802393Y-90406038D02*
X114702393Y-90406038D01*
X114702393Y-90406038D02*
X114640488Y-90444134D01*
X114640488Y-90444134D02*
X114611917Y-90482229D01*
X114611917Y-90482229D02*
X114588107Y-90558419D01*
X114588107Y-90558419D02*
X114616679Y-90786991D01*
X114616679Y-90786991D02*
X114659536Y-90863181D01*
X114659536Y-90863181D02*
X114697631Y-90901277D01*
X114697631Y-90901277D02*
X114769060Y-90939372D01*
X114769060Y-90939372D02*
X114869060Y-90939372D01*
X113969060Y-90406038D02*
X114035727Y-90939372D01*
X114269060Y-90406038D02*
X114321441Y-90825086D01*
X114321441Y-90825086D02*
X114297632Y-90901277D01*
X114297632Y-90901277D02*
X114235727Y-90939372D01*
X114235727Y-90939372D02*
X114135727Y-90939372D01*
X114135727Y-90939372D02*
X114064298Y-90901277D01*
X114064298Y-90901277D02*
X114026203Y-90863181D01*
X113702394Y-90939372D02*
X113635727Y-90406038D01*
X113654775Y-90558419D02*
X113611918Y-90482229D01*
X113611918Y-90482229D02*
X113573822Y-90444134D01*
X113573822Y-90444134D02*
X113502394Y-90406038D01*
X113502394Y-90406038D02*
X113435727Y-90406038D01*
X112964299Y-90901277D02*
X113035727Y-90939372D01*
X113035727Y-90939372D02*
X113169061Y-90939372D01*
X113169061Y-90939372D02*
X113230966Y-90901277D01*
X113230966Y-90901277D02*
X113259537Y-90863181D01*
X113259537Y-90863181D02*
X113283346Y-90786991D01*
X113283346Y-90786991D02*
X113254775Y-90558419D01*
X113254775Y-90558419D02*
X113211918Y-90482229D01*
X113211918Y-90482229D02*
X113173823Y-90444134D01*
X113173823Y-90444134D02*
X113102394Y-90406038D01*
X113102394Y-90406038D02*
X112969061Y-90406038D01*
X112969061Y-90406038D02*
X112907156Y-90444134D01*
X112397632Y-90901277D02*
X112469061Y-90939372D01*
X112469061Y-90939372D02*
X112602394Y-90939372D01*
X112602394Y-90939372D02*
X112664299Y-90901277D01*
X112664299Y-90901277D02*
X112688108Y-90825086D01*
X112688108Y-90825086D02*
X112650013Y-90520324D01*
X112650013Y-90520324D02*
X112607156Y-90444134D01*
X112607156Y-90444134D02*
X112535727Y-90406038D01*
X112535727Y-90406038D02*
X112402394Y-90406038D01*
X112402394Y-90406038D02*
X112340489Y-90444134D01*
X112340489Y-90444134D02*
X112316680Y-90520324D01*
X112316680Y-90520324D02*
X112326204Y-90596515D01*
X112326204Y-90596515D02*
X112669061Y-90672705D01*
X118569059Y-92227372D02*
X118469059Y-91427372D01*
X118269059Y-92227372D02*
X118216678Y-91808324D01*
X118216678Y-91808324D02*
X118240487Y-91732134D01*
X118240487Y-91732134D02*
X118302392Y-91694038D01*
X118302392Y-91694038D02*
X118402392Y-91694038D01*
X118402392Y-91694038D02*
X118473821Y-91732134D01*
X118473821Y-91732134D02*
X118511916Y-91770229D01*
X117635726Y-92227372D02*
X117583345Y-91808324D01*
X117583345Y-91808324D02*
X117607154Y-91732134D01*
X117607154Y-91732134D02*
X117669059Y-91694038D01*
X117669059Y-91694038D02*
X117802392Y-91694038D01*
X117802392Y-91694038D02*
X117873821Y-91732134D01*
X117630964Y-92189277D02*
X117702392Y-92227372D01*
X117702392Y-92227372D02*
X117869059Y-92227372D01*
X117869059Y-92227372D02*
X117930964Y-92189277D01*
X117930964Y-92189277D02*
X117954773Y-92113086D01*
X117954773Y-92113086D02*
X117945250Y-92036896D01*
X117945250Y-92036896D02*
X117902392Y-91960705D01*
X117902392Y-91960705D02*
X117830964Y-91922610D01*
X117830964Y-91922610D02*
X117664297Y-91922610D01*
X117664297Y-91922610D02*
X117592869Y-91884515D01*
X117302393Y-92227372D02*
X117235726Y-91694038D01*
X117254774Y-91846419D02*
X117211917Y-91770229D01*
X117211917Y-91770229D02*
X117173821Y-91732134D01*
X117173821Y-91732134D02*
X117102393Y-91694038D01*
X117102393Y-91694038D02*
X117035726Y-91694038D01*
X116569060Y-92227372D02*
X116469060Y-91427372D01*
X116564298Y-92189277D02*
X116635726Y-92227372D01*
X116635726Y-92227372D02*
X116769060Y-92227372D01*
X116769060Y-92227372D02*
X116830965Y-92189277D01*
X116830965Y-92189277D02*
X116859536Y-92151181D01*
X116859536Y-92151181D02*
X116883345Y-92074991D01*
X116883345Y-92074991D02*
X116854774Y-91846419D01*
X116854774Y-91846419D02*
X116811917Y-91770229D01*
X116811917Y-91770229D02*
X116773822Y-91732134D01*
X116773822Y-91732134D02*
X116702393Y-91694038D01*
X116702393Y-91694038D02*
X116569060Y-91694038D01*
X116569060Y-91694038D02*
X116507155Y-91732134D01*
X116235727Y-91694038D02*
X116169060Y-92227372D01*
X116169060Y-92227372D02*
X115988108Y-91846419D01*
X115988108Y-91846419D02*
X115902393Y-92227372D01*
X115902393Y-92227372D02*
X115702393Y-91694038D01*
X115202394Y-92227372D02*
X115150013Y-91808324D01*
X115150013Y-91808324D02*
X115173822Y-91732134D01*
X115173822Y-91732134D02*
X115235727Y-91694038D01*
X115235727Y-91694038D02*
X115369060Y-91694038D01*
X115369060Y-91694038D02*
X115440489Y-91732134D01*
X115197632Y-92189277D02*
X115269060Y-92227372D01*
X115269060Y-92227372D02*
X115435727Y-92227372D01*
X115435727Y-92227372D02*
X115497632Y-92189277D01*
X115497632Y-92189277D02*
X115521441Y-92113086D01*
X115521441Y-92113086D02*
X115511918Y-92036896D01*
X115511918Y-92036896D02*
X115469060Y-91960705D01*
X115469060Y-91960705D02*
X115397632Y-91922610D01*
X115397632Y-91922610D02*
X115230965Y-91922610D01*
X115230965Y-91922610D02*
X115159537Y-91884515D01*
X114869061Y-92227372D02*
X114802394Y-91694038D01*
X114821442Y-91846419D02*
X114778585Y-91770229D01*
X114778585Y-91770229D02*
X114740489Y-91732134D01*
X114740489Y-91732134D02*
X114669061Y-91694038D01*
X114669061Y-91694038D02*
X114602394Y-91694038D01*
X114164299Y-92189277D02*
X114235728Y-92227372D01*
X114235728Y-92227372D02*
X114369061Y-92227372D01*
X114369061Y-92227372D02*
X114430966Y-92189277D01*
X114430966Y-92189277D02*
X114454775Y-92113086D01*
X114454775Y-92113086D02*
X114416680Y-91808324D01*
X114416680Y-91808324D02*
X114373823Y-91732134D01*
X114373823Y-91732134D02*
X114302394Y-91694038D01*
X114302394Y-91694038D02*
X114169061Y-91694038D01*
X114169061Y-91694038D02*
X114107156Y-91732134D01*
X114107156Y-91732134D02*
X114083347Y-91808324D01*
X114083347Y-91808324D02*
X114092871Y-91884515D01*
X114092871Y-91884515D02*
X114435728Y-91960705D01*
X118283344Y-93096324D02*
X118188106Y-93134419D01*
X118188106Y-93134419D02*
X118159535Y-93172515D01*
X118159535Y-93172515D02*
X118135725Y-93248705D01*
X118135725Y-93248705D02*
X118150011Y-93362991D01*
X118150011Y-93362991D02*
X118192868Y-93439181D01*
X118192868Y-93439181D02*
X118230964Y-93477277D01*
X118230964Y-93477277D02*
X118302392Y-93515372D01*
X118302392Y-93515372D02*
X118569059Y-93515372D01*
X118569059Y-93515372D02*
X118469059Y-92715372D01*
X118469059Y-92715372D02*
X118235725Y-92715372D01*
X118235725Y-92715372D02*
X118173821Y-92753467D01*
X118173821Y-92753467D02*
X118145249Y-92791562D01*
X118145249Y-92791562D02*
X118121440Y-92867753D01*
X118121440Y-92867753D02*
X118130964Y-92943943D01*
X118130964Y-92943943D02*
X118173821Y-93020134D01*
X118173821Y-93020134D02*
X118211916Y-93058229D01*
X118211916Y-93058229D02*
X118283344Y-93096324D01*
X118283344Y-93096324D02*
X118516678Y-93096324D01*
X117869059Y-92982038D02*
X117769059Y-93515372D01*
X117535725Y-92982038D02*
X117769059Y-93515372D01*
X117769059Y-93515372D02*
X117859535Y-93705848D01*
X117859535Y-93705848D02*
X117897630Y-93743943D01*
X117897630Y-93743943D02*
X117969059Y-93782038D01*
X116321440Y-93134419D02*
X116350012Y-93096324D01*
X116350012Y-93096324D02*
X116411917Y-93058229D01*
X116411917Y-93058229D02*
X116478583Y-93058229D01*
X116478583Y-93058229D02*
X116550012Y-93096324D01*
X116550012Y-93096324D02*
X116588107Y-93134419D01*
X116588107Y-93134419D02*
X116630964Y-93210610D01*
X116630964Y-93210610D02*
X116640488Y-93286800D01*
X116640488Y-93286800D02*
X116616678Y-93362991D01*
X116616678Y-93362991D02*
X116588107Y-93401086D01*
X116588107Y-93401086D02*
X116526202Y-93439181D01*
X116526202Y-93439181D02*
X116459536Y-93439181D01*
X116459536Y-93439181D02*
X116388107Y-93401086D01*
X116388107Y-93401086D02*
X116350012Y-93362991D01*
X116311917Y-93058229D02*
X116350012Y-93362991D01*
X116350012Y-93362991D02*
X116321440Y-93401086D01*
X116321440Y-93401086D02*
X116288107Y-93401086D01*
X116288107Y-93401086D02*
X116216678Y-93362991D01*
X116216678Y-93362991D02*
X116173821Y-93286800D01*
X116173821Y-93286800D02*
X116150012Y-93096324D01*
X116150012Y-93096324D02*
X116202393Y-92982038D01*
X116202393Y-92982038D02*
X116292869Y-92905848D01*
X116292869Y-92905848D02*
X116421440Y-92867753D01*
X116421440Y-92867753D02*
X116559536Y-92905848D01*
X116559536Y-92905848D02*
X116669059Y-92982038D01*
X116669059Y-92982038D02*
X116750012Y-93096324D01*
X116750012Y-93096324D02*
X116802393Y-93248705D01*
X116802393Y-93248705D02*
X116788107Y-93401086D01*
X116788107Y-93401086D02*
X116735726Y-93515372D01*
X116735726Y-93515372D02*
X116645250Y-93591562D01*
X116645250Y-93591562D02*
X116516678Y-93629657D01*
X116516678Y-93629657D02*
X116378583Y-93591562D01*
X116378583Y-93591562D02*
X116269059Y-93515372D01*
X115902393Y-92982038D02*
X115835726Y-93515372D01*
X115835726Y-93515372D02*
X115654774Y-93134419D01*
X115654774Y-93134419D02*
X115569059Y-93515372D01*
X115569059Y-93515372D02*
X115369059Y-92982038D01*
X115169060Y-93515372D02*
X115102393Y-92982038D01*
X115069060Y-92715372D02*
X115107155Y-92753467D01*
X115107155Y-92753467D02*
X115078584Y-92791562D01*
X115078584Y-92791562D02*
X115040488Y-92753467D01*
X115040488Y-92753467D02*
X115069060Y-92715372D01*
X115069060Y-92715372D02*
X115078584Y-92791562D01*
X114735727Y-93515372D02*
X114797632Y-93477277D01*
X114797632Y-93477277D02*
X114821441Y-93401086D01*
X114821441Y-93401086D02*
X114735727Y-92715372D01*
X114469060Y-93515372D02*
X114402393Y-92982038D01*
X114369060Y-92715372D02*
X114407155Y-92753467D01*
X114407155Y-92753467D02*
X114378584Y-92791562D01*
X114378584Y-92791562D02*
X114340488Y-92753467D01*
X114340488Y-92753467D02*
X114369060Y-92715372D01*
X114369060Y-92715372D02*
X114378584Y-92791562D01*
X113830965Y-93477277D02*
X113902393Y-93515372D01*
X113902393Y-93515372D02*
X114035727Y-93515372D01*
X114035727Y-93515372D02*
X114097632Y-93477277D01*
X114097632Y-93477277D02*
X114126203Y-93439181D01*
X114126203Y-93439181D02*
X114150012Y-93362991D01*
X114150012Y-93362991D02*
X114121441Y-93134419D01*
X114121441Y-93134419D02*
X114078584Y-93058229D01*
X114078584Y-93058229D02*
X114040489Y-93020134D01*
X114040489Y-93020134D02*
X113969060Y-92982038D01*
X113969060Y-92982038D02*
X113835727Y-92982038D01*
X113835727Y-92982038D02*
X113773822Y-93020134D01*
X113535727Y-92982038D02*
X113469060Y-93515372D01*
X113469060Y-93515372D02*
X113288108Y-93134419D01*
X113288108Y-93134419D02*
X113202393Y-93515372D01*
X113202393Y-93515372D02*
X113002393Y-92982038D01*
X118169059Y-94803372D02*
X118354773Y-94422419D01*
X118569059Y-94803372D02*
X118469059Y-94003372D01*
X118469059Y-94003372D02*
X118202392Y-94003372D01*
X118202392Y-94003372D02*
X118140487Y-94041467D01*
X118140487Y-94041467D02*
X118111916Y-94079562D01*
X118111916Y-94079562D02*
X118088106Y-94155753D01*
X118088106Y-94155753D02*
X118102392Y-94270038D01*
X118102392Y-94270038D02*
X118145249Y-94346229D01*
X118145249Y-94346229D02*
X118183344Y-94384324D01*
X118183344Y-94384324D02*
X118254773Y-94422419D01*
X118254773Y-94422419D02*
X118521440Y-94422419D01*
X117597630Y-94765277D02*
X117669059Y-94803372D01*
X117669059Y-94803372D02*
X117802392Y-94803372D01*
X117802392Y-94803372D02*
X117864297Y-94765277D01*
X117864297Y-94765277D02*
X117888106Y-94689086D01*
X117888106Y-94689086D02*
X117850011Y-94384324D01*
X117850011Y-94384324D02*
X117807154Y-94308134D01*
X117807154Y-94308134D02*
X117735725Y-94270038D01*
X117735725Y-94270038D02*
X117602392Y-94270038D01*
X117602392Y-94270038D02*
X117540487Y-94308134D01*
X117540487Y-94308134D02*
X117516678Y-94384324D01*
X117516678Y-94384324D02*
X117526202Y-94460515D01*
X117526202Y-94460515D02*
X117869059Y-94536705D01*
X117269059Y-94270038D02*
X117169059Y-94803372D01*
X117169059Y-94803372D02*
X116935725Y-94270038D01*
X116726202Y-94727181D02*
X116697631Y-94765277D01*
X116697631Y-94765277D02*
X116735726Y-94803372D01*
X116735726Y-94803372D02*
X116764297Y-94765277D01*
X116764297Y-94765277D02*
X116726202Y-94727181D01*
X116726202Y-94727181D02*
X116735726Y-94803372D01*
X115811917Y-94079562D02*
X115773822Y-94041467D01*
X115773822Y-94041467D02*
X115702393Y-94003372D01*
X115702393Y-94003372D02*
X115535726Y-94003372D01*
X115535726Y-94003372D02*
X115473822Y-94041467D01*
X115473822Y-94041467D02*
X115445250Y-94079562D01*
X115445250Y-94079562D02*
X115421441Y-94155753D01*
X115421441Y-94155753D02*
X115430965Y-94231943D01*
X115430965Y-94231943D02*
X115478584Y-94346229D01*
X115478584Y-94346229D02*
X115935726Y-94803372D01*
X115935726Y-94803372D02*
X115502393Y-94803372D01*
X114969059Y-94003372D02*
X114902393Y-94003372D01*
X114902393Y-94003372D02*
X114840488Y-94041467D01*
X114840488Y-94041467D02*
X114811917Y-94079562D01*
X114811917Y-94079562D02*
X114788107Y-94155753D01*
X114788107Y-94155753D02*
X114773821Y-94308134D01*
X114773821Y-94308134D02*
X114797631Y-94498610D01*
X114797631Y-94498610D02*
X114850012Y-94650991D01*
X114850012Y-94650991D02*
X114892869Y-94727181D01*
X114892869Y-94727181D02*
X114930964Y-94765277D01*
X114930964Y-94765277D02*
X115002393Y-94803372D01*
X115002393Y-94803372D02*
X115069059Y-94803372D01*
X115069059Y-94803372D02*
X115130964Y-94765277D01*
X115130964Y-94765277D02*
X115159536Y-94727181D01*
X115159536Y-94727181D02*
X115183345Y-94650991D01*
X115183345Y-94650991D02*
X115197631Y-94498610D01*
X115197631Y-94498610D02*
X115173821Y-94308134D01*
X115173821Y-94308134D02*
X115121440Y-94155753D01*
X115121440Y-94155753D02*
X115078583Y-94079562D01*
X115078583Y-94079562D02*
X115040488Y-94041467D01*
X115040488Y-94041467D02*
X114969059Y-94003372D01*
X114478583Y-94079562D02*
X114440488Y-94041467D01*
X114440488Y-94041467D02*
X114369059Y-94003372D01*
X114369059Y-94003372D02*
X114202392Y-94003372D01*
X114202392Y-94003372D02*
X114140488Y-94041467D01*
X114140488Y-94041467D02*
X114111916Y-94079562D01*
X114111916Y-94079562D02*
X114088107Y-94155753D01*
X114088107Y-94155753D02*
X114097631Y-94231943D01*
X114097631Y-94231943D02*
X114145250Y-94346229D01*
X114145250Y-94346229D02*
X114602392Y-94803372D01*
X114602392Y-94803372D02*
X114169059Y-94803372D01*
X113502392Y-94270038D02*
X113569059Y-94803372D01*
X113630964Y-93965277D02*
X113869059Y-94536705D01*
X113869059Y-94536705D02*
X113435725Y-94536705D01*
X113192868Y-94727181D02*
X113164297Y-94765277D01*
X113164297Y-94765277D02*
X113202392Y-94803372D01*
X113202392Y-94803372D02*
X113230963Y-94765277D01*
X113230963Y-94765277D02*
X113192868Y-94727181D01*
X113192868Y-94727181D02*
X113202392Y-94803372D01*
X112502392Y-94803372D02*
X112902392Y-94803372D01*
X112702392Y-94803372D02*
X112602392Y-94003372D01*
X112602392Y-94003372D02*
X112683344Y-94117657D01*
X112683344Y-94117657D02*
X112759535Y-94193848D01*
X112759535Y-94193848D02*
X112830964Y-94231943D01*
X111802392Y-94003372D02*
X111935725Y-94003372D01*
X111935725Y-94003372D02*
X112007154Y-94041467D01*
X112007154Y-94041467D02*
X112045249Y-94079562D01*
X112045249Y-94079562D02*
X112126201Y-94193848D01*
X112126201Y-94193848D02*
X112178582Y-94346229D01*
X112178582Y-94346229D02*
X112216677Y-94650991D01*
X112216677Y-94650991D02*
X112192868Y-94727181D01*
X112192868Y-94727181D02*
X112164297Y-94765277D01*
X112164297Y-94765277D02*
X112102392Y-94803372D01*
X112102392Y-94803372D02*
X111969058Y-94803372D01*
X111969058Y-94803372D02*
X111897630Y-94765277D01*
X111897630Y-94765277D02*
X111859535Y-94727181D01*
X111859535Y-94727181D02*
X111816677Y-94650991D01*
X111816677Y-94650991D02*
X111792868Y-94460515D01*
X111792868Y-94460515D02*
X111816677Y-94384324D01*
X111816677Y-94384324D02*
X111845249Y-94346229D01*
X111845249Y-94346229D02*
X111907154Y-94308134D01*
X111907154Y-94308134D02*
X112040487Y-94308134D01*
X112040487Y-94308134D02*
X112111916Y-94346229D01*
X112111916Y-94346229D02*
X112150011Y-94384324D01*
X112150011Y-94384324D02*
X112192868Y-94460515D01*
X93566678Y-111753943D02*
X92880964Y-111753943D01*
X93223821Y-112134896D02*
X93223821Y-111372991D01*
X91080964Y-111753943D02*
X90395250Y-111753943D01*
X90738107Y-112134896D02*
X90738107Y-111372991D01*
X88595250Y-111753943D02*
X87909536Y-111753943D01*
X86623821Y-111134896D02*
X86452393Y-111134896D01*
X86452393Y-111134896D02*
X86366678Y-111182515D01*
X86366678Y-111182515D02*
X86280964Y-111277753D01*
X86280964Y-111277753D02*
X86238107Y-111468229D01*
X86238107Y-111468229D02*
X86238107Y-111801562D01*
X86238107Y-111801562D02*
X86280964Y-111992038D01*
X86280964Y-111992038D02*
X86366678Y-112087277D01*
X86366678Y-112087277D02*
X86452393Y-112134896D01*
X86452393Y-112134896D02*
X86623821Y-112134896D01*
X86623821Y-112134896D02*
X86709536Y-112087277D01*
X86709536Y-112087277D02*
X86795250Y-111992038D01*
X86795250Y-111992038D02*
X86838107Y-111801562D01*
X86838107Y-111801562D02*
X86838107Y-111468229D01*
X86838107Y-111468229D02*
X86795250Y-111277753D01*
X86795250Y-111277753D02*
X86709536Y-111182515D01*
X86709536Y-111182515D02*
X86623821Y-111134896D01*
X85852393Y-111134896D02*
X85852393Y-111944419D01*
X85852393Y-111944419D02*
X85809536Y-112039657D01*
X85809536Y-112039657D02*
X85766679Y-112087277D01*
X85766679Y-112087277D02*
X85680964Y-112134896D01*
X85680964Y-112134896D02*
X85509536Y-112134896D01*
X85509536Y-112134896D02*
X85423821Y-112087277D01*
X85423821Y-112087277D02*
X85380964Y-112039657D01*
X85380964Y-112039657D02*
X85338107Y-111944419D01*
X85338107Y-111944419D02*
X85338107Y-111134896D01*
X85038107Y-111134896D02*
X84523822Y-111134896D01*
X84780964Y-112134896D02*
X84780964Y-111134896D01*
X118283344Y-39232310D02*
X118188106Y-39270405D01*
X118188106Y-39270405D02*
X118159535Y-39308501D01*
X118159535Y-39308501D02*
X118135725Y-39384691D01*
X118135725Y-39384691D02*
X118150011Y-39498977D01*
X118150011Y-39498977D02*
X118192868Y-39575167D01*
X118192868Y-39575167D02*
X118230964Y-39613263D01*
X118230964Y-39613263D02*
X118302392Y-39651358D01*
X118302392Y-39651358D02*
X118569059Y-39651358D01*
X118569059Y-39651358D02*
X118469059Y-38851358D01*
X118469059Y-38851358D02*
X118235725Y-38851358D01*
X118235725Y-38851358D02*
X118173821Y-38889453D01*
X118173821Y-38889453D02*
X118145249Y-38927548D01*
X118145249Y-38927548D02*
X118121440Y-39003739D01*
X118121440Y-39003739D02*
X118130964Y-39079929D01*
X118130964Y-39079929D02*
X118173821Y-39156120D01*
X118173821Y-39156120D02*
X118211916Y-39194215D01*
X118211916Y-39194215D02*
X118283344Y-39232310D01*
X118283344Y-39232310D02*
X118516678Y-39232310D01*
X117897630Y-39613263D02*
X117802392Y-39651358D01*
X117802392Y-39651358D02*
X117635725Y-39651358D01*
X117635725Y-39651358D02*
X117564297Y-39613263D01*
X117564297Y-39613263D02*
X117526202Y-39575167D01*
X117526202Y-39575167D02*
X117483344Y-39498977D01*
X117483344Y-39498977D02*
X117473821Y-39422786D01*
X117473821Y-39422786D02*
X117497630Y-39346596D01*
X117497630Y-39346596D02*
X117526202Y-39308501D01*
X117526202Y-39308501D02*
X117588106Y-39270405D01*
X117588106Y-39270405D02*
X117716678Y-39232310D01*
X117716678Y-39232310D02*
X117778583Y-39194215D01*
X117778583Y-39194215D02*
X117807154Y-39156120D01*
X117807154Y-39156120D02*
X117830964Y-39079929D01*
X117830964Y-39079929D02*
X117821440Y-39003739D01*
X117821440Y-39003739D02*
X117778583Y-38927548D01*
X117778583Y-38927548D02*
X117740487Y-38889453D01*
X117740487Y-38889453D02*
X117669059Y-38851358D01*
X117669059Y-38851358D02*
X117502392Y-38851358D01*
X117502392Y-38851358D02*
X117407154Y-38889453D01*
X117202392Y-39651358D02*
X117102392Y-38851358D01*
X117102392Y-38851358D02*
X116935725Y-38851358D01*
X116935725Y-38851358D02*
X116840487Y-38889453D01*
X116840487Y-38889453D02*
X116783344Y-38965643D01*
X116783344Y-38965643D02*
X116759535Y-39041834D01*
X116759535Y-39041834D02*
X116745249Y-39194215D01*
X116745249Y-39194215D02*
X116759535Y-39308501D01*
X116759535Y-39308501D02*
X116811916Y-39460882D01*
X116811916Y-39460882D02*
X116854773Y-39537072D01*
X116854773Y-39537072D02*
X116930963Y-39613263D01*
X116930963Y-39613263D02*
X117035725Y-39651358D01*
X117035725Y-39651358D02*
X117202392Y-39651358D01*
X116464297Y-39346596D02*
X115930963Y-39346596D01*
X115602391Y-38851358D02*
X115169058Y-38851358D01*
X115169058Y-38851358D02*
X115440487Y-39156120D01*
X115440487Y-39156120D02*
X115340487Y-39156120D01*
X115340487Y-39156120D02*
X115278582Y-39194215D01*
X115278582Y-39194215D02*
X115250010Y-39232310D01*
X115250010Y-39232310D02*
X115226201Y-39308501D01*
X115226201Y-39308501D02*
X115250010Y-39498977D01*
X115250010Y-39498977D02*
X115292868Y-39575167D01*
X115292868Y-39575167D02*
X115330963Y-39613263D01*
X115330963Y-39613263D02*
X115402391Y-39651358D01*
X115402391Y-39651358D02*
X115602391Y-39651358D01*
X115602391Y-39651358D02*
X115664296Y-39613263D01*
X115664296Y-39613263D02*
X115692868Y-39575167D01*
X114930963Y-39346596D02*
X114397629Y-39346596D01*
X113692867Y-39575167D02*
X113730962Y-39613263D01*
X113730962Y-39613263D02*
X113835724Y-39651358D01*
X113835724Y-39651358D02*
X113902391Y-39651358D01*
X113902391Y-39651358D02*
X113997629Y-39613263D01*
X113997629Y-39613263D02*
X114054772Y-39537072D01*
X114054772Y-39537072D02*
X114078581Y-39460882D01*
X114078581Y-39460882D02*
X114092867Y-39308501D01*
X114092867Y-39308501D02*
X114078581Y-39194215D01*
X114078581Y-39194215D02*
X114026200Y-39041834D01*
X114026200Y-39041834D02*
X113983343Y-38965643D01*
X113983343Y-38965643D02*
X113907153Y-38889453D01*
X113907153Y-38889453D02*
X113802391Y-38851358D01*
X113802391Y-38851358D02*
X113735724Y-38851358D01*
X113735724Y-38851358D02*
X113640486Y-38889453D01*
X113640486Y-38889453D02*
X113611915Y-38927548D01*
X113302391Y-39651358D02*
X113364296Y-39613263D01*
X113364296Y-39613263D02*
X113388105Y-39537072D01*
X113388105Y-39537072D02*
X113302391Y-38851358D01*
X112735724Y-39651358D02*
X112683343Y-39232310D01*
X112683343Y-39232310D02*
X112707152Y-39156120D01*
X112707152Y-39156120D02*
X112769057Y-39118024D01*
X112769057Y-39118024D02*
X112902390Y-39118024D01*
X112902390Y-39118024D02*
X112973819Y-39156120D01*
X112730962Y-39613263D02*
X112802390Y-39651358D01*
X112802390Y-39651358D02*
X112969057Y-39651358D01*
X112969057Y-39651358D02*
X113030962Y-39613263D01*
X113030962Y-39613263D02*
X113054771Y-39537072D01*
X113054771Y-39537072D02*
X113045248Y-39460882D01*
X113045248Y-39460882D02*
X113002390Y-39384691D01*
X113002390Y-39384691D02*
X112930962Y-39346596D01*
X112930962Y-39346596D02*
X112764295Y-39346596D01*
X112764295Y-39346596D02*
X112692867Y-39308501D01*
X112035724Y-39118024D02*
X112102391Y-39651358D01*
X112335724Y-39118024D02*
X112388105Y-39537072D01*
X112388105Y-39537072D02*
X112364296Y-39613263D01*
X112364296Y-39613263D02*
X112302391Y-39651358D01*
X112302391Y-39651358D02*
X112202391Y-39651358D01*
X112202391Y-39651358D02*
X112130962Y-39613263D01*
X112130962Y-39613263D02*
X112092867Y-39575167D01*
X111797629Y-39613263D02*
X111735724Y-39651358D01*
X111735724Y-39651358D02*
X111602391Y-39651358D01*
X111602391Y-39651358D02*
X111530963Y-39613263D01*
X111530963Y-39613263D02*
X111488105Y-39537072D01*
X111488105Y-39537072D02*
X111483343Y-39498977D01*
X111483343Y-39498977D02*
X111507153Y-39422786D01*
X111507153Y-39422786D02*
X111569058Y-39384691D01*
X111569058Y-39384691D02*
X111669058Y-39384691D01*
X111669058Y-39384691D02*
X111730963Y-39346596D01*
X111730963Y-39346596D02*
X111754772Y-39270405D01*
X111754772Y-39270405D02*
X111750010Y-39232310D01*
X111750010Y-39232310D02*
X111707153Y-39156120D01*
X111707153Y-39156120D02*
X111635724Y-39118024D01*
X111635724Y-39118024D02*
X111535724Y-39118024D01*
X111535724Y-39118024D02*
X111473820Y-39156120D01*
X110930962Y-39613263D02*
X111002391Y-39651358D01*
X111002391Y-39651358D02*
X111135724Y-39651358D01*
X111135724Y-39651358D02*
X111197629Y-39613263D01*
X111197629Y-39613263D02*
X111221438Y-39537072D01*
X111221438Y-39537072D02*
X111183343Y-39232310D01*
X111183343Y-39232310D02*
X111140486Y-39156120D01*
X111140486Y-39156120D02*
X111069057Y-39118024D01*
X111069057Y-39118024D02*
X110935724Y-39118024D01*
X110935724Y-39118024D02*
X110873819Y-39156120D01*
X110873819Y-39156120D02*
X110850010Y-39232310D01*
X110850010Y-39232310D02*
X110859534Y-39308501D01*
X110859534Y-39308501D02*
X111202391Y-39384691D01*
X118469059Y-40939358D02*
X118530964Y-40901263D01*
X118530964Y-40901263D02*
X118559535Y-40863167D01*
X118559535Y-40863167D02*
X118583344Y-40786977D01*
X118583344Y-40786977D02*
X118554773Y-40558405D01*
X118554773Y-40558405D02*
X118511916Y-40482215D01*
X118511916Y-40482215D02*
X118473821Y-40444120D01*
X118473821Y-40444120D02*
X118402392Y-40406024D01*
X118402392Y-40406024D02*
X118302392Y-40406024D01*
X118302392Y-40406024D02*
X118240487Y-40444120D01*
X118240487Y-40444120D02*
X118211916Y-40482215D01*
X118211916Y-40482215D02*
X118188106Y-40558405D01*
X118188106Y-40558405D02*
X118216678Y-40786977D01*
X118216678Y-40786977D02*
X118259535Y-40863167D01*
X118259535Y-40863167D02*
X118297630Y-40901263D01*
X118297630Y-40901263D02*
X118369059Y-40939358D01*
X118369059Y-40939358D02*
X118469059Y-40939358D01*
X117869059Y-40406024D02*
X117969059Y-41206024D01*
X117873821Y-40444120D02*
X117802392Y-40406024D01*
X117802392Y-40406024D02*
X117669059Y-40406024D01*
X117669059Y-40406024D02*
X117607154Y-40444120D01*
X117607154Y-40444120D02*
X117578583Y-40482215D01*
X117578583Y-40482215D02*
X117554773Y-40558405D01*
X117554773Y-40558405D02*
X117583345Y-40786977D01*
X117583345Y-40786977D02*
X117626202Y-40863167D01*
X117626202Y-40863167D02*
X117664297Y-40901263D01*
X117664297Y-40901263D02*
X117735726Y-40939358D01*
X117735726Y-40939358D02*
X117869059Y-40939358D01*
X117869059Y-40939358D02*
X117930964Y-40901263D01*
X117030964Y-40901263D02*
X117102393Y-40939358D01*
X117102393Y-40939358D02*
X117235726Y-40939358D01*
X117235726Y-40939358D02*
X117297631Y-40901263D01*
X117297631Y-40901263D02*
X117321440Y-40825072D01*
X117321440Y-40825072D02*
X117283345Y-40520310D01*
X117283345Y-40520310D02*
X117240488Y-40444120D01*
X117240488Y-40444120D02*
X117169059Y-40406024D01*
X117169059Y-40406024D02*
X117035726Y-40406024D01*
X117035726Y-40406024D02*
X116973821Y-40444120D01*
X116973821Y-40444120D02*
X116950012Y-40520310D01*
X116950012Y-40520310D02*
X116959536Y-40596501D01*
X116959536Y-40596501D02*
X117302393Y-40672691D01*
X116635726Y-40406024D02*
X116702393Y-40939358D01*
X116645250Y-40482215D02*
X116607155Y-40444120D01*
X116607155Y-40444120D02*
X116535726Y-40406024D01*
X116535726Y-40406024D02*
X116435726Y-40406024D01*
X116435726Y-40406024D02*
X116373821Y-40444120D01*
X116373821Y-40444120D02*
X116350012Y-40520310D01*
X116350012Y-40520310D02*
X116402393Y-40939358D01*
X115564298Y-40901263D02*
X115502393Y-40939358D01*
X115502393Y-40939358D02*
X115369060Y-40939358D01*
X115369060Y-40939358D02*
X115297632Y-40901263D01*
X115297632Y-40901263D02*
X115254774Y-40825072D01*
X115254774Y-40825072D02*
X115250012Y-40786977D01*
X115250012Y-40786977D02*
X115273822Y-40710786D01*
X115273822Y-40710786D02*
X115335727Y-40672691D01*
X115335727Y-40672691D02*
X115435727Y-40672691D01*
X115435727Y-40672691D02*
X115497632Y-40634596D01*
X115497632Y-40634596D02*
X115521441Y-40558405D01*
X115521441Y-40558405D02*
X115516679Y-40520310D01*
X115516679Y-40520310D02*
X115473822Y-40444120D01*
X115473822Y-40444120D02*
X115402393Y-40406024D01*
X115402393Y-40406024D02*
X115302393Y-40406024D01*
X115302393Y-40406024D02*
X115240489Y-40444120D01*
X114869060Y-40939358D02*
X114930965Y-40901263D01*
X114930965Y-40901263D02*
X114959536Y-40863167D01*
X114959536Y-40863167D02*
X114983345Y-40786977D01*
X114983345Y-40786977D02*
X114954774Y-40558405D01*
X114954774Y-40558405D02*
X114911917Y-40482215D01*
X114911917Y-40482215D02*
X114873822Y-40444120D01*
X114873822Y-40444120D02*
X114802393Y-40406024D01*
X114802393Y-40406024D02*
X114702393Y-40406024D01*
X114702393Y-40406024D02*
X114640488Y-40444120D01*
X114640488Y-40444120D02*
X114611917Y-40482215D01*
X114611917Y-40482215D02*
X114588107Y-40558405D01*
X114588107Y-40558405D02*
X114616679Y-40786977D01*
X114616679Y-40786977D02*
X114659536Y-40863167D01*
X114659536Y-40863167D02*
X114697631Y-40901263D01*
X114697631Y-40901263D02*
X114769060Y-40939358D01*
X114769060Y-40939358D02*
X114869060Y-40939358D01*
X113969060Y-40406024D02*
X114035727Y-40939358D01*
X114269060Y-40406024D02*
X114321441Y-40825072D01*
X114321441Y-40825072D02*
X114297632Y-40901263D01*
X114297632Y-40901263D02*
X114235727Y-40939358D01*
X114235727Y-40939358D02*
X114135727Y-40939358D01*
X114135727Y-40939358D02*
X114064298Y-40901263D01*
X114064298Y-40901263D02*
X114026203Y-40863167D01*
X113702394Y-40939358D02*
X113635727Y-40406024D01*
X113654775Y-40558405D02*
X113611918Y-40482215D01*
X113611918Y-40482215D02*
X113573822Y-40444120D01*
X113573822Y-40444120D02*
X113502394Y-40406024D01*
X113502394Y-40406024D02*
X113435727Y-40406024D01*
X112964299Y-40901263D02*
X113035727Y-40939358D01*
X113035727Y-40939358D02*
X113169061Y-40939358D01*
X113169061Y-40939358D02*
X113230966Y-40901263D01*
X113230966Y-40901263D02*
X113259537Y-40863167D01*
X113259537Y-40863167D02*
X113283346Y-40786977D01*
X113283346Y-40786977D02*
X113254775Y-40558405D01*
X113254775Y-40558405D02*
X113211918Y-40482215D01*
X113211918Y-40482215D02*
X113173823Y-40444120D01*
X113173823Y-40444120D02*
X113102394Y-40406024D01*
X113102394Y-40406024D02*
X112969061Y-40406024D01*
X112969061Y-40406024D02*
X112907156Y-40444120D01*
X112397632Y-40901263D02*
X112469061Y-40939358D01*
X112469061Y-40939358D02*
X112602394Y-40939358D01*
X112602394Y-40939358D02*
X112664299Y-40901263D01*
X112664299Y-40901263D02*
X112688108Y-40825072D01*
X112688108Y-40825072D02*
X112650013Y-40520310D01*
X112650013Y-40520310D02*
X112607156Y-40444120D01*
X112607156Y-40444120D02*
X112535727Y-40406024D01*
X112535727Y-40406024D02*
X112402394Y-40406024D01*
X112402394Y-40406024D02*
X112340489Y-40444120D01*
X112340489Y-40444120D02*
X112316680Y-40520310D01*
X112316680Y-40520310D02*
X112326204Y-40596501D01*
X112326204Y-40596501D02*
X112669061Y-40672691D01*
X118569059Y-42227358D02*
X118469059Y-41427358D01*
X118269059Y-42227358D02*
X118216678Y-41808310D01*
X118216678Y-41808310D02*
X118240487Y-41732120D01*
X118240487Y-41732120D02*
X118302392Y-41694024D01*
X118302392Y-41694024D02*
X118402392Y-41694024D01*
X118402392Y-41694024D02*
X118473821Y-41732120D01*
X118473821Y-41732120D02*
X118511916Y-41770215D01*
X117635726Y-42227358D02*
X117583345Y-41808310D01*
X117583345Y-41808310D02*
X117607154Y-41732120D01*
X117607154Y-41732120D02*
X117669059Y-41694024D01*
X117669059Y-41694024D02*
X117802392Y-41694024D01*
X117802392Y-41694024D02*
X117873821Y-41732120D01*
X117630964Y-42189263D02*
X117702392Y-42227358D01*
X117702392Y-42227358D02*
X117869059Y-42227358D01*
X117869059Y-42227358D02*
X117930964Y-42189263D01*
X117930964Y-42189263D02*
X117954773Y-42113072D01*
X117954773Y-42113072D02*
X117945250Y-42036882D01*
X117945250Y-42036882D02*
X117902392Y-41960691D01*
X117902392Y-41960691D02*
X117830964Y-41922596D01*
X117830964Y-41922596D02*
X117664297Y-41922596D01*
X117664297Y-41922596D02*
X117592869Y-41884501D01*
X117302393Y-42227358D02*
X117235726Y-41694024D01*
X117254774Y-41846405D02*
X117211917Y-41770215D01*
X117211917Y-41770215D02*
X117173821Y-41732120D01*
X117173821Y-41732120D02*
X117102393Y-41694024D01*
X117102393Y-41694024D02*
X117035726Y-41694024D01*
X116569060Y-42227358D02*
X116469060Y-41427358D01*
X116564298Y-42189263D02*
X116635726Y-42227358D01*
X116635726Y-42227358D02*
X116769060Y-42227358D01*
X116769060Y-42227358D02*
X116830965Y-42189263D01*
X116830965Y-42189263D02*
X116859536Y-42151167D01*
X116859536Y-42151167D02*
X116883345Y-42074977D01*
X116883345Y-42074977D02*
X116854774Y-41846405D01*
X116854774Y-41846405D02*
X116811917Y-41770215D01*
X116811917Y-41770215D02*
X116773822Y-41732120D01*
X116773822Y-41732120D02*
X116702393Y-41694024D01*
X116702393Y-41694024D02*
X116569060Y-41694024D01*
X116569060Y-41694024D02*
X116507155Y-41732120D01*
X116235727Y-41694024D02*
X116169060Y-42227358D01*
X116169060Y-42227358D02*
X115988108Y-41846405D01*
X115988108Y-41846405D02*
X115902393Y-42227358D01*
X115902393Y-42227358D02*
X115702393Y-41694024D01*
X115202394Y-42227358D02*
X115150013Y-41808310D01*
X115150013Y-41808310D02*
X115173822Y-41732120D01*
X115173822Y-41732120D02*
X115235727Y-41694024D01*
X115235727Y-41694024D02*
X115369060Y-41694024D01*
X115369060Y-41694024D02*
X115440489Y-41732120D01*
X115197632Y-42189263D02*
X115269060Y-42227358D01*
X115269060Y-42227358D02*
X115435727Y-42227358D01*
X115435727Y-42227358D02*
X115497632Y-42189263D01*
X115497632Y-42189263D02*
X115521441Y-42113072D01*
X115521441Y-42113072D02*
X115511918Y-42036882D01*
X115511918Y-42036882D02*
X115469060Y-41960691D01*
X115469060Y-41960691D02*
X115397632Y-41922596D01*
X115397632Y-41922596D02*
X115230965Y-41922596D01*
X115230965Y-41922596D02*
X115159537Y-41884501D01*
X114869061Y-42227358D02*
X114802394Y-41694024D01*
X114821442Y-41846405D02*
X114778585Y-41770215D01*
X114778585Y-41770215D02*
X114740489Y-41732120D01*
X114740489Y-41732120D02*
X114669061Y-41694024D01*
X114669061Y-41694024D02*
X114602394Y-41694024D01*
X114164299Y-42189263D02*
X114235728Y-42227358D01*
X114235728Y-42227358D02*
X114369061Y-42227358D01*
X114369061Y-42227358D02*
X114430966Y-42189263D01*
X114430966Y-42189263D02*
X114454775Y-42113072D01*
X114454775Y-42113072D02*
X114416680Y-41808310D01*
X114416680Y-41808310D02*
X114373823Y-41732120D01*
X114373823Y-41732120D02*
X114302394Y-41694024D01*
X114302394Y-41694024D02*
X114169061Y-41694024D01*
X114169061Y-41694024D02*
X114107156Y-41732120D01*
X114107156Y-41732120D02*
X114083347Y-41808310D01*
X114083347Y-41808310D02*
X114092871Y-41884501D01*
X114092871Y-41884501D02*
X114435728Y-41960691D01*
X118283344Y-43096310D02*
X118188106Y-43134405D01*
X118188106Y-43134405D02*
X118159535Y-43172501D01*
X118159535Y-43172501D02*
X118135725Y-43248691D01*
X118135725Y-43248691D02*
X118150011Y-43362977D01*
X118150011Y-43362977D02*
X118192868Y-43439167D01*
X118192868Y-43439167D02*
X118230964Y-43477263D01*
X118230964Y-43477263D02*
X118302392Y-43515358D01*
X118302392Y-43515358D02*
X118569059Y-43515358D01*
X118569059Y-43515358D02*
X118469059Y-42715358D01*
X118469059Y-42715358D02*
X118235725Y-42715358D01*
X118235725Y-42715358D02*
X118173821Y-42753453D01*
X118173821Y-42753453D02*
X118145249Y-42791548D01*
X118145249Y-42791548D02*
X118121440Y-42867739D01*
X118121440Y-42867739D02*
X118130964Y-42943929D01*
X118130964Y-42943929D02*
X118173821Y-43020120D01*
X118173821Y-43020120D02*
X118211916Y-43058215D01*
X118211916Y-43058215D02*
X118283344Y-43096310D01*
X118283344Y-43096310D02*
X118516678Y-43096310D01*
X117869059Y-42982024D02*
X117769059Y-43515358D01*
X117535725Y-42982024D02*
X117769059Y-43515358D01*
X117769059Y-43515358D02*
X117859535Y-43705834D01*
X117859535Y-43705834D02*
X117897630Y-43743929D01*
X117897630Y-43743929D02*
X117969059Y-43782024D01*
X116321440Y-43134405D02*
X116350012Y-43096310D01*
X116350012Y-43096310D02*
X116411917Y-43058215D01*
X116411917Y-43058215D02*
X116478583Y-43058215D01*
X116478583Y-43058215D02*
X116550012Y-43096310D01*
X116550012Y-43096310D02*
X116588107Y-43134405D01*
X116588107Y-43134405D02*
X116630964Y-43210596D01*
X116630964Y-43210596D02*
X116640488Y-43286786D01*
X116640488Y-43286786D02*
X116616678Y-43362977D01*
X116616678Y-43362977D02*
X116588107Y-43401072D01*
X116588107Y-43401072D02*
X116526202Y-43439167D01*
X116526202Y-43439167D02*
X116459536Y-43439167D01*
X116459536Y-43439167D02*
X116388107Y-43401072D01*
X116388107Y-43401072D02*
X116350012Y-43362977D01*
X116311917Y-43058215D02*
X116350012Y-43362977D01*
X116350012Y-43362977D02*
X116321440Y-43401072D01*
X116321440Y-43401072D02*
X116288107Y-43401072D01*
X116288107Y-43401072D02*
X116216678Y-43362977D01*
X116216678Y-43362977D02*
X116173821Y-43286786D01*
X116173821Y-43286786D02*
X116150012Y-43096310D01*
X116150012Y-43096310D02*
X116202393Y-42982024D01*
X116202393Y-42982024D02*
X116292869Y-42905834D01*
X116292869Y-42905834D02*
X116421440Y-42867739D01*
X116421440Y-42867739D02*
X116559536Y-42905834D01*
X116559536Y-42905834D02*
X116669059Y-42982024D01*
X116669059Y-42982024D02*
X116750012Y-43096310D01*
X116750012Y-43096310D02*
X116802393Y-43248691D01*
X116802393Y-43248691D02*
X116788107Y-43401072D01*
X116788107Y-43401072D02*
X116735726Y-43515358D01*
X116735726Y-43515358D02*
X116645250Y-43591548D01*
X116645250Y-43591548D02*
X116516678Y-43629643D01*
X116516678Y-43629643D02*
X116378583Y-43591548D01*
X116378583Y-43591548D02*
X116269059Y-43515358D01*
X115902393Y-42982024D02*
X115835726Y-43515358D01*
X115835726Y-43515358D02*
X115654774Y-43134405D01*
X115654774Y-43134405D02*
X115569059Y-43515358D01*
X115569059Y-43515358D02*
X115369059Y-42982024D01*
X115169060Y-43515358D02*
X115102393Y-42982024D01*
X115069060Y-42715358D02*
X115107155Y-42753453D01*
X115107155Y-42753453D02*
X115078584Y-42791548D01*
X115078584Y-42791548D02*
X115040488Y-42753453D01*
X115040488Y-42753453D02*
X115069060Y-42715358D01*
X115069060Y-42715358D02*
X115078584Y-42791548D01*
X114735727Y-43515358D02*
X114797632Y-43477263D01*
X114797632Y-43477263D02*
X114821441Y-43401072D01*
X114821441Y-43401072D02*
X114735727Y-42715358D01*
X114469060Y-43515358D02*
X114402393Y-42982024D01*
X114369060Y-42715358D02*
X114407155Y-42753453D01*
X114407155Y-42753453D02*
X114378584Y-42791548D01*
X114378584Y-42791548D02*
X114340488Y-42753453D01*
X114340488Y-42753453D02*
X114369060Y-42715358D01*
X114369060Y-42715358D02*
X114378584Y-42791548D01*
X113830965Y-43477263D02*
X113902393Y-43515358D01*
X113902393Y-43515358D02*
X114035727Y-43515358D01*
X114035727Y-43515358D02*
X114097632Y-43477263D01*
X114097632Y-43477263D02*
X114126203Y-43439167D01*
X114126203Y-43439167D02*
X114150012Y-43362977D01*
X114150012Y-43362977D02*
X114121441Y-43134405D01*
X114121441Y-43134405D02*
X114078584Y-43058215D01*
X114078584Y-43058215D02*
X114040489Y-43020120D01*
X114040489Y-43020120D02*
X113969060Y-42982024D01*
X113969060Y-42982024D02*
X113835727Y-42982024D01*
X113835727Y-42982024D02*
X113773822Y-43020120D01*
X113535727Y-42982024D02*
X113469060Y-43515358D01*
X113469060Y-43515358D02*
X113288108Y-43134405D01*
X113288108Y-43134405D02*
X113202393Y-43515358D01*
X113202393Y-43515358D02*
X113002393Y-42982024D01*
X118169059Y-44803358D02*
X118354773Y-44422405D01*
X118569059Y-44803358D02*
X118469059Y-44003358D01*
X118469059Y-44003358D02*
X118202392Y-44003358D01*
X118202392Y-44003358D02*
X118140487Y-44041453D01*
X118140487Y-44041453D02*
X118111916Y-44079548D01*
X118111916Y-44079548D02*
X118088106Y-44155739D01*
X118088106Y-44155739D02*
X118102392Y-44270024D01*
X118102392Y-44270024D02*
X118145249Y-44346215D01*
X118145249Y-44346215D02*
X118183344Y-44384310D01*
X118183344Y-44384310D02*
X118254773Y-44422405D01*
X118254773Y-44422405D02*
X118521440Y-44422405D01*
X117597630Y-44765263D02*
X117669059Y-44803358D01*
X117669059Y-44803358D02*
X117802392Y-44803358D01*
X117802392Y-44803358D02*
X117864297Y-44765263D01*
X117864297Y-44765263D02*
X117888106Y-44689072D01*
X117888106Y-44689072D02*
X117850011Y-44384310D01*
X117850011Y-44384310D02*
X117807154Y-44308120D01*
X117807154Y-44308120D02*
X117735725Y-44270024D01*
X117735725Y-44270024D02*
X117602392Y-44270024D01*
X117602392Y-44270024D02*
X117540487Y-44308120D01*
X117540487Y-44308120D02*
X117516678Y-44384310D01*
X117516678Y-44384310D02*
X117526202Y-44460501D01*
X117526202Y-44460501D02*
X117869059Y-44536691D01*
X117269059Y-44270024D02*
X117169059Y-44803358D01*
X117169059Y-44803358D02*
X116935725Y-44270024D01*
X116726202Y-44727167D02*
X116697631Y-44765263D01*
X116697631Y-44765263D02*
X116735726Y-44803358D01*
X116735726Y-44803358D02*
X116764297Y-44765263D01*
X116764297Y-44765263D02*
X116726202Y-44727167D01*
X116726202Y-44727167D02*
X116735726Y-44803358D01*
X115811917Y-44079548D02*
X115773822Y-44041453D01*
X115773822Y-44041453D02*
X115702393Y-44003358D01*
X115702393Y-44003358D02*
X115535726Y-44003358D01*
X115535726Y-44003358D02*
X115473822Y-44041453D01*
X115473822Y-44041453D02*
X115445250Y-44079548D01*
X115445250Y-44079548D02*
X115421441Y-44155739D01*
X115421441Y-44155739D02*
X115430965Y-44231929D01*
X115430965Y-44231929D02*
X115478584Y-44346215D01*
X115478584Y-44346215D02*
X115935726Y-44803358D01*
X115935726Y-44803358D02*
X115502393Y-44803358D01*
X114969059Y-44003358D02*
X114902393Y-44003358D01*
X114902393Y-44003358D02*
X114840488Y-44041453D01*
X114840488Y-44041453D02*
X114811917Y-44079548D01*
X114811917Y-44079548D02*
X114788107Y-44155739D01*
X114788107Y-44155739D02*
X114773821Y-44308120D01*
X114773821Y-44308120D02*
X114797631Y-44498596D01*
X114797631Y-44498596D02*
X114850012Y-44650977D01*
X114850012Y-44650977D02*
X114892869Y-44727167D01*
X114892869Y-44727167D02*
X114930964Y-44765263D01*
X114930964Y-44765263D02*
X115002393Y-44803358D01*
X115002393Y-44803358D02*
X115069059Y-44803358D01*
X115069059Y-44803358D02*
X115130964Y-44765263D01*
X115130964Y-44765263D02*
X115159536Y-44727167D01*
X115159536Y-44727167D02*
X115183345Y-44650977D01*
X115183345Y-44650977D02*
X115197631Y-44498596D01*
X115197631Y-44498596D02*
X115173821Y-44308120D01*
X115173821Y-44308120D02*
X115121440Y-44155739D01*
X115121440Y-44155739D02*
X115078583Y-44079548D01*
X115078583Y-44079548D02*
X115040488Y-44041453D01*
X115040488Y-44041453D02*
X114969059Y-44003358D01*
X114478583Y-44079548D02*
X114440488Y-44041453D01*
X114440488Y-44041453D02*
X114369059Y-44003358D01*
X114369059Y-44003358D02*
X114202392Y-44003358D01*
X114202392Y-44003358D02*
X114140488Y-44041453D01*
X114140488Y-44041453D02*
X114111916Y-44079548D01*
X114111916Y-44079548D02*
X114088107Y-44155739D01*
X114088107Y-44155739D02*
X114097631Y-44231929D01*
X114097631Y-44231929D02*
X114145250Y-44346215D01*
X114145250Y-44346215D02*
X114602392Y-44803358D01*
X114602392Y-44803358D02*
X114169059Y-44803358D01*
X113502392Y-44270024D02*
X113569059Y-44803358D01*
X113630964Y-43965263D02*
X113869059Y-44536691D01*
X113869059Y-44536691D02*
X113435725Y-44536691D01*
X113192868Y-44727167D02*
X113164297Y-44765263D01*
X113164297Y-44765263D02*
X113202392Y-44803358D01*
X113202392Y-44803358D02*
X113230963Y-44765263D01*
X113230963Y-44765263D02*
X113192868Y-44727167D01*
X113192868Y-44727167D02*
X113202392Y-44803358D01*
X112502392Y-44803358D02*
X112902392Y-44803358D01*
X112702392Y-44803358D02*
X112602392Y-44003358D01*
X112602392Y-44003358D02*
X112683344Y-44117643D01*
X112683344Y-44117643D02*
X112759535Y-44193834D01*
X112759535Y-44193834D02*
X112830964Y-44231929D01*
X111802392Y-44003358D02*
X111935725Y-44003358D01*
X111935725Y-44003358D02*
X112007154Y-44041453D01*
X112007154Y-44041453D02*
X112045249Y-44079548D01*
X112045249Y-44079548D02*
X112126201Y-44193834D01*
X112126201Y-44193834D02*
X112178582Y-44346215D01*
X112178582Y-44346215D02*
X112216677Y-44650977D01*
X112216677Y-44650977D02*
X112192868Y-44727167D01*
X112192868Y-44727167D02*
X112164297Y-44765263D01*
X112164297Y-44765263D02*
X112102392Y-44803358D01*
X112102392Y-44803358D02*
X111969058Y-44803358D01*
X111969058Y-44803358D02*
X111897630Y-44765263D01*
X111897630Y-44765263D02*
X111859535Y-44727167D01*
X111859535Y-44727167D02*
X111816677Y-44650977D01*
X111816677Y-44650977D02*
X111792868Y-44460501D01*
X111792868Y-44460501D02*
X111816677Y-44384310D01*
X111816677Y-44384310D02*
X111845249Y-44346215D01*
X111845249Y-44346215D02*
X111907154Y-44308120D01*
X111907154Y-44308120D02*
X112040487Y-44308120D01*
X112040487Y-44308120D02*
X112111916Y-44346215D01*
X112111916Y-44346215D02*
X112150011Y-44384310D01*
X112150011Y-44384310D02*
X112192868Y-44460501D01*
X93566678Y-61753929D02*
X92880964Y-61753929D01*
X93223821Y-62134882D02*
X93223821Y-61372977D01*
X91080964Y-61753929D02*
X90395250Y-61753929D01*
X90738107Y-62134882D02*
X90738107Y-61372977D01*
X88595250Y-61753929D02*
X87909536Y-61753929D01*
X86623821Y-61134882D02*
X86452393Y-61134882D01*
X86452393Y-61134882D02*
X86366678Y-61182501D01*
X86366678Y-61182501D02*
X86280964Y-61277739D01*
X86280964Y-61277739D02*
X86238107Y-61468215D01*
X86238107Y-61468215D02*
X86238107Y-61801548D01*
X86238107Y-61801548D02*
X86280964Y-61992024D01*
X86280964Y-61992024D02*
X86366678Y-62087263D01*
X86366678Y-62087263D02*
X86452393Y-62134882D01*
X86452393Y-62134882D02*
X86623821Y-62134882D01*
X86623821Y-62134882D02*
X86709536Y-62087263D01*
X86709536Y-62087263D02*
X86795250Y-61992024D01*
X86795250Y-61992024D02*
X86838107Y-61801548D01*
X86838107Y-61801548D02*
X86838107Y-61468215D01*
X86838107Y-61468215D02*
X86795250Y-61277739D01*
X86795250Y-61277739D02*
X86709536Y-61182501D01*
X86709536Y-61182501D02*
X86623821Y-61134882D01*
X85852393Y-61134882D02*
X85852393Y-61944405D01*
X85852393Y-61944405D02*
X85809536Y-62039643D01*
X85809536Y-62039643D02*
X85766679Y-62087263D01*
X85766679Y-62087263D02*
X85680964Y-62134882D01*
X85680964Y-62134882D02*
X85509536Y-62134882D01*
X85509536Y-62134882D02*
X85423821Y-62087263D01*
X85423821Y-62087263D02*
X85380964Y-62039643D01*
X85380964Y-62039643D02*
X85338107Y-61944405D01*
X85338107Y-61944405D02*
X85338107Y-61134882D01*
X85038107Y-61134882D02*
X84523822Y-61134882D01*
X84780964Y-62134882D02*
X84780964Y-61134882D01*
D11*
%TO.C,R12*%
X124533506Y-33251263D02*
X124058990Y-33251263D01*
X124533506Y-32206263D02*
X124058990Y-32206263D01*
%TO.C,L2*%
X122761248Y-80465899D02*
X122761248Y-79666655D01*
X123881248Y-80465899D02*
X123881248Y-79666655D01*
%TO.C,kibuzzard-63CD1EC5*%
G36*
X111536951Y-27449624D02*
G01*
X111556954Y-27452402D01*
X111556954Y-27914682D01*
X111544730Y-27915794D01*
X111532506Y-27915794D01*
X111454163Y-27898014D01*
X111403046Y-27849119D01*
X111375264Y-27775221D01*
X111369014Y-27730354D01*
X111366930Y-27681320D01*
X111373598Y-27594642D01*
X111396934Y-27520189D01*
X111442495Y-27468516D01*
X111516949Y-27449069D01*
X111536951Y-27449624D01*
G37*
G36*
X110421256Y-27460181D02*
G01*
X110454038Y-27511854D01*
X110469596Y-27587975D01*
X110472513Y-27632981D01*
X110473485Y-27681320D01*
X110472513Y-27729798D01*
X110469596Y-27775221D01*
X110454038Y-27851341D01*
X110421256Y-27902459D01*
X110364583Y-27921350D01*
X110308464Y-27902459D01*
X110275127Y-27850786D01*
X110259569Y-27774665D01*
X110256652Y-27729659D01*
X110255680Y-27681320D01*
X110256652Y-27632842D01*
X110259569Y-27587419D01*
X110275127Y-27511299D01*
X110307909Y-27460181D01*
X110364583Y-27441290D01*
X110421256Y-27460181D01*
G37*
G36*
X111925148Y-28271764D02*
G01*
X111693638Y-28271764D01*
X111546953Y-28271764D01*
X111138013Y-28271764D01*
X110363471Y-28271764D01*
X110116774Y-28271764D01*
X109885263Y-28271764D01*
X109491634Y-27681320D01*
X110116774Y-27681320D01*
X110120802Y-27764768D01*
X110132887Y-27837312D01*
X110153028Y-27898951D01*
X110181226Y-27949687D01*
X110230121Y-28000002D01*
X110290870Y-28030191D01*
X110363471Y-28040254D01*
X110437863Y-28030191D01*
X110499538Y-28000002D01*
X110548494Y-27949687D01*
X110576449Y-27898951D01*
X110596417Y-27837312D01*
X110608398Y-27764768D01*
X110612391Y-27681320D01*
X110608294Y-27597872D01*
X110596000Y-27525328D01*
X110575512Y-27463689D01*
X110546828Y-27412953D01*
X110497439Y-27362638D01*
X110447748Y-27337944D01*
X110701291Y-27337944D01*
X110701291Y-27451291D01*
X110850199Y-27451291D01*
X110850199Y-27912460D01*
X110701291Y-27912460D01*
X110701291Y-28025807D01*
X111138013Y-28025807D01*
X111138013Y-27912460D01*
X110987994Y-27912460D01*
X110987994Y-27681320D01*
X111228024Y-27681320D01*
X111233997Y-27769803D01*
X111251916Y-27844118D01*
X111280392Y-27905098D01*
X111318035Y-27953576D01*
X111364291Y-27990109D01*
X111418603Y-28015251D01*
X111479861Y-28029836D01*
X111546953Y-28034697D01*
X111618628Y-28030808D01*
X111693638Y-28018029D01*
X111693638Y-27346834D01*
X111605849Y-27333499D01*
X111529173Y-27330165D01*
X111464303Y-27335166D01*
X111405268Y-27350167D01*
X111353456Y-27375865D01*
X111310256Y-27412953D01*
X111275669Y-27461570D01*
X111249693Y-27521856D01*
X111233441Y-27594781D01*
X111228024Y-27681320D01*
X110987994Y-27681320D01*
X110987994Y-27451291D01*
X111138013Y-27451291D01*
X111138013Y-27337944D01*
X110701291Y-27337944D01*
X110447748Y-27337944D01*
X110436690Y-27332449D01*
X110364583Y-27322386D01*
X110290252Y-27332449D01*
X110228763Y-27362638D01*
X110180115Y-27412953D01*
X110152403Y-27463689D01*
X110132609Y-27525328D01*
X110120733Y-27597872D01*
X110116774Y-27681320D01*
X109491634Y-27681320D01*
X109885263Y-27090876D01*
X110116774Y-27090876D01*
X111693638Y-27090876D01*
X111925148Y-27090876D01*
X111925148Y-28271764D01*
G37*
D12*
%TO.C,U10*%
X117069948Y-78020077D02*
X117069948Y-78660077D01*
X117069948Y-78020077D02*
X117549948Y-78020077D01*
X117069948Y-79580077D02*
X117069948Y-80220077D01*
X119289948Y-78020077D02*
X119769948Y-78020077D01*
X119289948Y-80220077D02*
X119769948Y-80220077D01*
X119769948Y-78020077D02*
X119769948Y-78660077D01*
X119769948Y-79580077D02*
X119769948Y-80220077D01*
%TO.C,kibuzzard-661FABB5*%
G36*
X117443798Y-76492021D02*
G01*
X117482692Y-76576158D01*
X117446179Y-76666646D01*
X117395776Y-76702364D01*
X117317592Y-76739671D01*
X117247742Y-76659502D01*
X117227104Y-76574571D01*
X117264410Y-76491227D01*
X117354104Y-76463446D01*
X117443798Y-76492021D01*
G37*
G36*
X120644992Y-77144483D02*
G01*
X120599748Y-77149246D01*
X120551329Y-77150833D01*
X120486242Y-77145277D01*
X120429885Y-77124639D01*
X120389404Y-77081777D01*
X120373529Y-77011133D01*
X120418773Y-76908739D01*
X120540217Y-76877783D01*
X120644992Y-76877783D01*
X120644992Y-77144483D01*
G37*
G36*
X120602129Y-76485671D02*
G01*
X120644992Y-76490433D01*
X120644992Y-76715858D01*
X120568792Y-76715858D01*
X120456079Y-76683314D01*
X120417979Y-76593621D01*
X120429092Y-76537264D01*
X120459254Y-76503927D01*
X120503704Y-76488052D01*
X120556092Y-76484083D01*
X120602129Y-76485671D01*
G37*
G36*
X117484279Y-76951602D02*
G01*
X117508092Y-77038121D01*
X117462848Y-77134164D01*
X117355692Y-77166708D01*
X117242185Y-77132577D01*
X117200117Y-77050821D01*
X117212023Y-76995258D01*
X117250123Y-76951602D01*
X117317592Y-76911914D01*
X117416017Y-76869846D01*
X117484279Y-76951602D01*
G37*
G36*
X119009073Y-76484877D02*
G01*
X119057492Y-76488846D01*
X119057492Y-76806346D01*
X118978117Y-76806346D01*
X118895964Y-76797019D01*
X118836829Y-76769039D01*
X118801110Y-76718438D01*
X118789204Y-76641246D01*
X118800912Y-76568022D01*
X118836035Y-76519802D01*
X118890606Y-76493013D01*
X118960654Y-76484083D01*
X119009073Y-76484877D01*
G37*
G36*
X116630601Y-76491822D02*
G01*
X116682592Y-76557902D01*
X116706404Y-76625547D01*
X116720692Y-76711008D01*
X116725454Y-76814283D01*
X116720692Y-76918441D01*
X116706404Y-77004430D01*
X116682592Y-77072252D01*
X116630601Y-77138332D01*
X116560354Y-77160358D01*
X116558767Y-77159867D01*
X116489115Y-77138332D01*
X116437323Y-77072252D01*
X116413951Y-77004430D01*
X116399929Y-76918441D01*
X116395254Y-76814283D01*
X116395973Y-76798408D01*
X116471454Y-76798408D01*
X116496061Y-76872227D01*
X116558767Y-76903183D01*
X116623854Y-76872227D01*
X116647667Y-76798408D01*
X116623854Y-76723796D01*
X116558767Y-76692046D01*
X116496061Y-76723796D01*
X116471454Y-76798408D01*
X116395973Y-76798408D01*
X116399929Y-76711008D01*
X116413951Y-76625547D01*
X116437323Y-76557902D01*
X116489115Y-76491822D01*
X116560354Y-76469796D01*
X116630601Y-76491822D01*
G37*
G36*
X121170983Y-77659362D02*
G01*
X120840254Y-77659362D01*
X120567204Y-77659362D01*
X119374992Y-77659362D01*
X119057492Y-77659362D01*
X117811304Y-77659362D01*
X117358867Y-77659362D01*
X116560354Y-77659362D01*
X116219042Y-77659362D01*
X115888313Y-77659362D01*
X115888313Y-76814283D01*
X116219042Y-76814283D01*
X116224499Y-76936124D01*
X116240870Y-77041296D01*
X116268155Y-77129799D01*
X116306354Y-77201633D01*
X116373382Y-77272189D01*
X116458049Y-77314522D01*
X116560354Y-77328633D01*
X116662660Y-77314522D01*
X116747326Y-77272189D01*
X116814354Y-77201633D01*
X116852553Y-77129799D01*
X116875924Y-77053996D01*
X117015967Y-77053996D01*
X117034223Y-77150833D01*
X117092960Y-77238939D01*
X117198529Y-77303233D01*
X117271157Y-77322283D01*
X117358867Y-77328633D01*
X117430106Y-77324069D01*
X117494598Y-77310377D01*
X117499360Y-77307996D01*
X117811304Y-77307996D01*
X118452654Y-77307996D01*
X118456623Y-77268308D01*
X118455829Y-77234971D01*
X118448487Y-77158771D01*
X118426460Y-77088921D01*
X118393123Y-77024825D01*
X118351848Y-76965889D01*
X118305017Y-76911518D01*
X118255010Y-76861114D01*
X118205004Y-76813688D01*
X118158173Y-76768246D01*
X118083560Y-76682521D01*
X118069707Y-76642833D01*
X118589179Y-76642833D01*
X118600733Y-76749460D01*
X118635393Y-76834392D01*
X118693160Y-76897627D01*
X118772095Y-76941283D01*
X118870255Y-76967477D01*
X118987642Y-76976208D01*
X119057492Y-76976208D01*
X119057492Y-77307996D01*
X119252754Y-77307996D01*
X119374992Y-77307996D01*
X119554379Y-77307996D01*
X119544854Y-76544408D01*
X119665504Y-76960333D01*
X119808379Y-76960333D01*
X119924267Y-76544408D01*
X119916329Y-77307996D01*
X120095717Y-77307996D01*
X120090756Y-77184964D01*
X120085398Y-77057171D01*
X120083356Y-77011133D01*
X120181442Y-77011133D01*
X120188982Y-77092691D01*
X120211604Y-77159564D01*
X120293360Y-77254815D01*
X120349717Y-77285374D01*
X120415598Y-77305614D01*
X120488821Y-77316925D01*
X120567204Y-77320696D01*
X120633482Y-77318910D01*
X120702142Y-77313552D01*
X120771595Y-77304622D01*
X120840254Y-77292121D01*
X120840254Y-76338033D01*
X120718017Y-76321364D01*
X120586254Y-76314221D01*
X120485448Y-76319975D01*
X120405279Y-76337239D01*
X120295742Y-76397564D01*
X120241767Y-76480908D01*
X120227479Y-76572983D01*
X120236012Y-76638864D01*
X120261610Y-76696808D01*
X120352892Y-76782533D01*
X120268953Y-76825396D01*
X120217160Y-76880958D01*
X120190371Y-76944458D01*
X120181442Y-77011133D01*
X120083356Y-77011133D01*
X120079643Y-76927393D01*
X120073492Y-76798408D01*
X120066546Y-76671805D01*
X120058410Y-76549171D01*
X120049084Y-76432886D01*
X120038567Y-76325333D01*
X119876642Y-76325333D01*
X119848860Y-76411058D01*
X119813142Y-76523771D01*
X119775042Y-76646008D01*
X119738529Y-76760308D01*
X119698842Y-76638864D01*
X119659154Y-76518214D01*
X119624229Y-76409471D01*
X119595654Y-76325333D01*
X119433729Y-76325333D01*
X119422815Y-76452333D01*
X119412298Y-76576158D01*
X119402773Y-76697800D01*
X119394835Y-76818252D01*
X119388287Y-76938505D01*
X119382929Y-77059552D01*
X119378564Y-77182385D01*
X119374992Y-77307996D01*
X119252754Y-77307996D01*
X119252754Y-76338033D01*
X119188460Y-76326921D01*
X119116229Y-76319777D01*
X119044792Y-76315808D01*
X118982879Y-76314221D01*
X118867345Y-76322776D01*
X118770507Y-76348440D01*
X118692367Y-76391214D01*
X118635040Y-76453392D01*
X118600645Y-76537264D01*
X118589179Y-76642833D01*
X118069707Y-76642833D01*
X118054192Y-76598383D01*
X118090704Y-76505514D01*
X118182779Y-76472971D01*
X118279617Y-76495196D01*
X118379629Y-76569808D01*
X118476467Y-76433283D01*
X118408006Y-76375339D01*
X118329623Y-76334858D01*
X118246478Y-76311046D01*
X118163729Y-76303108D01*
X118047842Y-76320571D01*
X117949417Y-76372958D01*
X117881154Y-76461064D01*
X117855754Y-76584096D01*
X117874804Y-76681727D01*
X117925604Y-76773008D01*
X117997042Y-76858733D01*
X118078004Y-76938108D01*
X118125629Y-76983352D01*
X118176429Y-77037327D01*
X118216910Y-77093683D01*
X118233579Y-77146071D01*
X117811304Y-77146071D01*
X117811304Y-77307996D01*
X117499360Y-77307996D01*
X117599373Y-77257989D01*
X117666842Y-77173852D01*
X117690654Y-77061933D01*
X117681923Y-76989504D01*
X117655729Y-76921439D01*
X117610882Y-76859329D01*
X117546192Y-76804758D01*
X117604929Y-76755546D01*
X117641442Y-76703158D01*
X117666842Y-76588858D01*
X117650173Y-76489639D01*
X117596992Y-76396771D01*
X117500154Y-76328508D01*
X117432685Y-76308268D01*
X117350929Y-76301521D01*
X117224128Y-76318983D01*
X117126298Y-76371371D01*
X117063790Y-76453127D01*
X117042954Y-76558696D01*
X117051289Y-76626363D01*
X117076292Y-76692839D01*
X117119154Y-76753363D01*
X117181067Y-76803171D01*
X117103875Y-76857939D01*
X117053273Y-76917471D01*
X117025293Y-76982558D01*
X117015967Y-77053996D01*
X116875924Y-77053996D01*
X116879839Y-77041296D01*
X116896210Y-76936124D01*
X116901667Y-76814283D01*
X116896110Y-76693832D01*
X116879442Y-76589652D01*
X116851660Y-76501744D01*
X116812767Y-76430108D01*
X116745210Y-76359553D01*
X116661072Y-76317219D01*
X116560354Y-76303108D01*
X116458049Y-76317131D01*
X116373382Y-76359200D01*
X116306354Y-76429314D01*
X116268155Y-76500702D01*
X116240870Y-76588660D01*
X116224499Y-76693187D01*
X116219042Y-76814283D01*
X115888313Y-76814283D01*
X115888313Y-75970792D01*
X116219042Y-75970792D01*
X120840254Y-75970792D01*
X121170983Y-75970792D01*
X121170983Y-77659362D01*
G37*
D11*
%TO.C,D1*%
X79779648Y-56615063D02*
X79779648Y-52715063D01*
X81779648Y-56615063D02*
X79779648Y-56615063D01*
X81779648Y-56615063D02*
X81779648Y-52715063D01*
%TO.C,D6*%
X87779648Y-107415077D02*
X87779648Y-101715077D01*
X92079648Y-107415077D02*
X87779648Y-107415077D01*
X92079648Y-107415077D02*
X92079648Y-101715077D01*
%TO.C,L2*%
X122761248Y-30465885D02*
X122761248Y-29666641D01*
X123881248Y-30465885D02*
X123881248Y-29666641D01*
%TO.C,C22*%
X87119648Y-78955657D02*
X87119648Y-78674497D01*
X88139648Y-78955657D02*
X88139648Y-78674497D01*
%TO.C,kibuzzard-63CD1E61*%
G36*
X111920147Y-79541778D02*
G01*
X111688637Y-79541778D01*
X111497502Y-79541778D01*
X110971881Y-79541778D01*
X110386252Y-79541778D01*
X110121774Y-79541778D01*
X109890264Y-79541778D01*
X109589980Y-79091351D01*
X110121774Y-79091351D01*
X110137332Y-79179140D01*
X110185116Y-79248593D01*
X110221787Y-79274708D01*
X110267348Y-79294155D01*
X110322077Y-79306239D01*
X110386252Y-79310268D01*
X110440148Y-79306378D01*
X110494599Y-79296933D01*
X110542938Y-79284709D01*
X110577387Y-79272485D01*
X110550717Y-79158026D01*
X110484598Y-79181363D01*
X110440009Y-79190531D01*
X110387363Y-79193586D01*
X110327772Y-79186086D01*
X110289018Y-79163583D01*
X110260681Y-79089129D01*
X110271515Y-79042873D01*
X110304019Y-79013008D01*
X110353192Y-78996756D01*
X110414033Y-78991339D01*
X110456261Y-78991339D01*
X110456261Y-78877991D01*
X110405143Y-78877991D01*
X110362916Y-78873546D01*
X110325133Y-78859100D01*
X110297908Y-78832430D01*
X110287351Y-78790203D01*
X110310131Y-78730751D01*
X110372917Y-78709081D01*
X110450149Y-78721861D01*
X110516268Y-78753531D01*
X110565163Y-78653519D01*
X110485709Y-78612958D01*
X110468636Y-78607958D01*
X110636283Y-78607958D01*
X110651146Y-78678522D01*
X110669065Y-78756865D01*
X110689901Y-78841181D01*
X110713515Y-78929665D01*
X110730739Y-78990413D01*
X110749075Y-79051902D01*
X110768522Y-79114132D01*
X110788771Y-79176053D01*
X110809515Y-79236617D01*
X110830752Y-79295821D01*
X110971881Y-79295821D01*
X110999384Y-79214145D01*
X111028554Y-79122466D01*
X111038041Y-79091351D01*
X111233024Y-79091351D01*
X111248582Y-79179140D01*
X111296366Y-79248593D01*
X111333037Y-79274708D01*
X111378598Y-79294155D01*
X111433327Y-79306239D01*
X111497502Y-79310268D01*
X111551398Y-79306378D01*
X111605849Y-79296933D01*
X111654188Y-79284709D01*
X111688637Y-79272485D01*
X111661967Y-79158026D01*
X111595848Y-79181363D01*
X111551259Y-79190531D01*
X111498613Y-79193586D01*
X111439022Y-79186086D01*
X111400268Y-79163583D01*
X111371931Y-79089129D01*
X111382765Y-79042873D01*
X111415269Y-79013008D01*
X111464442Y-78996756D01*
X111525283Y-78991339D01*
X111567511Y-78991339D01*
X111567511Y-78877991D01*
X111516393Y-78877991D01*
X111474166Y-78873546D01*
X111436383Y-78859100D01*
X111409158Y-78832430D01*
X111398601Y-78790203D01*
X111421381Y-78730751D01*
X111484167Y-78709081D01*
X111561399Y-78721861D01*
X111627518Y-78753531D01*
X111676413Y-78653519D01*
X111596959Y-78612958D01*
X111544313Y-78597540D01*
X111485278Y-78592400D01*
X111431244Y-78596012D01*
X111384710Y-78606846D01*
X111314146Y-78647407D01*
X111273029Y-78709081D01*
X111259694Y-78785758D01*
X111283031Y-78864656D01*
X111345261Y-78922441D01*
X111297894Y-78949945D01*
X111262473Y-78988005D01*
X111240387Y-79035511D01*
X111233024Y-79091351D01*
X111038041Y-79091351D01*
X111048187Y-79058076D01*
X111067078Y-78993808D01*
X111085228Y-78929665D01*
X111102391Y-78866756D01*
X111118319Y-78806192D01*
X111133012Y-78747975D01*
X111151348Y-78670188D01*
X111164127Y-78607958D01*
X111019664Y-78607958D01*
X111011330Y-78665604D01*
X110999662Y-78731862D01*
X110985632Y-78803538D01*
X110970214Y-78877436D01*
X110953545Y-78951890D01*
X110935765Y-79025232D01*
X110917568Y-79094269D01*
X110899649Y-79155804D01*
X110881869Y-79095102D01*
X110864089Y-79026343D01*
X110846865Y-78953001D01*
X110830752Y-78878547D01*
X110815750Y-78804510D01*
X110801859Y-78732418D01*
X110789636Y-78665743D01*
X110779634Y-78607958D01*
X110636283Y-78607958D01*
X110468636Y-78607958D01*
X110433063Y-78597540D01*
X110374028Y-78592400D01*
X110319994Y-78596012D01*
X110273460Y-78606846D01*
X110202896Y-78647407D01*
X110161779Y-78709081D01*
X110148444Y-78785758D01*
X110171781Y-78864656D01*
X110234011Y-78922441D01*
X110186644Y-78949945D01*
X110151223Y-78988005D01*
X110129137Y-79035511D01*
X110121774Y-79091351D01*
X109589980Y-79091351D01*
X109496635Y-78951334D01*
X109890264Y-78360890D01*
X110121774Y-78360890D01*
X111688637Y-78360890D01*
X111920147Y-78360890D01*
X111920147Y-79541778D01*
G37*
%TO.C,R26*%
X83702148Y-53227805D02*
X83702148Y-53702321D01*
X82657148Y-53227805D02*
X82657148Y-53702321D01*
%TO.C,C13*%
X123011248Y-86669357D02*
X123011248Y-86388197D01*
X124031248Y-86669357D02*
X124031248Y-86388197D01*
%TO.C,C16*%
X116429948Y-29084483D02*
X116429948Y-29365643D01*
X115409948Y-29084483D02*
X115409948Y-29365643D01*
%TO.C,U3*%
X98869648Y-83877577D02*
X98869648Y-86077577D01*
X98869648Y-83877577D02*
X98869648Y-81677577D01*
X105639648Y-83877577D02*
X105639648Y-87477577D01*
X105639648Y-83877577D02*
X105639648Y-81677577D01*
%TO.C,U2*%
X96109648Y-109235077D02*
X96379648Y-109235077D01*
X103009648Y-109235077D02*
X102739648Y-109235077D01*
X96109648Y-102815077D02*
X96109648Y-109235077D01*
X103009648Y-102815077D02*
X103009648Y-109235077D01*
X103029648Y-110895077D02*
X102699648Y-110655077D01*
X103029648Y-110415077D01*
X103029648Y-110895077D01*
G36*
X103029648Y-110895077D02*
G01*
X102699648Y-110655077D01*
X103029648Y-110415077D01*
X103029648Y-110895077D01*
G37*
%TO.C,kibuzzard-63CD1EC0*%
G36*
X111949040Y-77001778D02*
G01*
X111717529Y-77001778D01*
X111418603Y-77001778D01*
X110680733Y-77001778D01*
X110247346Y-77001778D01*
X110092882Y-77001778D01*
X109861372Y-77001778D01*
X109697400Y-76755821D01*
X110092882Y-76755821D01*
X110247346Y-76755821D01*
X110282350Y-76671922D01*
X110306381Y-76627472D01*
X110332912Y-76584133D01*
X110361388Y-76542739D01*
X110391253Y-76504123D01*
X110449593Y-76441338D01*
X110449593Y-76755821D01*
X110586277Y-76755821D01*
X110680733Y-76755821D01*
X111113009Y-76755821D01*
X111113009Y-76722484D01*
X111226357Y-76722484D01*
X111304700Y-76755266D01*
X111357901Y-76766517D01*
X111418603Y-76770268D01*
X111507997Y-76759896D01*
X111582080Y-76728781D01*
X111640853Y-76676923D01*
X111674399Y-76625319D01*
X111698360Y-76563853D01*
X111712737Y-76492525D01*
X111717529Y-76411334D01*
X111711695Y-76330491D01*
X111694193Y-76259093D01*
X111666273Y-76197557D01*
X111629185Y-76146301D01*
X111583624Y-76105740D01*
X111530284Y-76076292D01*
X111470415Y-76058373D01*
X111405268Y-76052400D01*
X111339149Y-76058512D01*
X111287476Y-76072403D01*
X111250249Y-76089071D01*
X111227468Y-76102406D01*
X111263028Y-76211309D01*
X111324703Y-76182972D01*
X111407491Y-76171304D01*
X111470276Y-76182972D01*
X111524728Y-76221866D01*
X111563621Y-76294653D01*
X111574873Y-76345770D01*
X111578623Y-76408000D01*
X111574116Y-76480417D01*
X111560596Y-76540609D01*
X111538063Y-76588578D01*
X111484584Y-76635668D01*
X111405268Y-76651364D01*
X111316924Y-76639140D01*
X111260806Y-76614693D01*
X111226357Y-76722484D01*
X111113009Y-76722484D01*
X111113009Y-76067958D01*
X110975214Y-76067958D01*
X110975214Y-76642474D01*
X110680733Y-76642474D01*
X110680733Y-76755821D01*
X110586277Y-76755821D01*
X110586277Y-76067958D01*
X110449593Y-76067958D01*
X110449593Y-76353549D01*
X110398476Y-76284651D01*
X110347914Y-76209086D01*
X110304019Y-76134633D01*
X110270682Y-76067958D01*
X110116218Y-76067958D01*
X110153445Y-76136300D01*
X110176642Y-76175471D01*
X110202896Y-76216310D01*
X110231649Y-76258398D01*
X110262348Y-76301320D01*
X110294713Y-76343826D01*
X110328467Y-76384664D01*
X110293740Y-76420502D01*
X110258458Y-76461340D01*
X110223871Y-76506207D01*
X110191228Y-76554130D01*
X110161085Y-76604136D01*
X110133998Y-76655253D01*
X110110940Y-76706232D01*
X110092882Y-76755821D01*
X109697400Y-76755821D01*
X109467742Y-76411334D01*
X109861372Y-75820890D01*
X110092882Y-75820890D01*
X111717529Y-75820890D01*
X111949040Y-75820890D01*
X111949040Y-77001778D01*
G37*
%TO.C,Q2*%
X100929648Y-94225077D02*
X101579648Y-94225077D01*
X100929648Y-94225077D02*
X100279648Y-94225077D01*
X100929648Y-91105077D02*
X102604648Y-91105077D01*
X100929648Y-91105077D02*
X100279648Y-91105077D01*
%TO.C,J12*%
X95069948Y-84395077D02*
X97769948Y-84395077D01*
X86769948Y-84395077D02*
X92549948Y-84395077D01*
X83849948Y-84395077D02*
X84249948Y-84395077D01*
X83849948Y-84395077D02*
X83849948Y-98215077D01*
X83849948Y-85805077D02*
X82849948Y-85805077D01*
X82949948Y-85805077D02*
X83149948Y-86605077D01*
X82349948Y-86305077D02*
X82349948Y-96305077D01*
X83149948Y-86605077D02*
X83449948Y-88305077D01*
X83449948Y-88305077D02*
X83549948Y-89105077D01*
X83549948Y-89105077D02*
X83649948Y-90405077D01*
X83649948Y-90405077D02*
X83649948Y-92205077D01*
X83649948Y-92205077D02*
X83549948Y-93505077D01*
X83549948Y-93505077D02*
X83349948Y-95005077D01*
X83349948Y-95005077D02*
X83049948Y-96305077D01*
X83049948Y-96305077D02*
X82949948Y-96805077D01*
X83849948Y-96805077D02*
X82849948Y-96805077D01*
X97769948Y-98215077D02*
X97769948Y-84395077D01*
X95069948Y-98215077D02*
X97769948Y-98215077D01*
X86769948Y-98215077D02*
X92549948Y-98215077D01*
X83849948Y-98215077D02*
X84249948Y-98215077D01*
X82849948Y-85805077D02*
G75*
G03*
X82349948Y-86305077I1J-500001D01*
G01*
X82349948Y-96305077D02*
G75*
G03*
X82849948Y-96805077I500000J0D01*
G01*
%TO.C,J11*%
X94639648Y-58185063D02*
X94639648Y-60845063D01*
X84359648Y-58185063D02*
X94639648Y-58185063D01*
X84359648Y-58185063D02*
X84359648Y-60845063D01*
X84359648Y-60845063D02*
X94639648Y-60845063D01*
D13*
%TO.C,LS1*%
X106779648Y-94215077D02*
X107779648Y-94215077D01*
X109779648Y-91135077D02*
X109779648Y-92295077D01*
X104779648Y-90215077D02*
X104779648Y-92295077D01*
X105779648Y-89215077D02*
X104779648Y-90215077D01*
X107779648Y-89215077D02*
X105779648Y-89215077D01*
D11*
%TO.C,Q6*%
X81079648Y-100925077D02*
X81729648Y-100925077D01*
X81079648Y-100925077D02*
X80429648Y-100925077D01*
X81079648Y-97805077D02*
X82754648Y-97805077D01*
X81079648Y-97805077D02*
X80429648Y-97805077D01*
%TO.C,C11*%
X120840668Y-38483763D02*
X121121828Y-38483763D01*
X120840668Y-39503763D02*
X121121828Y-39503763D01*
%TO.C,U2*%
X96109648Y-59235063D02*
X96379648Y-59235063D01*
X103009648Y-59235063D02*
X102739648Y-59235063D01*
X96109648Y-52815063D02*
X96109648Y-59235063D01*
X103009648Y-52815063D02*
X103009648Y-59235063D01*
X103029648Y-60895063D02*
X102699648Y-60655063D01*
X103029648Y-60415063D01*
X103029648Y-60895063D01*
G36*
X103029648Y-60895063D02*
G01*
X102699648Y-60655063D01*
X103029648Y-60415063D01*
X103029648Y-60895063D01*
G37*
%TO.C,C15*%
X89064648Y-113003825D02*
X89064648Y-113526329D01*
X87594648Y-113003825D02*
X87594648Y-113526329D01*
%TO.C,kibuzzard-63CD1E7F*%
G36*
X110410699Y-24909624D02*
G01*
X110430702Y-24912402D01*
X110430702Y-25374682D01*
X110418478Y-25375794D01*
X110406254Y-25375794D01*
X110327911Y-25358014D01*
X110276794Y-25309119D01*
X110249013Y-25235221D01*
X110242762Y-25190354D01*
X110240678Y-25141320D01*
X110247346Y-25054642D01*
X110270682Y-24980189D01*
X110316243Y-24928516D01*
X110390697Y-24909069D01*
X110410699Y-24909624D01*
G37*
G36*
X111940150Y-25731764D02*
G01*
X111708639Y-25731764D01*
X111427493Y-25731764D01*
X110788524Y-25731764D01*
X110420701Y-25731764D01*
X110101772Y-25731764D01*
X109870262Y-25731764D01*
X109476632Y-25141320D01*
X110101772Y-25141320D01*
X110107745Y-25229803D01*
X110125664Y-25304118D01*
X110154140Y-25365098D01*
X110191783Y-25413576D01*
X110238039Y-25450109D01*
X110292351Y-25475251D01*
X110353609Y-25489836D01*
X110420701Y-25494697D01*
X110492376Y-25490808D01*
X110567386Y-25478029D01*
X110567386Y-24806834D01*
X110508860Y-24797944D01*
X110678511Y-24797944D01*
X110678511Y-25485807D01*
X110788524Y-25485807D01*
X110820566Y-25409563D01*
X110854459Y-25333443D01*
X110890204Y-25257446D01*
X110927801Y-25181448D01*
X110967251Y-25105328D01*
X111008552Y-25029084D01*
X111008552Y-25485807D01*
X111131901Y-25485807D01*
X111131901Y-24832392D01*
X111223023Y-24832392D01*
X111258583Y-24941295D01*
X111318591Y-24913514D01*
X111391933Y-24901290D01*
X111474166Y-24919070D01*
X111529173Y-24968521D01*
X111560288Y-25044086D01*
X111567372Y-25090341D01*
X111569733Y-25141320D01*
X111565412Y-25216329D01*
X111552447Y-25276892D01*
X111530839Y-25323009D01*
X111482778Y-25366765D01*
X111416381Y-25381350D01*
X111389711Y-25380239D01*
X111363041Y-25376905D01*
X111363041Y-25125762D01*
X111226357Y-25125762D01*
X111226357Y-25469139D01*
X111302478Y-25489141D01*
X111359568Y-25497476D01*
X111427493Y-25500254D01*
X111488751Y-25494559D01*
X111543619Y-25477473D01*
X111591542Y-25449136D01*
X111631963Y-25409687D01*
X111664467Y-25359125D01*
X111688637Y-25297451D01*
X111703639Y-25224803D01*
X111708639Y-25141320D01*
X111702805Y-25058671D01*
X111685303Y-24986301D01*
X111657800Y-24924487D01*
X111621962Y-24873509D01*
X111578345Y-24833643D01*
X111527506Y-24805167D01*
X111471110Y-24788081D01*
X111410824Y-24782386D01*
X111339149Y-24788498D01*
X111284142Y-24802389D01*
X111245804Y-24819057D01*
X111223023Y-24832392D01*
X111131901Y-24832392D01*
X111131901Y-24797944D01*
X111021887Y-24797944D01*
X110990772Y-24848922D01*
X110959657Y-24904068D01*
X110928959Y-24961159D01*
X110899094Y-25017971D01*
X110870757Y-25073812D01*
X110844643Y-25127985D01*
X110821445Y-25177991D01*
X110801859Y-25221330D01*
X110801859Y-24797944D01*
X110678511Y-24797944D01*
X110508860Y-24797944D01*
X110479597Y-24793499D01*
X110402921Y-24790165D01*
X110338052Y-24795166D01*
X110279016Y-24810167D01*
X110227204Y-24835865D01*
X110184004Y-24872953D01*
X110149417Y-24921570D01*
X110123441Y-24981856D01*
X110107189Y-25054781D01*
X110101772Y-25141320D01*
X109476632Y-25141320D01*
X109870262Y-24550876D01*
X110101772Y-24550876D01*
X111708639Y-24550876D01*
X111940150Y-24550876D01*
X111940150Y-25731764D01*
G37*
%TO.C,Q6*%
X81079648Y-50925063D02*
X81729648Y-50925063D01*
X81079648Y-50925063D02*
X80429648Y-50925063D01*
X81079648Y-47805063D02*
X82754648Y-47805063D01*
X81079648Y-47805063D02*
X80429648Y-47805063D01*
%TO.C,J12*%
X95069948Y-34395063D02*
X97769948Y-34395063D01*
X86769948Y-34395063D02*
X92549948Y-34395063D01*
X83849948Y-34395063D02*
X84249948Y-34395063D01*
X83849948Y-34395063D02*
X83849948Y-48215063D01*
X83849948Y-35805063D02*
X82849948Y-35805063D01*
X82949948Y-35805063D02*
X83149948Y-36605063D01*
X82349948Y-36305063D02*
X82349948Y-46305063D01*
X83149948Y-36605063D02*
X83449948Y-38305063D01*
X83449948Y-38305063D02*
X83549948Y-39105063D01*
X83549948Y-39105063D02*
X83649948Y-40405063D01*
X83649948Y-40405063D02*
X83649948Y-42205063D01*
X83649948Y-42205063D02*
X83549948Y-43505063D01*
X83549948Y-43505063D02*
X83349948Y-45005063D01*
X83349948Y-45005063D02*
X83049948Y-46305063D01*
X83049948Y-46305063D02*
X82949948Y-46805063D01*
X83849948Y-46805063D02*
X82849948Y-46805063D01*
X97769948Y-48215063D02*
X97769948Y-34395063D01*
X95069948Y-48215063D02*
X97769948Y-48215063D01*
X86769948Y-48215063D02*
X92549948Y-48215063D01*
X83849948Y-48215063D02*
X84249948Y-48215063D01*
X82849948Y-35805063D02*
G75*
G03*
X82349948Y-36305063I1J-500001D01*
G01*
X82349948Y-46305063D02*
G75*
G03*
X82849948Y-46805063I500000J0D01*
G01*
%TO.C,kibuzzard-63CD1E61*%
G36*
X111920147Y-29541764D02*
G01*
X111688637Y-29541764D01*
X111497502Y-29541764D01*
X110971881Y-29541764D01*
X110386252Y-29541764D01*
X110121774Y-29541764D01*
X109890264Y-29541764D01*
X109589980Y-29091337D01*
X110121774Y-29091337D01*
X110137332Y-29179126D01*
X110185116Y-29248579D01*
X110221787Y-29274694D01*
X110267348Y-29294141D01*
X110322077Y-29306225D01*
X110386252Y-29310254D01*
X110440148Y-29306364D01*
X110494599Y-29296919D01*
X110542938Y-29284695D01*
X110577387Y-29272471D01*
X110550717Y-29158012D01*
X110484598Y-29181349D01*
X110440009Y-29190517D01*
X110387363Y-29193572D01*
X110327772Y-29186072D01*
X110289018Y-29163569D01*
X110260681Y-29089115D01*
X110271515Y-29042859D01*
X110304019Y-29012994D01*
X110353192Y-28996742D01*
X110414033Y-28991325D01*
X110456261Y-28991325D01*
X110456261Y-28877977D01*
X110405143Y-28877977D01*
X110362916Y-28873532D01*
X110325133Y-28859086D01*
X110297908Y-28832416D01*
X110287351Y-28790189D01*
X110310131Y-28730737D01*
X110372917Y-28709067D01*
X110450149Y-28721847D01*
X110516268Y-28753517D01*
X110565163Y-28653505D01*
X110485709Y-28612944D01*
X110468636Y-28607944D01*
X110636283Y-28607944D01*
X110651146Y-28678508D01*
X110669065Y-28756851D01*
X110689901Y-28841167D01*
X110713515Y-28929651D01*
X110730739Y-28990399D01*
X110749075Y-29051888D01*
X110768522Y-29114118D01*
X110788771Y-29176039D01*
X110809515Y-29236603D01*
X110830752Y-29295807D01*
X110971881Y-29295807D01*
X110999384Y-29214131D01*
X111028554Y-29122452D01*
X111038041Y-29091337D01*
X111233024Y-29091337D01*
X111248582Y-29179126D01*
X111296366Y-29248579D01*
X111333037Y-29274694D01*
X111378598Y-29294141D01*
X111433327Y-29306225D01*
X111497502Y-29310254D01*
X111551398Y-29306364D01*
X111605849Y-29296919D01*
X111654188Y-29284695D01*
X111688637Y-29272471D01*
X111661967Y-29158012D01*
X111595848Y-29181349D01*
X111551259Y-29190517D01*
X111498613Y-29193572D01*
X111439022Y-29186072D01*
X111400268Y-29163569D01*
X111371931Y-29089115D01*
X111382765Y-29042859D01*
X111415269Y-29012994D01*
X111464442Y-28996742D01*
X111525283Y-28991325D01*
X111567511Y-28991325D01*
X111567511Y-28877977D01*
X111516393Y-28877977D01*
X111474166Y-28873532D01*
X111436383Y-28859086D01*
X111409158Y-28832416D01*
X111398601Y-28790189D01*
X111421381Y-28730737D01*
X111484167Y-28709067D01*
X111561399Y-28721847D01*
X111627518Y-28753517D01*
X111676413Y-28653505D01*
X111596959Y-28612944D01*
X111544313Y-28597526D01*
X111485278Y-28592386D01*
X111431244Y-28595998D01*
X111384710Y-28606832D01*
X111314146Y-28647393D01*
X111273029Y-28709067D01*
X111259694Y-28785744D01*
X111283031Y-28864642D01*
X111345261Y-28922427D01*
X111297894Y-28949931D01*
X111262473Y-28987991D01*
X111240387Y-29035497D01*
X111233024Y-29091337D01*
X111038041Y-29091337D01*
X111048187Y-29058062D01*
X111067078Y-28993794D01*
X111085228Y-28929651D01*
X111102391Y-28866742D01*
X111118319Y-28806178D01*
X111133012Y-28747961D01*
X111151348Y-28670174D01*
X111164127Y-28607944D01*
X111019664Y-28607944D01*
X111011330Y-28665590D01*
X110999662Y-28731848D01*
X110985632Y-28803524D01*
X110970214Y-28877422D01*
X110953545Y-28951876D01*
X110935765Y-29025218D01*
X110917568Y-29094255D01*
X110899649Y-29155790D01*
X110881869Y-29095088D01*
X110864089Y-29026329D01*
X110846865Y-28952987D01*
X110830752Y-28878533D01*
X110815750Y-28804496D01*
X110801859Y-28732404D01*
X110789636Y-28665729D01*
X110779634Y-28607944D01*
X110636283Y-28607944D01*
X110468636Y-28607944D01*
X110433063Y-28597526D01*
X110374028Y-28592386D01*
X110319994Y-28595998D01*
X110273460Y-28606832D01*
X110202896Y-28647393D01*
X110161779Y-28709067D01*
X110148444Y-28785744D01*
X110171781Y-28864642D01*
X110234011Y-28922427D01*
X110186644Y-28949931D01*
X110151223Y-28987991D01*
X110129137Y-29035497D01*
X110121774Y-29091337D01*
X109589980Y-29091337D01*
X109496635Y-28951320D01*
X109890264Y-28360876D01*
X110121774Y-28360876D01*
X111688637Y-28360876D01*
X111920147Y-28360876D01*
X111920147Y-29541764D01*
G37*
%TO.C,R14*%
X121442448Y-79062819D02*
X121442448Y-79537335D01*
X120397448Y-79062819D02*
X120397448Y-79537335D01*
D12*
%TO.C,U10*%
X117069948Y-28020063D02*
X117069948Y-28660063D01*
X117069948Y-28020063D02*
X117549948Y-28020063D01*
X117069948Y-29580063D02*
X117069948Y-30220063D01*
X119289948Y-28020063D02*
X119769948Y-28020063D01*
X119289948Y-30220063D02*
X119769948Y-30220063D01*
X119769948Y-28020063D02*
X119769948Y-28660063D01*
X119769948Y-29580063D02*
X119769948Y-30220063D01*
D11*
%TO.C,U6*%
X118526248Y-32688763D02*
X116576248Y-32688763D01*
X118526248Y-32688763D02*
X120476248Y-32688763D01*
X118526248Y-37808763D02*
X115076248Y-37808763D01*
X118526248Y-37808763D02*
X120476248Y-37808763D01*
D13*
%TO.C,LS1*%
X106779648Y-44215063D02*
X107779648Y-44215063D01*
X109779648Y-41135063D02*
X109779648Y-42295063D01*
X104779648Y-40215063D02*
X104779648Y-42295063D01*
X105779648Y-39215063D02*
X104779648Y-40215063D01*
X107779648Y-39215063D02*
X105779648Y-39215063D01*
D11*
%TO.C,U4*%
X93639648Y-80225077D02*
X93639648Y-80050077D01*
X92964648Y-80225077D02*
X93639648Y-80225077D01*
X92964648Y-77505077D02*
X93339648Y-77505077D01*
X91094648Y-80225077D02*
X90419648Y-80225077D01*
X91094648Y-77505077D02*
X90419648Y-77505077D01*
X90419648Y-80225077D02*
X90419648Y-80050077D01*
X90419648Y-77505077D02*
X90419648Y-77680077D01*
X93639648Y-77505077D02*
X93499648Y-77315077D01*
X93779648Y-77315077D01*
X93639648Y-77505077D01*
G36*
X93639648Y-77505077D02*
G01*
X93499648Y-77315077D01*
X93779648Y-77315077D01*
X93639648Y-77505077D01*
G37*
%TO.C,C14*%
X126211248Y-31994343D02*
X126211248Y-31713183D01*
X127231248Y-31994343D02*
X127231248Y-31713183D01*
%TO.C,kibuzzard-66439ACD*%
G36*
X93277183Y-77297456D02*
G01*
X92946454Y-77297456D01*
X91481192Y-77297456D01*
X91050979Y-77297456D01*
X90712842Y-77297456D01*
X90382113Y-77297456D01*
X90382113Y-75963427D01*
X90712842Y-75963427D01*
X90712842Y-76590490D01*
X90716810Y-76672246D01*
X90728717Y-76746065D01*
X90750545Y-76810755D01*
X90784279Y-76865127D01*
X90830317Y-76908585D01*
X90889054Y-76940533D01*
X90962079Y-76960179D01*
X91050979Y-76966727D01*
X91138490Y-76960179D01*
X91190148Y-76946090D01*
X91481192Y-76946090D01*
X91660579Y-76946090D01*
X91651054Y-76182502D01*
X91771704Y-76598427D01*
X91914579Y-76598427D01*
X92030467Y-76182502D01*
X92022529Y-76946090D01*
X92201917Y-76946090D01*
X92196956Y-76823058D01*
X92191598Y-76695265D01*
X92185843Y-76565486D01*
X92179692Y-76436502D01*
X92172746Y-76309899D01*
X92164611Y-76187265D01*
X92155284Y-76070980D01*
X92144767Y-75963427D01*
X92322567Y-75963427D01*
X92322567Y-76125352D01*
X92535292Y-76125352D01*
X92535292Y-76784165D01*
X92322567Y-76784165D01*
X92322567Y-76946090D01*
X92946454Y-76946090D01*
X92946454Y-76784165D01*
X92732142Y-76784165D01*
X92732142Y-76125352D01*
X92946454Y-76125352D01*
X92946454Y-75963427D01*
X92322567Y-75963427D01*
X92144767Y-75963427D01*
X91982842Y-75963427D01*
X91955061Y-76049152D01*
X91919342Y-76161865D01*
X91881242Y-76284102D01*
X91844729Y-76398402D01*
X91805042Y-76276958D01*
X91765354Y-76156308D01*
X91730429Y-76047565D01*
X91701854Y-75963427D01*
X91539929Y-75963427D01*
X91529015Y-76090427D01*
X91518498Y-76214252D01*
X91508973Y-76335894D01*
X91501035Y-76456346D01*
X91494487Y-76576599D01*
X91489129Y-76697646D01*
X91484764Y-76820479D01*
X91481192Y-76946090D01*
X91190148Y-76946090D01*
X91210523Y-76940533D01*
X91312917Y-76865127D01*
X91345460Y-76810755D01*
X91366892Y-76746065D01*
X91378798Y-76672246D01*
X91382767Y-76590490D01*
X91382767Y-75963427D01*
X91185917Y-75963427D01*
X91185917Y-76577790D01*
X91179567Y-76681771D01*
X91158135Y-76749240D01*
X91116067Y-76785752D01*
X91047804Y-76796865D01*
X90979542Y-76785752D01*
X90936679Y-76748446D01*
X90914454Y-76680183D01*
X90908104Y-76576202D01*
X90908104Y-75963427D01*
X90712842Y-75963427D01*
X90382113Y-75963427D01*
X90382113Y-75632698D01*
X90712842Y-75632698D01*
X92946454Y-75632698D01*
X93277183Y-75632698D01*
X93277183Y-77297456D01*
G37*
%TO.C,C23*%
X88769648Y-28955643D02*
X88769648Y-28674483D01*
X89789648Y-28955643D02*
X89789648Y-28674483D01*
%TO.C,kibuzzard-63CD1EC5*%
G36*
X111536951Y-77449638D02*
G01*
X111556954Y-77452416D01*
X111556954Y-77914696D01*
X111544730Y-77915808D01*
X111532506Y-77915808D01*
X111454163Y-77898028D01*
X111403046Y-77849133D01*
X111375264Y-77775235D01*
X111369014Y-77730368D01*
X111366930Y-77681334D01*
X111373598Y-77594656D01*
X111396934Y-77520203D01*
X111442495Y-77468530D01*
X111516949Y-77449083D01*
X111536951Y-77449638D01*
G37*
G36*
X110421256Y-77460195D02*
G01*
X110454038Y-77511868D01*
X110469596Y-77587989D01*
X110472513Y-77632995D01*
X110473485Y-77681334D01*
X110472513Y-77729812D01*
X110469596Y-77775235D01*
X110454038Y-77851355D01*
X110421256Y-77902473D01*
X110364583Y-77921364D01*
X110308464Y-77902473D01*
X110275127Y-77850800D01*
X110259569Y-77774679D01*
X110256652Y-77729673D01*
X110255680Y-77681334D01*
X110256652Y-77632856D01*
X110259569Y-77587433D01*
X110275127Y-77511313D01*
X110307909Y-77460195D01*
X110364583Y-77441304D01*
X110421256Y-77460195D01*
G37*
G36*
X111925148Y-78271778D02*
G01*
X111693638Y-78271778D01*
X111546953Y-78271778D01*
X111138013Y-78271778D01*
X110363471Y-78271778D01*
X110116774Y-78271778D01*
X109885263Y-78271778D01*
X109491634Y-77681334D01*
X110116774Y-77681334D01*
X110120802Y-77764782D01*
X110132887Y-77837326D01*
X110153028Y-77898965D01*
X110181226Y-77949701D01*
X110230121Y-78000016D01*
X110290870Y-78030205D01*
X110363471Y-78040268D01*
X110437863Y-78030205D01*
X110499538Y-78000016D01*
X110548494Y-77949701D01*
X110576449Y-77898965D01*
X110596417Y-77837326D01*
X110608398Y-77764782D01*
X110612391Y-77681334D01*
X110608294Y-77597886D01*
X110596000Y-77525342D01*
X110575512Y-77463703D01*
X110546828Y-77412967D01*
X110497439Y-77362652D01*
X110447748Y-77337958D01*
X110701291Y-77337958D01*
X110701291Y-77451305D01*
X110850199Y-77451305D01*
X110850199Y-77912474D01*
X110701291Y-77912474D01*
X110701291Y-78025821D01*
X111138013Y-78025821D01*
X111138013Y-77912474D01*
X110987994Y-77912474D01*
X110987994Y-77681334D01*
X111228024Y-77681334D01*
X111233997Y-77769817D01*
X111251916Y-77844132D01*
X111280392Y-77905112D01*
X111318035Y-77953590D01*
X111364291Y-77990123D01*
X111418603Y-78015265D01*
X111479861Y-78029850D01*
X111546953Y-78034711D01*
X111618628Y-78030822D01*
X111693638Y-78018043D01*
X111693638Y-77346848D01*
X111605849Y-77333513D01*
X111529173Y-77330179D01*
X111464303Y-77335180D01*
X111405268Y-77350181D01*
X111353456Y-77375879D01*
X111310256Y-77412967D01*
X111275669Y-77461584D01*
X111249693Y-77521870D01*
X111233441Y-77594795D01*
X111228024Y-77681334D01*
X110987994Y-77681334D01*
X110987994Y-77451305D01*
X111138013Y-77451305D01*
X111138013Y-77337958D01*
X110701291Y-77337958D01*
X110447748Y-77337958D01*
X110436690Y-77332463D01*
X110364583Y-77322400D01*
X110290252Y-77332463D01*
X110228763Y-77362652D01*
X110180115Y-77412967D01*
X110152403Y-77463703D01*
X110132609Y-77525342D01*
X110120733Y-77597886D01*
X110116774Y-77681334D01*
X109491634Y-77681334D01*
X109885263Y-77090890D01*
X110116774Y-77090890D01*
X111693638Y-77090890D01*
X111925148Y-77090890D01*
X111925148Y-78271778D01*
G37*
%TO.C,kibuzzard-66439A83*%
G36*
X92537298Y-32374550D02*
G01*
X92565873Y-32378519D01*
X92565873Y-33038919D01*
X92548410Y-33040507D01*
X92530948Y-33040507D01*
X92419029Y-33015107D01*
X92346004Y-32945257D01*
X92306317Y-32839688D01*
X92297387Y-32775593D01*
X92294410Y-32705544D01*
X92303935Y-32581719D01*
X92337273Y-32475357D01*
X92402360Y-32401538D01*
X92508723Y-32373757D01*
X92537298Y-32374550D01*
G37*
G36*
X94102771Y-32617636D02*
G01*
X94150992Y-32663475D01*
X94180162Y-32734318D01*
X94189886Y-32824607D01*
X94180956Y-32915094D01*
X94154167Y-32986532D01*
X94107534Y-33032966D01*
X94039073Y-33048444D01*
X93972200Y-33032966D01*
X93923979Y-32986532D01*
X93894809Y-32915094D01*
X93885085Y-32824607D01*
X93894015Y-32734318D01*
X93920804Y-32663475D01*
X93967437Y-32617636D01*
X94035898Y-32602357D01*
X94102771Y-32617636D01*
G37*
G36*
X97894052Y-33549036D02*
G01*
X97563323Y-33549036D01*
X96861648Y-33549036D01*
X96285386Y-33549036D01*
X95520211Y-33549036D01*
X94889973Y-33549036D01*
X94035898Y-33549036D01*
X93272311Y-33549036D01*
X92551585Y-33549036D01*
X92095973Y-33549036D01*
X91765244Y-33549036D01*
X91765244Y-32705544D01*
X92095973Y-32705544D01*
X92104506Y-32831949D01*
X92130104Y-32938113D01*
X92170784Y-33025227D01*
X92224560Y-33094482D01*
X92290640Y-33146671D01*
X92368229Y-33182588D01*
X92455740Y-33203424D01*
X92551585Y-33210369D01*
X92653979Y-33204813D01*
X92761135Y-33186557D01*
X92761135Y-32929382D01*
X92910360Y-32929382D01*
X92932784Y-33051818D01*
X93000054Y-33142901D01*
X93070169Y-33184793D01*
X93160921Y-33209928D01*
X93272311Y-33218307D01*
X93382245Y-33211758D01*
X93467573Y-33192113D01*
X93577110Y-33143694D01*
X93519960Y-32984944D01*
X93417567Y-33032569D01*
X93351487Y-33049238D01*
X93272311Y-33054794D01*
X93190554Y-33044476D01*
X93138960Y-33015900D01*
X93112767Y-32974625D01*
X93105623Y-32927794D01*
X93123086Y-32873819D01*
X93167535Y-32831750D01*
X93183334Y-32823019D01*
X93685060Y-32823019D01*
X93691410Y-32907752D01*
X93710460Y-32984150D01*
X93741020Y-33051421D01*
X93781898Y-33108769D01*
X93832500Y-33155204D01*
X93892229Y-33189732D01*
X93960293Y-33211163D01*
X94035898Y-33218307D01*
X94111503Y-33211163D01*
X94179567Y-33189732D01*
X94239495Y-33155204D01*
X94290692Y-33108769D01*
X94332165Y-33051421D01*
X94362923Y-32984150D01*
X94381973Y-32907752D01*
X94388323Y-32823019D01*
X94381775Y-32739477D01*
X94362129Y-32663475D01*
X94330776Y-32596404D01*
X94289104Y-32539650D01*
X94237709Y-32494010D01*
X94192852Y-32469007D01*
X94499448Y-32469007D01*
X94534373Y-32649982D01*
X94579617Y-32640457D01*
X94632798Y-32631725D01*
X94685186Y-32626169D01*
X94728048Y-32624582D01*
X94809011Y-32628550D01*
X94889973Y-32643632D01*
X94889973Y-33197669D01*
X95086823Y-33197669D01*
X95086823Y-33178619D01*
X95282086Y-33178619D01*
X95382098Y-33204813D01*
X95445995Y-33212552D01*
X95520211Y-33215132D01*
X95626375Y-33207591D01*
X95716267Y-33184969D01*
X95755955Y-33165919D01*
X96074248Y-33165919D01*
X96187754Y-33204813D01*
X96285386Y-33215132D01*
X96355434Y-33209576D01*
X96396682Y-33197669D01*
X96861648Y-33197669D01*
X97020398Y-33197669D01*
X97020398Y-32742057D01*
X97025954Y-32670619D01*
X97040242Y-32629344D01*
X97060879Y-32610294D01*
X97085486Y-32605532D01*
X97115648Y-32607913D01*
X97144223Y-32616644D01*
X97136286Y-32683319D01*
X97133110Y-32764282D01*
X97133110Y-32913507D01*
X97291861Y-32913507D01*
X97291861Y-32742057D01*
X97306942Y-32635694D01*
X97355361Y-32605532D01*
X97378379Y-32607119D01*
X97404573Y-32611882D01*
X97404573Y-33197669D01*
X97563323Y-33197669D01*
X97563323Y-32480119D01*
X97441086Y-32453132D01*
X97334723Y-32443607D01*
X97260904Y-32453925D01*
X97204548Y-32488057D01*
X97141048Y-32457100D01*
X97064848Y-32443607D01*
X96963248Y-32462657D01*
X96900542Y-32519807D01*
X96869586Y-32615851D01*
X96863632Y-32678755D01*
X96861648Y-32751582D01*
X96861648Y-33197669D01*
X96396682Y-33197669D01*
X96413179Y-33192907D01*
X96495729Y-33128613D01*
X96539386Y-33026219D01*
X96548911Y-32961529D01*
X96552086Y-32888107D01*
X96552086Y-32613469D01*
X96758461Y-32613469D01*
X96758461Y-32451544D01*
X96488586Y-32451544D01*
X96356823Y-32451544D01*
X96356823Y-32913507D01*
X96332217Y-33012726D01*
X96250461Y-33045269D01*
X96185373Y-33038126D01*
X96099648Y-33008757D01*
X96074248Y-33165919D01*
X95755955Y-33165919D01*
X95790681Y-33149251D01*
X95850411Y-33102419D01*
X95895853Y-33045269D01*
X95927404Y-32978594D01*
X95945859Y-32904379D01*
X95952011Y-32824607D01*
X95945661Y-32746025D01*
X95926611Y-32672207D01*
X95894464Y-32605333D01*
X95848823Y-32547588D01*
X95789490Y-32499963D01*
X95716267Y-32463450D01*
X95628359Y-32440233D01*
X95524973Y-32432494D01*
X95404323Y-32442019D01*
X95294785Y-32473769D01*
X95337648Y-32630932D01*
X95408292Y-32611088D01*
X95507511Y-32602357D01*
X95624192Y-32619026D01*
X95699598Y-32665063D01*
X95740873Y-32735707D01*
X95753573Y-32824607D01*
X95739087Y-32916682D01*
X95695629Y-32986532D01*
X95617246Y-33030585D01*
X95497985Y-33045269D01*
X95401942Y-33038919D01*
X95310660Y-33018282D01*
X95282086Y-33178619D01*
X95086823Y-33178619D01*
X95086823Y-32500757D01*
X95008043Y-32474960D01*
X94927279Y-32454719D01*
X94838578Y-32441622D01*
X94735986Y-32437257D01*
X94690742Y-32438844D01*
X94628035Y-32444400D01*
X94560567Y-32453925D01*
X94499448Y-32469007D01*
X94192852Y-32469007D01*
X94177186Y-32460275D01*
X94109320Y-32439440D01*
X94035898Y-32432494D01*
X93961484Y-32439440D01*
X93893817Y-32460275D01*
X93833889Y-32494010D01*
X93782692Y-32539650D01*
X93741218Y-32596404D01*
X93710460Y-32663475D01*
X93691410Y-32739477D01*
X93685060Y-32823019D01*
X93183334Y-32823019D01*
X93227861Y-32798413D01*
X93294536Y-32770632D01*
X93386610Y-32734119D01*
X93473129Y-32681732D01*
X93537423Y-32603151D01*
X93562823Y-32486469D01*
X93540400Y-32363438D01*
X93473129Y-32270569D01*
X93421218Y-32237232D01*
X96364761Y-32237232D01*
X96401273Y-32327719D01*
X96488586Y-32361057D01*
X96575104Y-32327719D01*
X96610823Y-32237232D01*
X96575104Y-32145157D01*
X96488586Y-32111819D01*
X96401273Y-32145157D01*
X96364761Y-32237232D01*
X93421218Y-32237232D01*
X93405837Y-32227354D01*
X93323551Y-32201425D01*
X93226273Y-32192782D01*
X93141540Y-32197941D01*
X93068317Y-32213419D01*
X92954811Y-32259457D01*
X93011960Y-32410269D01*
X93100067Y-32372169D01*
X93211985Y-32356294D01*
X93298416Y-32368818D01*
X93350274Y-32406389D01*
X93367560Y-32469007D01*
X93351686Y-32519013D01*
X93311204Y-32557113D01*
X93255642Y-32586482D01*
X93194523Y-32610294D01*
X93098479Y-32649188D01*
X93006404Y-32706338D01*
X92937348Y-32795238D01*
X92917107Y-32855365D01*
X92910360Y-32929382D01*
X92761135Y-32929382D01*
X92761135Y-32227707D01*
X92635723Y-32208657D01*
X92526186Y-32203894D01*
X92433515Y-32211038D01*
X92349179Y-32232469D01*
X92275162Y-32269180D01*
X92213448Y-32322163D01*
X92164037Y-32391616D01*
X92126929Y-32477738D01*
X92103712Y-32581918D01*
X92095973Y-32705544D01*
X91765244Y-32705544D01*
X91765244Y-31781090D01*
X92095973Y-31781090D01*
X97563323Y-31781090D01*
X97894052Y-31781090D01*
X97894052Y-33549036D01*
G37*
%TO.C,C14*%
X126211248Y-81994357D02*
X126211248Y-81713197D01*
X127231248Y-81994357D02*
X127231248Y-81713197D01*
%TO.C,J4*%
X104654948Y-78235077D02*
X98244948Y-78235077D01*
X104654948Y-76015077D02*
X98244948Y-76015077D01*
%TO.C,kibuzzard-642D97EE*%
G36*
X130029121Y-100605219D02*
G01*
X129814847Y-100500428D01*
X130029121Y-100397201D01*
X130029121Y-100605219D01*
G37*
G36*
X128037614Y-103381177D02*
G01*
X127820126Y-103274815D01*
X128037614Y-103170040D01*
X128037614Y-103381177D01*
G37*
G36*
X130226190Y-102716672D02*
G01*
X130205271Y-102823809D01*
X130142514Y-102919997D01*
X130048085Y-102988033D01*
X129932150Y-103010711D01*
X129815825Y-102988619D01*
X129720223Y-102922343D01*
X129656293Y-102826350D01*
X129634983Y-102715108D01*
X129634983Y-102564960D01*
X130226190Y-102564960D01*
X130226190Y-102716672D01*
G37*
G36*
X130226190Y-109632854D02*
G01*
X130205271Y-109739991D01*
X130142514Y-109836179D01*
X130048085Y-109904215D01*
X129932150Y-109926894D01*
X129815825Y-109904801D01*
X129720223Y-109838525D01*
X129656293Y-109742532D01*
X129634983Y-109631290D01*
X129634983Y-109481142D01*
X130226190Y-109481142D01*
X130226190Y-109632854D01*
G37*
G36*
X130226190Y-104318248D02*
G01*
X130199601Y-104392149D01*
X130119835Y-104416783D01*
X130060402Y-104408180D01*
X130029121Y-104379246D01*
X130016608Y-104291660D01*
X129994712Y-104207201D01*
X129904780Y-104179049D01*
X129814847Y-104207983D01*
X129792951Y-104304172D01*
X129760106Y-104379246D01*
X129703801Y-104383938D01*
X129649059Y-104358131D01*
X129633419Y-104280711D01*
X129633419Y-104061746D01*
X130226190Y-104061746D01*
X130226190Y-104318248D01*
G37*
G36*
X128237639Y-104487665D02*
G01*
X128210651Y-104562674D01*
X128129689Y-104587677D01*
X128069364Y-104578946D01*
X128037614Y-104549577D01*
X128024914Y-104460677D01*
X128002689Y-104374952D01*
X127911408Y-104346377D01*
X127820126Y-104375746D01*
X127797901Y-104473377D01*
X127764564Y-104549577D01*
X127707414Y-104554340D01*
X127651851Y-104528146D01*
X127635976Y-104449565D01*
X127635976Y-104227315D01*
X128237639Y-104227315D01*
X128237639Y-104487665D01*
G37*
G36*
X130059815Y-107141926D02*
G01*
X130159718Y-107209375D01*
X130224821Y-107304586D01*
X130246522Y-107410354D01*
X130225408Y-107515927D01*
X130162064Y-107610551D01*
X130099329Y-107660079D01*
X130023734Y-107689796D01*
X129935278Y-107699701D01*
X129846650Y-107689709D01*
X129770533Y-107659731D01*
X129706929Y-107609769D01*
X129642412Y-107514558D01*
X129620906Y-107408790D01*
X129642608Y-107303217D01*
X129707711Y-107208593D01*
X129807614Y-107141730D01*
X129933714Y-107119443D01*
X130059815Y-107141926D01*
G37*
G36*
X128029059Y-101367257D02*
G01*
X128105523Y-101397684D01*
X128170170Y-101448396D01*
X128236250Y-101545035D01*
X128258276Y-101652390D01*
X128236845Y-101759546D01*
X128172551Y-101855590D01*
X128108875Y-101905861D01*
X128032146Y-101936023D01*
X127942364Y-101946077D01*
X127852405Y-101935935D01*
X127775147Y-101905508D01*
X127710589Y-101854796D01*
X127645104Y-101758157D01*
X127623276Y-101650802D01*
X127645303Y-101543646D01*
X127711383Y-101447602D01*
X127776029Y-101397332D01*
X127852494Y-101367169D01*
X127940776Y-101357115D01*
X128029059Y-101367257D01*
G37*
G36*
X128029059Y-105239170D02*
G01*
X128105523Y-105269597D01*
X128170170Y-105320309D01*
X128236250Y-105416948D01*
X128258276Y-105524302D01*
X128236845Y-105631459D01*
X128172551Y-105727502D01*
X128108875Y-105777773D01*
X128032146Y-105807936D01*
X127942364Y-105817990D01*
X127852405Y-105807848D01*
X127775147Y-105777420D01*
X127710589Y-105726709D01*
X127645104Y-105630070D01*
X127623276Y-105522715D01*
X127645303Y-105415559D01*
X127711383Y-105319515D01*
X127776029Y-105269244D01*
X127852494Y-105239082D01*
X127940776Y-105229027D01*
X128029059Y-105239170D01*
G37*
G36*
X130854086Y-100901604D02*
G01*
X130854086Y-101655565D01*
X130854086Y-102023802D01*
X130854086Y-102711980D01*
X130854086Y-103682009D01*
X130854086Y-104333889D01*
X130854086Y-104503540D01*
X130854086Y-105527477D01*
X130854086Y-105552275D01*
X130854086Y-106267041D01*
X130854086Y-106768902D01*
X130854086Y-107413482D01*
X130854086Y-108213527D01*
X130854086Y-108939985D01*
X130854086Y-109628162D01*
X130854086Y-110203728D01*
X130854086Y-110534458D01*
X130854086Y-111817417D01*
X128929648Y-110534458D01*
X127005210Y-111817417D01*
X127005210Y-110534458D01*
X127005210Y-110203728D01*
X127005210Y-109343507D01*
X129356584Y-109343507D01*
X129358148Y-109632854D01*
X129368363Y-109742826D01*
X129399008Y-109845954D01*
X129450084Y-109942241D01*
X129521590Y-110031684D01*
X129608003Y-110106954D01*
X129703801Y-110160717D01*
X129808982Y-110192976D01*
X129923548Y-110203728D01*
X130038554Y-110193220D01*
X130145055Y-110161695D01*
X130243052Y-110109153D01*
X130332544Y-110035594D01*
X130407130Y-109947079D01*
X130460405Y-109849669D01*
X130492370Y-109743363D01*
X130503025Y-109628162D01*
X130503025Y-109341943D01*
X130493249Y-109264523D01*
X130463924Y-109223076D01*
X130363825Y-109204307D01*
X129494219Y-109204307D01*
X129439478Y-109206653D01*
X129398813Y-109221512D01*
X129367141Y-109262959D01*
X129356584Y-109343507D01*
X127005210Y-109343507D01*
X127005210Y-108937639D01*
X129359712Y-108937639D01*
X129367532Y-109009584D01*
X129386301Y-109050249D01*
X129419145Y-109069800D01*
X129498911Y-109079184D01*
X130366953Y-109079184D01*
X130421695Y-109076838D01*
X130462360Y-109061980D01*
X130494031Y-109020533D01*
X130504589Y-108939985D01*
X130495205Y-108855527D01*
X130465488Y-108816426D01*
X130318121Y-108705813D01*
X130188827Y-108608582D01*
X130077606Y-108524732D01*
X129984459Y-108454264D01*
X129909385Y-108397176D01*
X129852384Y-108353470D01*
X130366953Y-108353470D01*
X130421695Y-108351124D01*
X130462360Y-108336265D01*
X130494031Y-108294818D01*
X130504589Y-108214270D01*
X130504489Y-108213527D01*
X130494031Y-108136068D01*
X130462360Y-108095403D01*
X130420131Y-108080545D01*
X130365389Y-108078199D01*
X129492655Y-108078199D01*
X129405851Y-108093057D01*
X129369096Y-108137632D01*
X129359803Y-108213527D01*
X129359712Y-108214270D01*
X129368314Y-108288562D01*
X129387865Y-108326881D01*
X129428530Y-108362854D01*
X129569684Y-108466776D01*
X129693895Y-108558533D01*
X129801162Y-108638125D01*
X129891485Y-108705553D01*
X129964865Y-108760815D01*
X130021301Y-108803913D01*
X129492655Y-108803913D01*
X129405851Y-108818772D01*
X129369096Y-108863347D01*
X129359712Y-108937639D01*
X127005210Y-108937639D01*
X127005210Y-108215115D01*
X127356576Y-108215115D01*
X127358958Y-108269884D01*
X127374039Y-108311952D01*
X127416108Y-108344099D01*
X127497864Y-108354815D01*
X127585970Y-108340131D01*
X127628039Y-108296077D01*
X127637564Y-108213527D01*
X127637564Y-107726165D01*
X127797901Y-107726165D01*
X127797901Y-108040490D01*
X127800283Y-108095259D01*
X127815364Y-108137327D01*
X127857433Y-108169474D01*
X127939189Y-108180190D01*
X128027295Y-108165109D01*
X128069364Y-108119865D01*
X128078889Y-108037315D01*
X128078889Y-107726165D01*
X128239226Y-107726165D01*
X128239226Y-108215115D01*
X128241608Y-108269884D01*
X128256689Y-108311952D01*
X128298758Y-108344099D01*
X128380514Y-108354815D01*
X128468620Y-108340131D01*
X128510689Y-108296077D01*
X128520214Y-108213527D01*
X128520214Y-107584877D01*
X128505133Y-107496771D01*
X128459889Y-107454702D01*
X128378926Y-107445177D01*
X127496276Y-107445177D01*
X127385945Y-107475340D01*
X127356576Y-107589640D01*
X127356576Y-108215115D01*
X127005210Y-108215115D01*
X127005210Y-107404098D01*
X129344072Y-107404098D01*
X129354531Y-107516025D01*
X129385910Y-107620326D01*
X129438207Y-107717004D01*
X129511424Y-107806056D01*
X129600134Y-107880641D01*
X129698913Y-107933916D01*
X129807760Y-107965881D01*
X129926676Y-107976536D01*
X130046032Y-107966370D01*
X130156199Y-107935871D01*
X130257177Y-107885040D01*
X130348967Y-107813876D01*
X130425263Y-107727854D01*
X130479760Y-107632448D01*
X130512458Y-107527657D01*
X130523357Y-107413482D01*
X130512604Y-107299063D01*
X130480346Y-107193539D01*
X130426582Y-107096911D01*
X130351313Y-107009178D01*
X130261185Y-106936304D01*
X130162846Y-106884250D01*
X130056296Y-106853018D01*
X129941535Y-106842608D01*
X129815825Y-106854338D01*
X129698326Y-106889529D01*
X129594122Y-106944270D01*
X129508296Y-107014652D01*
X129439869Y-107098719D01*
X129387865Y-107194517D01*
X129355020Y-107297743D01*
X129344072Y-107404098D01*
X127005210Y-107404098D01*
X127005210Y-107170540D01*
X127347051Y-107170540D01*
X127374039Y-107264202D01*
X127422458Y-107334449D01*
X127475639Y-107357865D01*
X127551839Y-107334052D01*
X128440839Y-106895902D01*
X128497195Y-106842721D01*
X128518626Y-106768902D01*
X128518626Y-106753027D01*
X128497195Y-106677621D01*
X128440839Y-106624440D01*
X128415420Y-106611912D01*
X129340943Y-106611912D01*
X129380044Y-106703408D01*
X129432440Y-106760887D01*
X129453705Y-106768902D01*
X129483271Y-106780046D01*
X129508951Y-106768902D01*
X129566165Y-106744073D01*
X130071350Y-106406241D01*
X130370081Y-106406241D01*
X130424041Y-106403895D01*
X130465488Y-106389036D01*
X130498333Y-106346807D01*
X130507717Y-106267041D01*
X130498333Y-106187275D01*
X130464706Y-106145046D01*
X130422477Y-106130188D01*
X130366953Y-106127842D01*
X130071350Y-106127842D01*
X129566165Y-105790009D01*
X129483271Y-105754036D01*
X129434199Y-105771241D01*
X129387083Y-105822854D01*
X129340943Y-105921389D01*
X129353456Y-105968310D01*
X129417581Y-106024615D01*
X129805463Y-106267041D01*
X129417581Y-106509467D01*
X129355802Y-106561081D01*
X129340943Y-106611912D01*
X128415420Y-106611912D01*
X127551839Y-106186290D01*
X127475639Y-106162477D01*
X127422458Y-106185893D01*
X127374039Y-106256140D01*
X127347051Y-106336309D01*
X127353401Y-106378377D01*
X127375626Y-106405365D01*
X127417695Y-106431559D01*
X127462145Y-106452791D01*
X127549458Y-106492677D01*
X127661575Y-106543676D01*
X127780439Y-106598246D01*
X127899303Y-106653015D01*
X128011420Y-106704609D01*
X128096153Y-106743701D01*
X128132864Y-106760965D01*
X127437539Y-107078465D01*
X127389914Y-107100690D01*
X127347051Y-107170540D01*
X127005210Y-107170540D01*
X127005210Y-105517952D01*
X127342289Y-105517952D01*
X127352905Y-105631558D01*
X127384754Y-105737424D01*
X127437836Y-105835552D01*
X127512151Y-105925940D01*
X127602192Y-106001644D01*
X127702453Y-106055718D01*
X127812933Y-106088163D01*
X127933633Y-106098977D01*
X128054779Y-106088659D01*
X128166598Y-106057702D01*
X128269091Y-106006109D01*
X128362258Y-105933877D01*
X128439698Y-105846565D01*
X128495012Y-105749727D01*
X128528201Y-105643365D01*
X128539264Y-105527477D01*
X129358148Y-105527477D01*
X129358148Y-105553839D01*
X129360494Y-105607799D01*
X129375352Y-105649246D01*
X129416799Y-105680918D01*
X129497347Y-105691475D01*
X129584152Y-105677007D01*
X129625599Y-105633605D01*
X129634983Y-105552275D01*
X129634983Y-105527477D01*
X129634983Y-105072115D01*
X129792951Y-105072115D01*
X129792951Y-105381795D01*
X129795297Y-105435754D01*
X129810155Y-105477201D01*
X129851602Y-105508873D01*
X129932150Y-105519430D01*
X130018955Y-105504572D01*
X130060402Y-105459997D01*
X130069786Y-105378667D01*
X130069786Y-105072115D01*
X130227754Y-105072115D01*
X130227754Y-105527477D01*
X130227754Y-105553839D01*
X130230100Y-105607799D01*
X130244958Y-105649246D01*
X130286405Y-105680918D01*
X130366953Y-105691475D01*
X130453757Y-105677007D01*
X130495205Y-105633605D01*
X130504589Y-105552275D01*
X130504589Y-105527477D01*
X130504589Y-104932916D01*
X130489730Y-104846111D01*
X130445155Y-104804664D01*
X130365389Y-104795280D01*
X129495783Y-104795280D01*
X129387083Y-104824997D01*
X129358148Y-104937608D01*
X129358148Y-105527477D01*
X128539264Y-105527477D01*
X128528350Y-105411342D01*
X128495608Y-105304235D01*
X128441037Y-105206158D01*
X128364639Y-105117109D01*
X128273159Y-105043141D01*
X128173345Y-104990307D01*
X128065197Y-104958607D01*
X127948714Y-104948040D01*
X127821118Y-104959946D01*
X127701858Y-104995665D01*
X127596090Y-105051227D01*
X127508976Y-105122665D01*
X127439523Y-105207993D01*
X127386739Y-105305227D01*
X127353401Y-105410002D01*
X127342289Y-105517952D01*
X127005210Y-105517952D01*
X127005210Y-104487665D01*
X127354989Y-104487665D01*
X127366278Y-104579740D01*
X127400144Y-104661232D01*
X127456589Y-104732140D01*
X127529967Y-104789466D01*
X127612517Y-104823862D01*
X127704239Y-104835327D01*
X127804648Y-104820246D01*
X127896326Y-104775002D01*
X127973408Y-104827037D01*
X128056487Y-104858258D01*
X128145564Y-104868665D01*
X128245664Y-104855171D01*
X128334300Y-104818923D01*
X128411470Y-104759921D01*
X128471001Y-104684515D01*
X128506720Y-104599055D01*
X128518626Y-104503540D01*
X128518626Y-104318248D01*
X129356584Y-104318248D01*
X129367706Y-104408962D01*
X129401072Y-104489250D01*
X129412447Y-104503540D01*
X129456682Y-104559110D01*
X129528976Y-104615589D01*
X129610306Y-104649477D01*
X129700673Y-104660773D01*
X129799598Y-104645914D01*
X129889921Y-104601339D01*
X129965864Y-104652605D01*
X130047715Y-104683364D01*
X130135475Y-104693618D01*
X130234097Y-104680323D01*
X130321422Y-104644611D01*
X130397452Y-104586481D01*
X130456104Y-104512189D01*
X130459719Y-104503540D01*
X130491294Y-104427992D01*
X130503025Y-104333889D01*
X130503025Y-103922546D01*
X130488166Y-103835742D01*
X130443591Y-103794295D01*
X130362261Y-103784911D01*
X129494219Y-103784911D01*
X129439478Y-103787257D01*
X129398813Y-103802115D01*
X129367141Y-103843562D01*
X129356584Y-103924110D01*
X129356584Y-104318248D01*
X128518626Y-104318248D01*
X128518626Y-104086027D01*
X128503545Y-103997921D01*
X128458301Y-103955852D01*
X128375751Y-103946327D01*
X127494689Y-103946327D01*
X127439126Y-103948709D01*
X127397851Y-103963790D01*
X127365704Y-104005859D01*
X127354989Y-104087615D01*
X127354989Y-104487665D01*
X127005210Y-104487665D01*
X127005210Y-103276402D01*
X127356576Y-103276402D01*
X127377214Y-103351015D01*
X127439126Y-103403402D01*
X128324951Y-103832027D01*
X128405914Y-103859015D01*
X128460286Y-103835996D01*
X128509101Y-103766940D01*
X128536089Y-103682009D01*
X128521801Y-103631209D01*
X128491639Y-103602634D01*
X128444014Y-103578027D01*
X128272564Y-103495477D01*
X128272564Y-103055740D01*
X128444014Y-102973190D01*
X128490051Y-102948584D01*
X128519420Y-102920009D01*
X128534501Y-102869209D01*
X128507514Y-102784277D01*
X128459889Y-102715221D01*
X128405914Y-102692202D01*
X128324951Y-102719190D01*
X127437539Y-103147815D01*
X127378801Y-103200996D01*
X127356576Y-103276402D01*
X127005210Y-103276402D01*
X127005210Y-102427325D01*
X129356584Y-102427325D01*
X129358148Y-102716672D01*
X129368363Y-102826643D01*
X129399008Y-102929772D01*
X129450084Y-103026058D01*
X129521590Y-103115502D01*
X129608003Y-103190771D01*
X129703801Y-103244535D01*
X129808982Y-103276793D01*
X129923548Y-103287546D01*
X130038554Y-103277038D01*
X130145055Y-103245513D01*
X130243052Y-103192971D01*
X130332544Y-103119412D01*
X130407130Y-103030897D01*
X130460405Y-102933487D01*
X130492370Y-102827181D01*
X130503025Y-102711980D01*
X130503025Y-102425760D01*
X130493249Y-102348341D01*
X130463924Y-102306894D01*
X130363825Y-102288125D01*
X129494219Y-102288125D01*
X129439478Y-102290471D01*
X129398813Y-102305329D01*
X129367141Y-102346777D01*
X129356584Y-102427325D01*
X127005210Y-102427325D01*
X127005210Y-101646040D01*
X127342289Y-101646040D01*
X127352905Y-101759645D01*
X127384754Y-101865512D01*
X127437836Y-101963639D01*
X127512151Y-102054027D01*
X127602192Y-102129731D01*
X127702453Y-102183806D01*
X127812933Y-102216250D01*
X127933633Y-102227065D01*
X128054779Y-102216746D01*
X128166598Y-102185790D01*
X128269091Y-102134196D01*
X128362258Y-102061965D01*
X128439698Y-101974652D01*
X128495012Y-101877815D01*
X128528201Y-101771452D01*
X128539264Y-101655565D01*
X128528350Y-101539429D01*
X128495608Y-101432323D01*
X128441037Y-101334245D01*
X128410017Y-101298088D01*
X129359712Y-101298088D01*
X129368314Y-101372380D01*
X129387865Y-101410699D01*
X129428530Y-101446672D01*
X129569684Y-101550594D01*
X129693895Y-101642351D01*
X129711704Y-101655565D01*
X129801162Y-101721943D01*
X129891485Y-101789370D01*
X129964865Y-101844633D01*
X130021301Y-101887731D01*
X129492655Y-101887731D01*
X129405851Y-101902589D01*
X129369096Y-101947164D01*
X129359712Y-102021456D01*
X129367532Y-102093402D01*
X129386301Y-102134067D01*
X129419145Y-102153618D01*
X129498911Y-102163002D01*
X130366953Y-102163002D01*
X130421695Y-102160656D01*
X130462360Y-102145797D01*
X130494031Y-102104350D01*
X130504589Y-102023802D01*
X130495205Y-101939344D01*
X130465488Y-101900243D01*
X130318121Y-101789631D01*
X130188827Y-101692400D01*
X130139968Y-101655565D01*
X130077606Y-101608550D01*
X129984459Y-101538081D01*
X129909385Y-101480994D01*
X129852384Y-101437288D01*
X130366953Y-101437288D01*
X130421695Y-101434942D01*
X130462360Y-101420083D01*
X130494031Y-101378636D01*
X130504589Y-101298088D01*
X130494031Y-101219886D01*
X130462360Y-101179221D01*
X130420131Y-101164363D01*
X130365389Y-101162017D01*
X129492655Y-101162017D01*
X129405851Y-101176875D01*
X129369096Y-101221450D01*
X129359712Y-101298088D01*
X128410017Y-101298088D01*
X128364639Y-101245196D01*
X128273159Y-101171229D01*
X128173345Y-101118395D01*
X128065197Y-101086694D01*
X127948714Y-101076127D01*
X127821118Y-101088034D01*
X127701858Y-101123752D01*
X127596090Y-101179315D01*
X127508976Y-101250752D01*
X127439523Y-101336081D01*
X127386739Y-101433315D01*
X127353401Y-101538090D01*
X127342289Y-101646040D01*
X127005210Y-101646040D01*
X127005210Y-100539552D01*
X127335939Y-100539552D01*
X127349697Y-100662143D01*
X127390972Y-100780147D01*
X127459764Y-100893565D01*
X127530408Y-100936427D01*
X127620101Y-100899915D01*
X127683204Y-100840781D01*
X127704239Y-100787202D01*
X127660583Y-100690365D01*
X127627840Y-100617340D01*
X127616926Y-100531615D01*
X127638159Y-100417712D01*
X127701858Y-100317302D01*
X127799886Y-100247056D01*
X127924108Y-100223640D01*
X128011067Y-100234223D01*
X128088855Y-100265973D01*
X128157470Y-100318890D01*
X128229503Y-100420490D01*
X128253514Y-100534790D01*
X128246370Y-100617737D01*
X128224939Y-100691952D01*
X128051901Y-100691952D01*
X128051901Y-100566540D01*
X128039201Y-100496690D01*
X128001895Y-100469702D01*
X127935220Y-100463352D01*
X127867751Y-100470496D01*
X127832826Y-100496690D01*
X127818539Y-100572890D01*
X127818539Y-100852290D01*
X127862989Y-100957065D01*
X127951889Y-100972940D01*
X128301139Y-100972940D01*
X128397976Y-100928490D01*
X128458400Y-100853481D01*
X128501561Y-100761802D01*
X128527457Y-100653456D01*
X128536089Y-100528440D01*
X128533508Y-100501992D01*
X129358148Y-100501992D01*
X129365463Y-100528440D01*
X129378480Y-100575502D01*
X129439478Y-100627115D01*
X130312212Y-101049406D01*
X130391978Y-101075994D01*
X130445546Y-101053316D01*
X130493640Y-100985280D01*
X130520229Y-100901604D01*
X130506153Y-100851555D01*
X130476436Y-100823402D01*
X130429515Y-100799160D01*
X130260599Y-100717829D01*
X130260599Y-100528440D01*
X130260599Y-100284591D01*
X130429515Y-100203260D01*
X130474872Y-100179018D01*
X130503807Y-100150865D01*
X130518665Y-100100816D01*
X130492076Y-100017140D01*
X130445155Y-99949104D01*
X130391978Y-99926426D01*
X130312212Y-99953014D01*
X129437914Y-100375305D01*
X129380044Y-100427700D01*
X129358148Y-100501992D01*
X128533508Y-100501992D01*
X128524927Y-100414041D01*
X128491440Y-100307381D01*
X128435630Y-100208459D01*
X128357495Y-100117277D01*
X128263584Y-100040879D01*
X128160447Y-99986309D01*
X128048081Y-99953566D01*
X127926489Y-99942652D01*
X127805491Y-99953765D01*
X127694912Y-99987102D01*
X127594751Y-100042665D01*
X127505008Y-100120452D01*
X127431040Y-100213321D01*
X127378206Y-100314127D01*
X127346506Y-100422871D01*
X127335939Y-100539552D01*
X127005210Y-100539552D01*
X127005210Y-99926426D01*
X127005210Y-99595696D01*
X128929648Y-98312737D01*
X130854086Y-99595696D01*
X130854086Y-99926426D01*
X130854086Y-100528440D01*
X130854086Y-100901604D01*
G37*
%TO.C,C13*%
X123011248Y-36669343D02*
X123011248Y-36388183D01*
X124031248Y-36669343D02*
X124031248Y-36388183D01*
%TO.C,kibuzzard-66439ACD*%
G36*
X93277183Y-27297442D02*
G01*
X92946454Y-27297442D01*
X91481192Y-27297442D01*
X91050979Y-27297442D01*
X90712842Y-27297442D01*
X90382113Y-27297442D01*
X90382113Y-25963413D01*
X90712842Y-25963413D01*
X90712842Y-26590476D01*
X90716810Y-26672232D01*
X90728717Y-26746051D01*
X90750545Y-26810741D01*
X90784279Y-26865113D01*
X90830317Y-26908571D01*
X90889054Y-26940519D01*
X90962079Y-26960165D01*
X91050979Y-26966713D01*
X91138490Y-26960165D01*
X91190148Y-26946076D01*
X91481192Y-26946076D01*
X91660579Y-26946076D01*
X91651054Y-26182488D01*
X91771704Y-26598413D01*
X91914579Y-26598413D01*
X92030467Y-26182488D01*
X92022529Y-26946076D01*
X92201917Y-26946076D01*
X92196956Y-26823044D01*
X92191598Y-26695251D01*
X92185843Y-26565472D01*
X92179692Y-26436488D01*
X92172746Y-26309885D01*
X92164611Y-26187251D01*
X92155284Y-26070966D01*
X92144767Y-25963413D01*
X92322567Y-25963413D01*
X92322567Y-26125338D01*
X92535292Y-26125338D01*
X92535292Y-26784151D01*
X92322567Y-26784151D01*
X92322567Y-26946076D01*
X92946454Y-26946076D01*
X92946454Y-26784151D01*
X92732142Y-26784151D01*
X92732142Y-26125338D01*
X92946454Y-26125338D01*
X92946454Y-25963413D01*
X92322567Y-25963413D01*
X92144767Y-25963413D01*
X91982842Y-25963413D01*
X91955061Y-26049138D01*
X91919342Y-26161851D01*
X91881242Y-26284088D01*
X91844729Y-26398388D01*
X91805042Y-26276944D01*
X91765354Y-26156294D01*
X91730429Y-26047551D01*
X91701854Y-25963413D01*
X91539929Y-25963413D01*
X91529015Y-26090413D01*
X91518498Y-26214238D01*
X91508973Y-26335880D01*
X91501035Y-26456332D01*
X91494487Y-26576585D01*
X91489129Y-26697632D01*
X91484764Y-26820465D01*
X91481192Y-26946076D01*
X91190148Y-26946076D01*
X91210523Y-26940519D01*
X91312917Y-26865113D01*
X91345460Y-26810741D01*
X91366892Y-26746051D01*
X91378798Y-26672232D01*
X91382767Y-26590476D01*
X91382767Y-25963413D01*
X91185917Y-25963413D01*
X91185917Y-26577776D01*
X91179567Y-26681757D01*
X91158135Y-26749226D01*
X91116067Y-26785738D01*
X91047804Y-26796851D01*
X90979542Y-26785738D01*
X90936679Y-26748432D01*
X90914454Y-26680169D01*
X90908104Y-26576188D01*
X90908104Y-25963413D01*
X90712842Y-25963413D01*
X90382113Y-25963413D01*
X90382113Y-25632684D01*
X90712842Y-25632684D01*
X92946454Y-25632684D01*
X93277183Y-25632684D01*
X93277183Y-27297442D01*
G37*
%TO.C,U3*%
X98869648Y-33877563D02*
X98869648Y-36077563D01*
X98869648Y-33877563D02*
X98869648Y-31677563D01*
X105639648Y-33877563D02*
X105639648Y-37477563D01*
X105639648Y-33877563D02*
X105639648Y-31677563D01*
%TO.C,C3*%
X107339648Y-85899497D02*
X107339648Y-86180657D01*
X106319648Y-85899497D02*
X106319648Y-86180657D01*
%TO.C,D1*%
X79779648Y-106615077D02*
X79779648Y-102715077D01*
X81779648Y-106615077D02*
X79779648Y-106615077D01*
X81779648Y-106615077D02*
X81779648Y-102715077D01*
%TO.C,C9*%
X123011248Y-39944343D02*
X123011248Y-39663183D01*
X124031248Y-39944343D02*
X124031248Y-39663183D01*
%TO.C,U4*%
X93639648Y-30225063D02*
X93639648Y-30050063D01*
X92964648Y-30225063D02*
X93639648Y-30225063D01*
X92964648Y-27505063D02*
X93339648Y-27505063D01*
X91094648Y-30225063D02*
X90419648Y-30225063D01*
X91094648Y-27505063D02*
X90419648Y-27505063D01*
X90419648Y-30225063D02*
X90419648Y-30050063D01*
X90419648Y-27505063D02*
X90419648Y-27680063D01*
X93639648Y-27505063D02*
X93499648Y-27315063D01*
X93779648Y-27315063D01*
X93639648Y-27505063D01*
G36*
X93639648Y-27505063D02*
G01*
X93499648Y-27315063D01*
X93779648Y-27315063D01*
X93639648Y-27505063D01*
G37*
%TO.C,R15*%
X106407148Y-54802321D02*
X106407148Y-54327805D01*
X107452148Y-54802321D02*
X107452148Y-54327805D01*
%TO.C,U9*%
X109129648Y-95765077D02*
X125329648Y-95765077D01*
X109129648Y-96165077D02*
X109129648Y-95765077D01*
X109129648Y-111615077D02*
X108229648Y-111615077D01*
X109129648Y-111965077D02*
X109129648Y-111615077D01*
X109129648Y-111965077D02*
X125329648Y-111965077D01*
X125329648Y-95765077D02*
X125329648Y-96165077D01*
X125329648Y-111965077D02*
X125329648Y-111565077D01*
%TO.C,kibuzzard-63CD1EC0*%
G36*
X111949040Y-27001764D02*
G01*
X111717529Y-27001764D01*
X111418603Y-27001764D01*
X110680733Y-27001764D01*
X110247346Y-27001764D01*
X110092882Y-27001764D01*
X109861372Y-27001764D01*
X109697400Y-26755807D01*
X110092882Y-26755807D01*
X110247346Y-26755807D01*
X110282350Y-26671908D01*
X110306381Y-26627458D01*
X110332912Y-26584119D01*
X110361388Y-26542725D01*
X110391253Y-26504109D01*
X110449593Y-26441324D01*
X110449593Y-26755807D01*
X110586277Y-26755807D01*
X110680733Y-26755807D01*
X111113009Y-26755807D01*
X111113009Y-26722470D01*
X111226357Y-26722470D01*
X111304700Y-26755252D01*
X111357901Y-26766503D01*
X111418603Y-26770254D01*
X111507997Y-26759882D01*
X111582080Y-26728767D01*
X111640853Y-26676909D01*
X111674399Y-26625305D01*
X111698360Y-26563839D01*
X111712737Y-26492511D01*
X111717529Y-26411320D01*
X111711695Y-26330477D01*
X111694193Y-26259079D01*
X111666273Y-26197543D01*
X111629185Y-26146287D01*
X111583624Y-26105726D01*
X111530284Y-26076278D01*
X111470415Y-26058359D01*
X111405268Y-26052386D01*
X111339149Y-26058498D01*
X111287476Y-26072389D01*
X111250249Y-26089057D01*
X111227468Y-26102392D01*
X111263028Y-26211295D01*
X111324703Y-26182958D01*
X111407491Y-26171290D01*
X111470276Y-26182958D01*
X111524728Y-26221852D01*
X111563621Y-26294639D01*
X111574873Y-26345756D01*
X111578623Y-26407986D01*
X111574116Y-26480403D01*
X111560596Y-26540595D01*
X111538063Y-26588564D01*
X111484584Y-26635654D01*
X111405268Y-26651350D01*
X111316924Y-26639126D01*
X111260806Y-26614679D01*
X111226357Y-26722470D01*
X111113009Y-26722470D01*
X111113009Y-26067944D01*
X110975214Y-26067944D01*
X110975214Y-26642460D01*
X110680733Y-26642460D01*
X110680733Y-26755807D01*
X110586277Y-26755807D01*
X110586277Y-26067944D01*
X110449593Y-26067944D01*
X110449593Y-26353535D01*
X110398476Y-26284637D01*
X110347914Y-26209072D01*
X110304019Y-26134619D01*
X110270682Y-26067944D01*
X110116218Y-26067944D01*
X110153445Y-26136286D01*
X110176642Y-26175457D01*
X110202896Y-26216296D01*
X110231649Y-26258384D01*
X110262348Y-26301306D01*
X110294713Y-26343812D01*
X110328467Y-26384650D01*
X110293740Y-26420488D01*
X110258458Y-26461326D01*
X110223871Y-26506193D01*
X110191228Y-26554116D01*
X110161085Y-26604122D01*
X110133998Y-26655239D01*
X110110940Y-26706218D01*
X110092882Y-26755807D01*
X109697400Y-26755807D01*
X109467742Y-26411320D01*
X109861372Y-25820876D01*
X110092882Y-25820876D01*
X111717529Y-25820876D01*
X111949040Y-25820876D01*
X111949040Y-27001764D01*
G37*
%TO.C,kibuzzard-66439A83*%
G36*
X92537298Y-82374564D02*
G01*
X92565873Y-82378533D01*
X92565873Y-83038933D01*
X92548410Y-83040521D01*
X92530948Y-83040521D01*
X92419029Y-83015121D01*
X92346004Y-82945271D01*
X92306317Y-82839702D01*
X92297387Y-82775607D01*
X92294410Y-82705558D01*
X92303935Y-82581733D01*
X92337273Y-82475371D01*
X92402360Y-82401552D01*
X92508723Y-82373771D01*
X92537298Y-82374564D01*
G37*
G36*
X94102771Y-82617650D02*
G01*
X94150992Y-82663489D01*
X94180162Y-82734332D01*
X94189886Y-82824621D01*
X94180956Y-82915108D01*
X94154167Y-82986546D01*
X94107534Y-83032980D01*
X94039073Y-83048458D01*
X93972200Y-83032980D01*
X93923979Y-82986546D01*
X93894809Y-82915108D01*
X93885085Y-82824621D01*
X93894015Y-82734332D01*
X93920804Y-82663489D01*
X93967437Y-82617650D01*
X94035898Y-82602371D01*
X94102771Y-82617650D01*
G37*
G36*
X97894052Y-83549050D02*
G01*
X97563323Y-83549050D01*
X96861648Y-83549050D01*
X96285386Y-83549050D01*
X95520211Y-83549050D01*
X94889973Y-83549050D01*
X94035898Y-83549050D01*
X93272311Y-83549050D01*
X92551585Y-83549050D01*
X92095973Y-83549050D01*
X91765244Y-83549050D01*
X91765244Y-82705558D01*
X92095973Y-82705558D01*
X92104506Y-82831963D01*
X92130104Y-82938127D01*
X92170784Y-83025241D01*
X92224560Y-83094496D01*
X92290640Y-83146685D01*
X92368229Y-83182602D01*
X92455740Y-83203438D01*
X92551585Y-83210383D01*
X92653979Y-83204827D01*
X92761135Y-83186571D01*
X92761135Y-82929396D01*
X92910360Y-82929396D01*
X92932784Y-83051832D01*
X93000054Y-83142915D01*
X93070169Y-83184807D01*
X93160921Y-83209942D01*
X93272311Y-83218321D01*
X93382245Y-83211772D01*
X93467573Y-83192127D01*
X93577110Y-83143708D01*
X93519960Y-82984958D01*
X93417567Y-83032583D01*
X93351487Y-83049252D01*
X93272311Y-83054808D01*
X93190554Y-83044490D01*
X93138960Y-83015914D01*
X93112767Y-82974639D01*
X93105623Y-82927808D01*
X93123086Y-82873833D01*
X93167535Y-82831764D01*
X93183334Y-82823033D01*
X93685060Y-82823033D01*
X93691410Y-82907766D01*
X93710460Y-82984164D01*
X93741020Y-83051435D01*
X93781898Y-83108783D01*
X93832500Y-83155218D01*
X93892229Y-83189746D01*
X93960293Y-83211177D01*
X94035898Y-83218321D01*
X94111503Y-83211177D01*
X94179567Y-83189746D01*
X94239495Y-83155218D01*
X94290692Y-83108783D01*
X94332165Y-83051435D01*
X94362923Y-82984164D01*
X94381973Y-82907766D01*
X94388323Y-82823033D01*
X94381775Y-82739491D01*
X94362129Y-82663489D01*
X94330776Y-82596418D01*
X94289104Y-82539664D01*
X94237709Y-82494024D01*
X94192852Y-82469021D01*
X94499448Y-82469021D01*
X94534373Y-82649996D01*
X94579617Y-82640471D01*
X94632798Y-82631739D01*
X94685186Y-82626183D01*
X94728048Y-82624596D01*
X94809011Y-82628564D01*
X94889973Y-82643646D01*
X94889973Y-83197683D01*
X95086823Y-83197683D01*
X95086823Y-83178633D01*
X95282086Y-83178633D01*
X95382098Y-83204827D01*
X95445995Y-83212566D01*
X95520211Y-83215146D01*
X95626375Y-83207605D01*
X95716267Y-83184983D01*
X95755955Y-83165933D01*
X96074248Y-83165933D01*
X96187754Y-83204827D01*
X96285386Y-83215146D01*
X96355434Y-83209590D01*
X96396682Y-83197683D01*
X96861648Y-83197683D01*
X97020398Y-83197683D01*
X97020398Y-82742071D01*
X97025954Y-82670633D01*
X97040242Y-82629358D01*
X97060879Y-82610308D01*
X97085486Y-82605546D01*
X97115648Y-82607927D01*
X97144223Y-82616658D01*
X97136286Y-82683333D01*
X97133110Y-82764296D01*
X97133110Y-82913521D01*
X97291861Y-82913521D01*
X97291861Y-82742071D01*
X97306942Y-82635708D01*
X97355361Y-82605546D01*
X97378379Y-82607133D01*
X97404573Y-82611896D01*
X97404573Y-83197683D01*
X97563323Y-83197683D01*
X97563323Y-82480133D01*
X97441086Y-82453146D01*
X97334723Y-82443621D01*
X97260904Y-82453939D01*
X97204548Y-82488071D01*
X97141048Y-82457114D01*
X97064848Y-82443621D01*
X96963248Y-82462671D01*
X96900542Y-82519821D01*
X96869586Y-82615865D01*
X96863632Y-82678769D01*
X96861648Y-82751596D01*
X96861648Y-83197683D01*
X96396682Y-83197683D01*
X96413179Y-83192921D01*
X96495729Y-83128627D01*
X96539386Y-83026233D01*
X96548911Y-82961543D01*
X96552086Y-82888121D01*
X96552086Y-82613483D01*
X96758461Y-82613483D01*
X96758461Y-82451558D01*
X96488586Y-82451558D01*
X96356823Y-82451558D01*
X96356823Y-82913521D01*
X96332217Y-83012740D01*
X96250461Y-83045283D01*
X96185373Y-83038140D01*
X96099648Y-83008771D01*
X96074248Y-83165933D01*
X95755955Y-83165933D01*
X95790681Y-83149265D01*
X95850411Y-83102433D01*
X95895853Y-83045283D01*
X95927404Y-82978608D01*
X95945859Y-82904393D01*
X95952011Y-82824621D01*
X95945661Y-82746039D01*
X95926611Y-82672221D01*
X95894464Y-82605347D01*
X95848823Y-82547602D01*
X95789490Y-82499977D01*
X95716267Y-82463464D01*
X95628359Y-82440247D01*
X95524973Y-82432508D01*
X95404323Y-82442033D01*
X95294785Y-82473783D01*
X95337648Y-82630946D01*
X95408292Y-82611102D01*
X95507511Y-82602371D01*
X95624192Y-82619040D01*
X95699598Y-82665077D01*
X95740873Y-82735721D01*
X95753573Y-82824621D01*
X95739087Y-82916696D01*
X95695629Y-82986546D01*
X95617246Y-83030599D01*
X95497985Y-83045283D01*
X95401942Y-83038933D01*
X95310660Y-83018296D01*
X95282086Y-83178633D01*
X95086823Y-83178633D01*
X95086823Y-82500771D01*
X95008043Y-82474974D01*
X94927279Y-82454733D01*
X94838578Y-82441636D01*
X94735986Y-82437271D01*
X94690742Y-82438858D01*
X94628035Y-82444414D01*
X94560567Y-82453939D01*
X94499448Y-82469021D01*
X94192852Y-82469021D01*
X94177186Y-82460289D01*
X94109320Y-82439454D01*
X94035898Y-82432508D01*
X93961484Y-82439454D01*
X93893817Y-82460289D01*
X93833889Y-82494024D01*
X93782692Y-82539664D01*
X93741218Y-82596418D01*
X93710460Y-82663489D01*
X93691410Y-82739491D01*
X93685060Y-82823033D01*
X93183334Y-82823033D01*
X93227861Y-82798427D01*
X93294536Y-82770646D01*
X93386610Y-82734133D01*
X93473129Y-82681746D01*
X93537423Y-82603165D01*
X93562823Y-82486483D01*
X93540400Y-82363452D01*
X93473129Y-82270583D01*
X93421218Y-82237246D01*
X96364761Y-82237246D01*
X96401273Y-82327733D01*
X96488586Y-82361071D01*
X96575104Y-82327733D01*
X96610823Y-82237246D01*
X96575104Y-82145171D01*
X96488586Y-82111833D01*
X96401273Y-82145171D01*
X96364761Y-82237246D01*
X93421218Y-82237246D01*
X93405837Y-82227368D01*
X93323551Y-82201439D01*
X93226273Y-82192796D01*
X93141540Y-82197955D01*
X93068317Y-82213433D01*
X92954811Y-82259471D01*
X93011960Y-82410283D01*
X93100067Y-82372183D01*
X93211985Y-82356308D01*
X93298416Y-82368832D01*
X93350274Y-82406403D01*
X93367560Y-82469021D01*
X93351686Y-82519027D01*
X93311204Y-82557127D01*
X93255642Y-82586496D01*
X93194523Y-82610308D01*
X93098479Y-82649202D01*
X93006404Y-82706352D01*
X92937348Y-82795252D01*
X92917107Y-82855379D01*
X92910360Y-82929396D01*
X92761135Y-82929396D01*
X92761135Y-82227721D01*
X92635723Y-82208671D01*
X92526186Y-82203908D01*
X92433515Y-82211052D01*
X92349179Y-82232483D01*
X92275162Y-82269194D01*
X92213448Y-82322177D01*
X92164037Y-82391630D01*
X92126929Y-82477752D01*
X92103712Y-82581932D01*
X92095973Y-82705558D01*
X91765244Y-82705558D01*
X91765244Y-81781104D01*
X92095973Y-81781104D01*
X97563323Y-81781104D01*
X97894052Y-81781104D01*
X97894052Y-83549050D01*
G37*
%TO.C,R26*%
X83702148Y-103227819D02*
X83702148Y-103702335D01*
X82657148Y-103227819D02*
X82657148Y-103702335D01*
%TO.C,C9*%
X123011248Y-89944357D02*
X123011248Y-89663197D01*
X124031248Y-89944357D02*
X124031248Y-89663197D01*
%TO.C,kibuzzard-661FABB5*%
G36*
X117443798Y-26492007D02*
G01*
X117482692Y-26576144D01*
X117446179Y-26666632D01*
X117395776Y-26702350D01*
X117317592Y-26739657D01*
X117247742Y-26659488D01*
X117227104Y-26574557D01*
X117264410Y-26491213D01*
X117354104Y-26463432D01*
X117443798Y-26492007D01*
G37*
G36*
X120644992Y-27144469D02*
G01*
X120599748Y-27149232D01*
X120551329Y-27150819D01*
X120486242Y-27145263D01*
X120429885Y-27124625D01*
X120389404Y-27081763D01*
X120373529Y-27011119D01*
X120418773Y-26908725D01*
X120540217Y-26877769D01*
X120644992Y-26877769D01*
X120644992Y-27144469D01*
G37*
G36*
X120602129Y-26485657D02*
G01*
X120644992Y-26490419D01*
X120644992Y-26715844D01*
X120568792Y-26715844D01*
X120456079Y-26683300D01*
X120417979Y-26593607D01*
X120429092Y-26537250D01*
X120459254Y-26503913D01*
X120503704Y-26488038D01*
X120556092Y-26484069D01*
X120602129Y-26485657D01*
G37*
G36*
X117484279Y-26951588D02*
G01*
X117508092Y-27038107D01*
X117462848Y-27134150D01*
X117355692Y-27166694D01*
X117242185Y-27132563D01*
X117200117Y-27050807D01*
X117212023Y-26995244D01*
X117250123Y-26951588D01*
X117317592Y-26911900D01*
X117416017Y-26869832D01*
X117484279Y-26951588D01*
G37*
G36*
X119009073Y-26484863D02*
G01*
X119057492Y-26488832D01*
X119057492Y-26806332D01*
X118978117Y-26806332D01*
X118895964Y-26797005D01*
X118836829Y-26769025D01*
X118801110Y-26718424D01*
X118789204Y-26641232D01*
X118800912Y-26568008D01*
X118836035Y-26519788D01*
X118890606Y-26492999D01*
X118960654Y-26484069D01*
X119009073Y-26484863D01*
G37*
G36*
X116630601Y-26491808D02*
G01*
X116682592Y-26557888D01*
X116706404Y-26625533D01*
X116720692Y-26710994D01*
X116725454Y-26814269D01*
X116720692Y-26918427D01*
X116706404Y-27004416D01*
X116682592Y-27072238D01*
X116630601Y-27138318D01*
X116560354Y-27160344D01*
X116558767Y-27159853D01*
X116489115Y-27138318D01*
X116437323Y-27072238D01*
X116413951Y-27004416D01*
X116399929Y-26918427D01*
X116395254Y-26814269D01*
X116395973Y-26798394D01*
X116471454Y-26798394D01*
X116496061Y-26872213D01*
X116558767Y-26903169D01*
X116623854Y-26872213D01*
X116647667Y-26798394D01*
X116623854Y-26723782D01*
X116558767Y-26692032D01*
X116496061Y-26723782D01*
X116471454Y-26798394D01*
X116395973Y-26798394D01*
X116399929Y-26710994D01*
X116413951Y-26625533D01*
X116437323Y-26557888D01*
X116489115Y-26491808D01*
X116560354Y-26469782D01*
X116630601Y-26491808D01*
G37*
G36*
X121170983Y-27659348D02*
G01*
X120840254Y-27659348D01*
X120567204Y-27659348D01*
X119374992Y-27659348D01*
X119057492Y-27659348D01*
X117811304Y-27659348D01*
X117358867Y-27659348D01*
X116560354Y-27659348D01*
X116219042Y-27659348D01*
X115888313Y-27659348D01*
X115888313Y-26814269D01*
X116219042Y-26814269D01*
X116224499Y-26936110D01*
X116240870Y-27041282D01*
X116268155Y-27129785D01*
X116306354Y-27201619D01*
X116373382Y-27272175D01*
X116458049Y-27314508D01*
X116560354Y-27328619D01*
X116662660Y-27314508D01*
X116747326Y-27272175D01*
X116814354Y-27201619D01*
X116852553Y-27129785D01*
X116875924Y-27053982D01*
X117015967Y-27053982D01*
X117034223Y-27150819D01*
X117092960Y-27238925D01*
X117198529Y-27303219D01*
X117271157Y-27322269D01*
X117358867Y-27328619D01*
X117430106Y-27324055D01*
X117494598Y-27310363D01*
X117499360Y-27307982D01*
X117811304Y-27307982D01*
X118452654Y-27307982D01*
X118456623Y-27268294D01*
X118455829Y-27234957D01*
X118448487Y-27158757D01*
X118426460Y-27088907D01*
X118393123Y-27024811D01*
X118351848Y-26965875D01*
X118305017Y-26911504D01*
X118255010Y-26861100D01*
X118205004Y-26813674D01*
X118158173Y-26768232D01*
X118083560Y-26682507D01*
X118069707Y-26642819D01*
X118589179Y-26642819D01*
X118600733Y-26749446D01*
X118635393Y-26834378D01*
X118693160Y-26897613D01*
X118772095Y-26941269D01*
X118870255Y-26967463D01*
X118987642Y-26976194D01*
X119057492Y-26976194D01*
X119057492Y-27307982D01*
X119252754Y-27307982D01*
X119374992Y-27307982D01*
X119554379Y-27307982D01*
X119544854Y-26544394D01*
X119665504Y-26960319D01*
X119808379Y-26960319D01*
X119924267Y-26544394D01*
X119916329Y-27307982D01*
X120095717Y-27307982D01*
X120090756Y-27184950D01*
X120085398Y-27057157D01*
X120083356Y-27011119D01*
X120181442Y-27011119D01*
X120188982Y-27092677D01*
X120211604Y-27159550D01*
X120293360Y-27254801D01*
X120349717Y-27285360D01*
X120415598Y-27305600D01*
X120488821Y-27316911D01*
X120567204Y-27320682D01*
X120633482Y-27318896D01*
X120702142Y-27313538D01*
X120771595Y-27304608D01*
X120840254Y-27292107D01*
X120840254Y-26338019D01*
X120718017Y-26321350D01*
X120586254Y-26314207D01*
X120485448Y-26319961D01*
X120405279Y-26337225D01*
X120295742Y-26397550D01*
X120241767Y-26480894D01*
X120227479Y-26572969D01*
X120236012Y-26638850D01*
X120261610Y-26696794D01*
X120352892Y-26782519D01*
X120268953Y-26825382D01*
X120217160Y-26880944D01*
X120190371Y-26944444D01*
X120181442Y-27011119D01*
X120083356Y-27011119D01*
X120079643Y-26927379D01*
X120073492Y-26798394D01*
X120066546Y-26671791D01*
X120058410Y-26549157D01*
X120049084Y-26432872D01*
X120038567Y-26325319D01*
X119876642Y-26325319D01*
X119848860Y-26411044D01*
X119813142Y-26523757D01*
X119775042Y-26645994D01*
X119738529Y-26760294D01*
X119698842Y-26638850D01*
X119659154Y-26518200D01*
X119624229Y-26409457D01*
X119595654Y-26325319D01*
X119433729Y-26325319D01*
X119422815Y-26452319D01*
X119412298Y-26576144D01*
X119402773Y-26697786D01*
X119394835Y-26818238D01*
X119388287Y-26938491D01*
X119382929Y-27059538D01*
X119378564Y-27182371D01*
X119374992Y-27307982D01*
X119252754Y-27307982D01*
X119252754Y-26338019D01*
X119188460Y-26326907D01*
X119116229Y-26319763D01*
X119044792Y-26315794D01*
X118982879Y-26314207D01*
X118867345Y-26322762D01*
X118770507Y-26348426D01*
X118692367Y-26391200D01*
X118635040Y-26453378D01*
X118600645Y-26537250D01*
X118589179Y-26642819D01*
X118069707Y-26642819D01*
X118054192Y-26598369D01*
X118090704Y-26505500D01*
X118182779Y-26472957D01*
X118279617Y-26495182D01*
X118379629Y-26569794D01*
X118476467Y-26433269D01*
X118408006Y-26375325D01*
X118329623Y-26334844D01*
X118246478Y-26311032D01*
X118163729Y-26303094D01*
X118047842Y-26320557D01*
X117949417Y-26372944D01*
X117881154Y-26461050D01*
X117855754Y-26584082D01*
X117874804Y-26681713D01*
X117925604Y-26772994D01*
X117997042Y-26858719D01*
X118078004Y-26938094D01*
X118125629Y-26983338D01*
X118176429Y-27037313D01*
X118216910Y-27093669D01*
X118233579Y-27146057D01*
X117811304Y-27146057D01*
X117811304Y-27307982D01*
X117499360Y-27307982D01*
X117599373Y-27257975D01*
X117666842Y-27173838D01*
X117690654Y-27061919D01*
X117681923Y-26989490D01*
X117655729Y-26921425D01*
X117610882Y-26859315D01*
X117546192Y-26804744D01*
X117604929Y-26755532D01*
X117641442Y-26703144D01*
X117666842Y-26588844D01*
X117650173Y-26489625D01*
X117596992Y-26396757D01*
X117500154Y-26328494D01*
X117432685Y-26308254D01*
X117350929Y-26301507D01*
X117224128Y-26318969D01*
X117126298Y-26371357D01*
X117063790Y-26453113D01*
X117042954Y-26558682D01*
X117051289Y-26626349D01*
X117076292Y-26692825D01*
X117119154Y-26753349D01*
X117181067Y-26803157D01*
X117103875Y-26857925D01*
X117053273Y-26917457D01*
X117025293Y-26982544D01*
X117015967Y-27053982D01*
X116875924Y-27053982D01*
X116879839Y-27041282D01*
X116896210Y-26936110D01*
X116901667Y-26814269D01*
X116896110Y-26693818D01*
X116879442Y-26589638D01*
X116851660Y-26501730D01*
X116812767Y-26430094D01*
X116745210Y-26359539D01*
X116661072Y-26317205D01*
X116560354Y-26303094D01*
X116458049Y-26317117D01*
X116373382Y-26359186D01*
X116306354Y-26429300D01*
X116268155Y-26500688D01*
X116240870Y-26588646D01*
X116224499Y-26693173D01*
X116219042Y-26814269D01*
X115888313Y-26814269D01*
X115888313Y-25970778D01*
X116219042Y-25970778D01*
X120840254Y-25970778D01*
X121170983Y-25970778D01*
X121170983Y-27659348D01*
G37*
%TO.C,C23*%
X88769648Y-78955657D02*
X88769648Y-78674497D01*
X89789648Y-78955657D02*
X89789648Y-78674497D01*
%TO.C,kibuzzard-66439AF0*%
G36*
X121316810Y-63096813D02*
G01*
X121369198Y-63114275D01*
X121371579Y-63142850D01*
X121372373Y-63173013D01*
X121366023Y-63261119D01*
X121343798Y-63336525D01*
X121300142Y-63389707D01*
X121231086Y-63409550D01*
X121173935Y-63393675D01*
X121135042Y-63353988D01*
X121112817Y-63301600D01*
X121105673Y-63246038D01*
X121139010Y-63130944D01*
X121184651Y-63100583D01*
X121254898Y-63090463D01*
X121316810Y-63096813D01*
G37*
G36*
X125079715Y-63908555D02*
G01*
X124748986Y-63908555D01*
X124444185Y-63908555D01*
X123453586Y-63908555D01*
X122496323Y-63908555D01*
X121697810Y-63908555D01*
X121226323Y-63908555D01*
X120110311Y-63908555D01*
X119779581Y-63908555D01*
X119779581Y-63557188D01*
X120110311Y-63557188D01*
X120751660Y-63557188D01*
X120755629Y-63517500D01*
X120754835Y-63484163D01*
X120747493Y-63407963D01*
X120725467Y-63338113D01*
X120692129Y-63274018D01*
X120670310Y-63242863D01*
X120915173Y-63242863D01*
X120933429Y-63358750D01*
X120989785Y-63466700D01*
X121086623Y-63546869D01*
X121150917Y-63570086D01*
X121226323Y-63577825D01*
X121327658Y-63566448D01*
X121350413Y-63557188D01*
X121697810Y-63557188D01*
X122339160Y-63557188D01*
X122496323Y-63557188D01*
X123093223Y-63557188D01*
X123242448Y-63557188D01*
X123453586Y-63557188D01*
X123487121Y-63471860D01*
X123527404Y-63377800D01*
X123572053Y-63279375D01*
X123618686Y-63180950D01*
X123664723Y-63276399D01*
X123710761Y-63375419D01*
X123753623Y-63471265D01*
X123790136Y-63557188D01*
X124001273Y-63557188D01*
X123954442Y-63454000D01*
X123921898Y-63391294D01*
X123886179Y-63323825D01*
X123867298Y-63288900D01*
X124082236Y-63288900D01*
X124104659Y-63411336D01*
X124171929Y-63502419D01*
X124242044Y-63544312D01*
X124332796Y-63569447D01*
X124444185Y-63577825D01*
X124554120Y-63571277D01*
X124639448Y-63551632D01*
X124748986Y-63503213D01*
X124691836Y-63344463D01*
X124589442Y-63392088D01*
X124523362Y-63408757D01*
X124444185Y-63414313D01*
X124362429Y-63403994D01*
X124310836Y-63375419D01*
X124284642Y-63334144D01*
X124277498Y-63287313D01*
X124294961Y-63233338D01*
X124339411Y-63191269D01*
X124399736Y-63157932D01*
X124466411Y-63130150D01*
X124558486Y-63093638D01*
X124645004Y-63041250D01*
X124709298Y-62962669D01*
X124734698Y-62845988D01*
X124712275Y-62722957D01*
X124645004Y-62630088D01*
X124577712Y-62586873D01*
X124495426Y-62560944D01*
X124398148Y-62552300D01*
X124313415Y-62557460D01*
X124240192Y-62572938D01*
X124126686Y-62618975D01*
X124183836Y-62769788D01*
X124271942Y-62731688D01*
X124383861Y-62715813D01*
X124470291Y-62728337D01*
X124522149Y-62765907D01*
X124539436Y-62828525D01*
X124523561Y-62878532D01*
X124483079Y-62916632D01*
X124427517Y-62946000D01*
X124366398Y-62969813D01*
X124270354Y-63008707D01*
X124178279Y-63065857D01*
X124109223Y-63154757D01*
X124088982Y-63214883D01*
X124082236Y-63288900D01*
X123867298Y-63288900D01*
X123847881Y-63252983D01*
X123807598Y-63180157D01*
X123767117Y-63107727D01*
X123728223Y-63038075D01*
X123985398Y-62574525D01*
X123774261Y-62574525D01*
X123618686Y-62888850D01*
X123455173Y-62574525D01*
X123258323Y-62574525D01*
X123509148Y-63033313D01*
X123466682Y-63103163D01*
X123425011Y-63176188D01*
X123385125Y-63249808D01*
X123348017Y-63321444D01*
X123314481Y-63389707D01*
X123285311Y-63453207D01*
X123242448Y-63557188D01*
X123093223Y-63557188D01*
X123093223Y-63395263D01*
X122886848Y-63395263D01*
X122886848Y-62845988D01*
X122988448Y-62902344D01*
X123085286Y-62941238D01*
X123148786Y-62779313D01*
X123066236Y-62742800D01*
X122977336Y-62693588D01*
X122893198Y-62636438D01*
X122824935Y-62574525D01*
X122691586Y-62574525D01*
X122691586Y-63395263D01*
X122496323Y-63395263D01*
X122496323Y-63557188D01*
X122339160Y-63557188D01*
X122343129Y-63517500D01*
X122342335Y-63484163D01*
X122334993Y-63407963D01*
X122312967Y-63338113D01*
X122279629Y-63274018D01*
X122238354Y-63215082D01*
X122191523Y-63160710D01*
X122141517Y-63110307D01*
X122091511Y-63062880D01*
X122044679Y-63017438D01*
X121970067Y-62931713D01*
X121940698Y-62847575D01*
X121977211Y-62754707D01*
X122069285Y-62722163D01*
X122166123Y-62744388D01*
X122266135Y-62819000D01*
X122362973Y-62682475D01*
X122294512Y-62624532D01*
X122216129Y-62584050D01*
X122132984Y-62560238D01*
X122050236Y-62552300D01*
X121934348Y-62569763D01*
X121835923Y-62622150D01*
X121767661Y-62710257D01*
X121742261Y-62833288D01*
X121761311Y-62930919D01*
X121812110Y-63022200D01*
X121883548Y-63107925D01*
X121964511Y-63187300D01*
X122012136Y-63232544D01*
X122062936Y-63286519D01*
X122103417Y-63342875D01*
X122120086Y-63395263D01*
X121697810Y-63395263D01*
X121697810Y-63557188D01*
X121350413Y-63557188D01*
X121411531Y-63532317D01*
X121477942Y-63475432D01*
X121526008Y-63394381D01*
X121554847Y-63287754D01*
X121564461Y-63155550D01*
X121553943Y-63021010D01*
X121522392Y-62903138D01*
X121471393Y-62802332D01*
X121402536Y-62718988D01*
X121316810Y-62653504D01*
X121215210Y-62606275D01*
X121099720Y-62577700D01*
X120972323Y-62568175D01*
X120961210Y-62734863D01*
X121085035Y-62747563D01*
X121196161Y-62784869D01*
X121284267Y-62852338D01*
X121339035Y-62955525D01*
X121280298Y-62935682D01*
X121229498Y-62928538D01*
X121150321Y-62934888D01*
X121084242Y-62953938D01*
X120986610Y-63022200D01*
X120931842Y-63122213D01*
X120915173Y-63242863D01*
X120670310Y-63242863D01*
X120650854Y-63215082D01*
X120604023Y-63160710D01*
X120554017Y-63110307D01*
X120504011Y-63062880D01*
X120457179Y-63017438D01*
X120382567Y-62931713D01*
X120353198Y-62847575D01*
X120389710Y-62754707D01*
X120481786Y-62722163D01*
X120578623Y-62744388D01*
X120678635Y-62819000D01*
X120775473Y-62682475D01*
X120707012Y-62624532D01*
X120628629Y-62584050D01*
X120545484Y-62560238D01*
X120462735Y-62552300D01*
X120346848Y-62569763D01*
X120248423Y-62622150D01*
X120180160Y-62710257D01*
X120154761Y-62833288D01*
X120173810Y-62930919D01*
X120224610Y-63022200D01*
X120296048Y-63107925D01*
X120377010Y-63187300D01*
X120424636Y-63232544D01*
X120475435Y-63286519D01*
X120515917Y-63342875D01*
X120532586Y-63395263D01*
X120110311Y-63395263D01*
X120110311Y-63557188D01*
X119779581Y-63557188D01*
X119779581Y-62221571D01*
X120110311Y-62221571D01*
X124748986Y-62221571D01*
X125079715Y-62221571D01*
X125079715Y-63908555D01*
G37*
%TO.C,R12*%
X124533506Y-83251277D02*
X124058990Y-83251277D01*
X124533506Y-82206277D02*
X124058990Y-82206277D01*
%TO.C,R15*%
X106407148Y-104802335D02*
X106407148Y-104327819D01*
X107452148Y-104802335D02*
X107452148Y-104327819D01*
%TO.C,J4*%
X104654948Y-28235063D02*
X98244948Y-28235063D01*
X104654948Y-26015063D02*
X98244948Y-26015063D01*
%TO.C,U9*%
X109129648Y-45765063D02*
X125329648Y-45765063D01*
X109129648Y-46165063D02*
X109129648Y-45765063D01*
X109129648Y-61615063D02*
X108229648Y-61615063D01*
X109129648Y-61965063D02*
X109129648Y-61615063D01*
X109129648Y-61965063D02*
X125329648Y-61965063D01*
X125329648Y-45765063D02*
X125329648Y-46165063D01*
X125329648Y-61965063D02*
X125329648Y-61565063D01*
%TO.C,C11*%
X120840668Y-88483777D02*
X121121828Y-88483777D01*
X120840668Y-89503777D02*
X121121828Y-89503777D01*
%TO.C,C15*%
X89064648Y-63003811D02*
X89064648Y-63526315D01*
X87594648Y-63003811D02*
X87594648Y-63526315D01*
%TO.C,R14*%
X121442448Y-29062805D02*
X121442448Y-29537321D01*
X120397448Y-29062805D02*
X120397448Y-29537321D01*
%TO.C,D6*%
X87779648Y-57415063D02*
X87779648Y-51715063D01*
X92079648Y-57415063D02*
X87779648Y-57415063D01*
X92079648Y-57415063D02*
X92079648Y-51715063D01*
%TO.C,kibuzzard-642D97EE*%
G36*
X130029121Y-50605205D02*
G01*
X129814847Y-50500414D01*
X130029121Y-50397187D01*
X130029121Y-50605205D01*
G37*
G36*
X128037614Y-53381163D02*
G01*
X127820126Y-53274801D01*
X128037614Y-53170026D01*
X128037614Y-53381163D01*
G37*
G36*
X130226190Y-52716658D02*
G01*
X130205271Y-52823795D01*
X130142514Y-52919983D01*
X130048085Y-52988019D01*
X129932150Y-53010697D01*
X129815825Y-52988605D01*
X129720223Y-52922329D01*
X129656293Y-52826336D01*
X129634983Y-52715094D01*
X129634983Y-52564946D01*
X130226190Y-52564946D01*
X130226190Y-52716658D01*
G37*
G36*
X130226190Y-59632840D02*
G01*
X130205271Y-59739977D01*
X130142514Y-59836165D01*
X130048085Y-59904201D01*
X129932150Y-59926880D01*
X129815825Y-59904787D01*
X129720223Y-59838511D01*
X129656293Y-59742518D01*
X129634983Y-59631276D01*
X129634983Y-59481128D01*
X130226190Y-59481128D01*
X130226190Y-59632840D01*
G37*
G36*
X130226190Y-54318234D02*
G01*
X130199601Y-54392135D01*
X130119835Y-54416769D01*
X130060402Y-54408166D01*
X130029121Y-54379232D01*
X130016608Y-54291646D01*
X129994712Y-54207187D01*
X129904780Y-54179035D01*
X129814847Y-54207969D01*
X129792951Y-54304158D01*
X129760106Y-54379232D01*
X129703801Y-54383924D01*
X129649059Y-54358117D01*
X129633419Y-54280697D01*
X129633419Y-54061732D01*
X130226190Y-54061732D01*
X130226190Y-54318234D01*
G37*
G36*
X128237639Y-54487651D02*
G01*
X128210651Y-54562660D01*
X128129689Y-54587663D01*
X128069364Y-54578932D01*
X128037614Y-54549563D01*
X128024914Y-54460663D01*
X128002689Y-54374938D01*
X127911408Y-54346363D01*
X127820126Y-54375732D01*
X127797901Y-54473363D01*
X127764564Y-54549563D01*
X127707414Y-54554326D01*
X127651851Y-54528132D01*
X127635976Y-54449551D01*
X127635976Y-54227301D01*
X128237639Y-54227301D01*
X128237639Y-54487651D01*
G37*
G36*
X130059815Y-57141912D02*
G01*
X130159718Y-57209361D01*
X130224821Y-57304572D01*
X130246522Y-57410340D01*
X130225408Y-57515913D01*
X130162064Y-57610537D01*
X130099329Y-57660065D01*
X130023734Y-57689782D01*
X129935278Y-57699687D01*
X129846650Y-57689695D01*
X129770533Y-57659717D01*
X129706929Y-57609755D01*
X129642412Y-57514544D01*
X129620906Y-57408776D01*
X129642608Y-57303203D01*
X129707711Y-57208579D01*
X129807614Y-57141716D01*
X129933714Y-57119429D01*
X130059815Y-57141912D01*
G37*
G36*
X128029059Y-51367243D02*
G01*
X128105523Y-51397670D01*
X128170170Y-51448382D01*
X128236250Y-51545021D01*
X128258276Y-51652376D01*
X128236845Y-51759532D01*
X128172551Y-51855576D01*
X128108875Y-51905847D01*
X128032146Y-51936009D01*
X127942364Y-51946063D01*
X127852405Y-51935921D01*
X127775147Y-51905494D01*
X127710589Y-51854782D01*
X127645104Y-51758143D01*
X127623276Y-51650788D01*
X127645303Y-51543632D01*
X127711383Y-51447588D01*
X127776029Y-51397318D01*
X127852494Y-51367155D01*
X127940776Y-51357101D01*
X128029059Y-51367243D01*
G37*
G36*
X128029059Y-55239156D02*
G01*
X128105523Y-55269583D01*
X128170170Y-55320295D01*
X128236250Y-55416934D01*
X128258276Y-55524288D01*
X128236845Y-55631445D01*
X128172551Y-55727488D01*
X128108875Y-55777759D01*
X128032146Y-55807922D01*
X127942364Y-55817976D01*
X127852405Y-55807834D01*
X127775147Y-55777406D01*
X127710589Y-55726695D01*
X127645104Y-55630056D01*
X127623276Y-55522701D01*
X127645303Y-55415545D01*
X127711383Y-55319501D01*
X127776029Y-55269230D01*
X127852494Y-55239068D01*
X127940776Y-55229013D01*
X128029059Y-55239156D01*
G37*
G36*
X130854086Y-50901590D02*
G01*
X130854086Y-51655551D01*
X130854086Y-52023788D01*
X130854086Y-52711966D01*
X130854086Y-53681995D01*
X130854086Y-54333875D01*
X130854086Y-54503526D01*
X130854086Y-55527463D01*
X130854086Y-55552261D01*
X130854086Y-56267027D01*
X130854086Y-56768888D01*
X130854086Y-57413468D01*
X130854086Y-58213513D01*
X130854086Y-58939971D01*
X130854086Y-59628148D01*
X130854086Y-60203714D01*
X130854086Y-60534444D01*
X130854086Y-61817403D01*
X128929648Y-60534444D01*
X127005210Y-61817403D01*
X127005210Y-60534444D01*
X127005210Y-60203714D01*
X127005210Y-59343493D01*
X129356584Y-59343493D01*
X129358148Y-59632840D01*
X129368363Y-59742812D01*
X129399008Y-59845940D01*
X129450084Y-59942227D01*
X129521590Y-60031670D01*
X129608003Y-60106940D01*
X129703801Y-60160703D01*
X129808982Y-60192962D01*
X129923548Y-60203714D01*
X130038554Y-60193206D01*
X130145055Y-60161681D01*
X130243052Y-60109139D01*
X130332544Y-60035580D01*
X130407130Y-59947065D01*
X130460405Y-59849655D01*
X130492370Y-59743349D01*
X130503025Y-59628148D01*
X130503025Y-59341929D01*
X130493249Y-59264509D01*
X130463924Y-59223062D01*
X130363825Y-59204293D01*
X129494219Y-59204293D01*
X129439478Y-59206639D01*
X129398813Y-59221498D01*
X129367141Y-59262945D01*
X129356584Y-59343493D01*
X127005210Y-59343493D01*
X127005210Y-58937625D01*
X129359712Y-58937625D01*
X129367532Y-59009570D01*
X129386301Y-59050235D01*
X129419145Y-59069786D01*
X129498911Y-59079170D01*
X130366953Y-59079170D01*
X130421695Y-59076824D01*
X130462360Y-59061966D01*
X130494031Y-59020519D01*
X130504589Y-58939971D01*
X130495205Y-58855513D01*
X130465488Y-58816412D01*
X130318121Y-58705799D01*
X130188827Y-58608568D01*
X130077606Y-58524718D01*
X129984459Y-58454250D01*
X129909385Y-58397162D01*
X129852384Y-58353456D01*
X130366953Y-58353456D01*
X130421695Y-58351110D01*
X130462360Y-58336251D01*
X130494031Y-58294804D01*
X130504589Y-58214256D01*
X130504489Y-58213513D01*
X130494031Y-58136054D01*
X130462360Y-58095389D01*
X130420131Y-58080531D01*
X130365389Y-58078185D01*
X129492655Y-58078185D01*
X129405851Y-58093043D01*
X129369096Y-58137618D01*
X129359803Y-58213513D01*
X129359712Y-58214256D01*
X129368314Y-58288548D01*
X129387865Y-58326867D01*
X129428530Y-58362840D01*
X129569684Y-58466762D01*
X129693895Y-58558519D01*
X129801162Y-58638111D01*
X129891485Y-58705539D01*
X129964865Y-58760801D01*
X130021301Y-58803899D01*
X129492655Y-58803899D01*
X129405851Y-58818758D01*
X129369096Y-58863333D01*
X129359712Y-58937625D01*
X127005210Y-58937625D01*
X127005210Y-58215101D01*
X127356576Y-58215101D01*
X127358958Y-58269870D01*
X127374039Y-58311938D01*
X127416108Y-58344085D01*
X127497864Y-58354801D01*
X127585970Y-58340117D01*
X127628039Y-58296063D01*
X127637564Y-58213513D01*
X127637564Y-57726151D01*
X127797901Y-57726151D01*
X127797901Y-58040476D01*
X127800283Y-58095245D01*
X127815364Y-58137313D01*
X127857433Y-58169460D01*
X127939189Y-58180176D01*
X128027295Y-58165095D01*
X128069364Y-58119851D01*
X128078889Y-58037301D01*
X128078889Y-57726151D01*
X128239226Y-57726151D01*
X128239226Y-58215101D01*
X128241608Y-58269870D01*
X128256689Y-58311938D01*
X128298758Y-58344085D01*
X128380514Y-58354801D01*
X128468620Y-58340117D01*
X128510689Y-58296063D01*
X128520214Y-58213513D01*
X128520214Y-57584863D01*
X128505133Y-57496757D01*
X128459889Y-57454688D01*
X128378926Y-57445163D01*
X127496276Y-57445163D01*
X127385945Y-57475326D01*
X127356576Y-57589626D01*
X127356576Y-58215101D01*
X127005210Y-58215101D01*
X127005210Y-57404084D01*
X129344072Y-57404084D01*
X129354531Y-57516011D01*
X129385910Y-57620312D01*
X129438207Y-57716990D01*
X129511424Y-57806042D01*
X129600134Y-57880627D01*
X129698913Y-57933902D01*
X129807760Y-57965867D01*
X129926676Y-57976522D01*
X130046032Y-57966356D01*
X130156199Y-57935857D01*
X130257177Y-57885026D01*
X130348967Y-57813862D01*
X130425263Y-57727840D01*
X130479760Y-57632434D01*
X130512458Y-57527643D01*
X130523357Y-57413468D01*
X130512604Y-57299049D01*
X130480346Y-57193525D01*
X130426582Y-57096897D01*
X130351313Y-57009164D01*
X130261185Y-56936290D01*
X130162846Y-56884236D01*
X130056296Y-56853004D01*
X129941535Y-56842594D01*
X129815825Y-56854324D01*
X129698326Y-56889515D01*
X129594122Y-56944256D01*
X129508296Y-57014638D01*
X129439869Y-57098705D01*
X129387865Y-57194503D01*
X129355020Y-57297729D01*
X129344072Y-57404084D01*
X127005210Y-57404084D01*
X127005210Y-57170526D01*
X127347051Y-57170526D01*
X127374039Y-57264188D01*
X127422458Y-57334435D01*
X127475639Y-57357851D01*
X127551839Y-57334038D01*
X128440839Y-56895888D01*
X128497195Y-56842707D01*
X128518626Y-56768888D01*
X128518626Y-56753013D01*
X128497195Y-56677607D01*
X128440839Y-56624426D01*
X128415420Y-56611898D01*
X129340943Y-56611898D01*
X129380044Y-56703394D01*
X129432440Y-56760873D01*
X129453705Y-56768888D01*
X129483271Y-56780032D01*
X129508951Y-56768888D01*
X129566165Y-56744059D01*
X130071350Y-56406227D01*
X130370081Y-56406227D01*
X130424041Y-56403881D01*
X130465488Y-56389022D01*
X130498333Y-56346793D01*
X130507717Y-56267027D01*
X130498333Y-56187261D01*
X130464706Y-56145032D01*
X130422477Y-56130174D01*
X130366953Y-56127828D01*
X130071350Y-56127828D01*
X129566165Y-55789995D01*
X129483271Y-55754022D01*
X129434199Y-55771227D01*
X129387083Y-55822840D01*
X129340943Y-55921375D01*
X129353456Y-55968296D01*
X129417581Y-56024601D01*
X129805463Y-56267027D01*
X129417581Y-56509453D01*
X129355802Y-56561067D01*
X129340943Y-56611898D01*
X128415420Y-56611898D01*
X127551839Y-56186276D01*
X127475639Y-56162463D01*
X127422458Y-56185879D01*
X127374039Y-56256126D01*
X127347051Y-56336295D01*
X127353401Y-56378363D01*
X127375626Y-56405351D01*
X127417695Y-56431545D01*
X127462145Y-56452777D01*
X127549458Y-56492663D01*
X127661575Y-56543662D01*
X127780439Y-56598232D01*
X127899303Y-56653001D01*
X128011420Y-56704595D01*
X128096153Y-56743687D01*
X128132864Y-56760951D01*
X127437539Y-57078451D01*
X127389914Y-57100676D01*
X127347051Y-57170526D01*
X127005210Y-57170526D01*
X127005210Y-55517938D01*
X127342289Y-55517938D01*
X127352905Y-55631544D01*
X127384754Y-55737410D01*
X127437836Y-55835538D01*
X127512151Y-55925926D01*
X127602192Y-56001630D01*
X127702453Y-56055704D01*
X127812933Y-56088149D01*
X127933633Y-56098963D01*
X128054779Y-56088645D01*
X128166598Y-56057688D01*
X128269091Y-56006095D01*
X128362258Y-55933863D01*
X128439698Y-55846551D01*
X128495012Y-55749713D01*
X128528201Y-55643351D01*
X128539264Y-55527463D01*
X129358148Y-55527463D01*
X129358148Y-55553825D01*
X129360494Y-55607785D01*
X129375352Y-55649232D01*
X129416799Y-55680904D01*
X129497347Y-55691461D01*
X129584152Y-55676993D01*
X129625599Y-55633591D01*
X129634983Y-55552261D01*
X129634983Y-55527463D01*
X129634983Y-55072101D01*
X129792951Y-55072101D01*
X129792951Y-55381781D01*
X129795297Y-55435740D01*
X129810155Y-55477187D01*
X129851602Y-55508859D01*
X129932150Y-55519416D01*
X130018955Y-55504558D01*
X130060402Y-55459983D01*
X130069786Y-55378653D01*
X130069786Y-55072101D01*
X130227754Y-55072101D01*
X130227754Y-55527463D01*
X130227754Y-55553825D01*
X130230100Y-55607785D01*
X130244958Y-55649232D01*
X130286405Y-55680904D01*
X130366953Y-55691461D01*
X130453757Y-55676993D01*
X130495205Y-55633591D01*
X130504589Y-55552261D01*
X130504589Y-55527463D01*
X130504589Y-54932902D01*
X130489730Y-54846097D01*
X130445155Y-54804650D01*
X130365389Y-54795266D01*
X129495783Y-54795266D01*
X129387083Y-54824983D01*
X129358148Y-54937594D01*
X129358148Y-55527463D01*
X128539264Y-55527463D01*
X128528350Y-55411328D01*
X128495608Y-55304221D01*
X128441037Y-55206144D01*
X128364639Y-55117095D01*
X128273159Y-55043127D01*
X128173345Y-54990293D01*
X128065197Y-54958593D01*
X127948714Y-54948026D01*
X127821118Y-54959932D01*
X127701858Y-54995651D01*
X127596090Y-55051213D01*
X127508976Y-55122651D01*
X127439523Y-55207979D01*
X127386739Y-55305213D01*
X127353401Y-55409988D01*
X127342289Y-55517938D01*
X127005210Y-55517938D01*
X127005210Y-54487651D01*
X127354989Y-54487651D01*
X127366278Y-54579726D01*
X127400144Y-54661218D01*
X127456589Y-54732126D01*
X127529967Y-54789452D01*
X127612517Y-54823848D01*
X127704239Y-54835313D01*
X127804648Y-54820232D01*
X127896326Y-54774988D01*
X127973408Y-54827023D01*
X128056487Y-54858244D01*
X128145564Y-54868651D01*
X128245664Y-54855157D01*
X128334300Y-54818909D01*
X128411470Y-54759907D01*
X128471001Y-54684501D01*
X128506720Y-54599041D01*
X128518626Y-54503526D01*
X128518626Y-54318234D01*
X129356584Y-54318234D01*
X129367706Y-54408948D01*
X129401072Y-54489236D01*
X129412447Y-54503526D01*
X129456682Y-54559096D01*
X129528976Y-54615575D01*
X129610306Y-54649463D01*
X129700673Y-54660759D01*
X129799598Y-54645900D01*
X129889921Y-54601325D01*
X129965864Y-54652591D01*
X130047715Y-54683350D01*
X130135475Y-54693604D01*
X130234097Y-54680309D01*
X130321422Y-54644597D01*
X130397452Y-54586467D01*
X130456104Y-54512175D01*
X130459719Y-54503526D01*
X130491294Y-54427978D01*
X130503025Y-54333875D01*
X130503025Y-53922532D01*
X130488166Y-53835728D01*
X130443591Y-53794281D01*
X130362261Y-53784897D01*
X129494219Y-53784897D01*
X129439478Y-53787243D01*
X129398813Y-53802101D01*
X129367141Y-53843548D01*
X129356584Y-53924096D01*
X129356584Y-54318234D01*
X128518626Y-54318234D01*
X128518626Y-54086013D01*
X128503545Y-53997907D01*
X128458301Y-53955838D01*
X128375751Y-53946313D01*
X127494689Y-53946313D01*
X127439126Y-53948695D01*
X127397851Y-53963776D01*
X127365704Y-54005845D01*
X127354989Y-54087601D01*
X127354989Y-54487651D01*
X127005210Y-54487651D01*
X127005210Y-53276388D01*
X127356576Y-53276388D01*
X127377214Y-53351001D01*
X127439126Y-53403388D01*
X128324951Y-53832013D01*
X128405914Y-53859001D01*
X128460286Y-53835982D01*
X128509101Y-53766926D01*
X128536089Y-53681995D01*
X128521801Y-53631195D01*
X128491639Y-53602620D01*
X128444014Y-53578013D01*
X128272564Y-53495463D01*
X128272564Y-53055726D01*
X128444014Y-52973176D01*
X128490051Y-52948570D01*
X128519420Y-52919995D01*
X128534501Y-52869195D01*
X128507514Y-52784263D01*
X128459889Y-52715207D01*
X128405914Y-52692188D01*
X128324951Y-52719176D01*
X127437539Y-53147801D01*
X127378801Y-53200982D01*
X127356576Y-53276388D01*
X127005210Y-53276388D01*
X127005210Y-52427311D01*
X129356584Y-52427311D01*
X129358148Y-52716658D01*
X129368363Y-52826629D01*
X129399008Y-52929758D01*
X129450084Y-53026044D01*
X129521590Y-53115488D01*
X129608003Y-53190757D01*
X129703801Y-53244521D01*
X129808982Y-53276779D01*
X129923548Y-53287532D01*
X130038554Y-53277024D01*
X130145055Y-53245499D01*
X130243052Y-53192957D01*
X130332544Y-53119398D01*
X130407130Y-53030883D01*
X130460405Y-52933473D01*
X130492370Y-52827167D01*
X130503025Y-52711966D01*
X130503025Y-52425746D01*
X130493249Y-52348327D01*
X130463924Y-52306880D01*
X130363825Y-52288111D01*
X129494219Y-52288111D01*
X129439478Y-52290457D01*
X129398813Y-52305315D01*
X129367141Y-52346763D01*
X129356584Y-52427311D01*
X127005210Y-52427311D01*
X127005210Y-51646026D01*
X127342289Y-51646026D01*
X127352905Y-51759631D01*
X127384754Y-51865498D01*
X127437836Y-51963625D01*
X127512151Y-52054013D01*
X127602192Y-52129717D01*
X127702453Y-52183792D01*
X127812933Y-52216236D01*
X127933633Y-52227051D01*
X128054779Y-52216732D01*
X128166598Y-52185776D01*
X128269091Y-52134182D01*
X128362258Y-52061951D01*
X128439698Y-51974638D01*
X128495012Y-51877801D01*
X128528201Y-51771438D01*
X128539264Y-51655551D01*
X128528350Y-51539415D01*
X128495608Y-51432309D01*
X128441037Y-51334231D01*
X128410017Y-51298074D01*
X129359712Y-51298074D01*
X129368314Y-51372366D01*
X129387865Y-51410685D01*
X129428530Y-51446658D01*
X129569684Y-51550580D01*
X129693895Y-51642337D01*
X129711704Y-51655551D01*
X129801162Y-51721929D01*
X129891485Y-51789356D01*
X129964865Y-51844619D01*
X130021301Y-51887717D01*
X129492655Y-51887717D01*
X129405851Y-51902575D01*
X129369096Y-51947150D01*
X129359712Y-52021442D01*
X129367532Y-52093388D01*
X129386301Y-52134053D01*
X129419145Y-52153604D01*
X129498911Y-52162988D01*
X130366953Y-52162988D01*
X130421695Y-52160642D01*
X130462360Y-52145783D01*
X130494031Y-52104336D01*
X130504589Y-52023788D01*
X130495205Y-51939330D01*
X130465488Y-51900229D01*
X130318121Y-51789617D01*
X130188827Y-51692386D01*
X130139968Y-51655551D01*
X130077606Y-51608536D01*
X129984459Y-51538067D01*
X129909385Y-51480980D01*
X129852384Y-51437274D01*
X130366953Y-51437274D01*
X130421695Y-51434928D01*
X130462360Y-51420069D01*
X130494031Y-51378622D01*
X130504589Y-51298074D01*
X130494031Y-51219872D01*
X130462360Y-51179207D01*
X130420131Y-51164349D01*
X130365389Y-51162003D01*
X129492655Y-51162003D01*
X129405851Y-51176861D01*
X129369096Y-51221436D01*
X129359712Y-51298074D01*
X128410017Y-51298074D01*
X128364639Y-51245182D01*
X128273159Y-51171215D01*
X128173345Y-51118381D01*
X128065197Y-51086680D01*
X127948714Y-51076113D01*
X127821118Y-51088020D01*
X127701858Y-51123738D01*
X127596090Y-51179301D01*
X127508976Y-51250738D01*
X127439523Y-51336067D01*
X127386739Y-51433301D01*
X127353401Y-51538076D01*
X127342289Y-51646026D01*
X127005210Y-51646026D01*
X127005210Y-50539538D01*
X127335939Y-50539538D01*
X127349697Y-50662129D01*
X127390972Y-50780133D01*
X127459764Y-50893551D01*
X127530408Y-50936413D01*
X127620101Y-50899901D01*
X127683204Y-50840767D01*
X127704239Y-50787188D01*
X127660583Y-50690351D01*
X127627840Y-50617326D01*
X127616926Y-50531601D01*
X127638159Y-50417698D01*
X127701858Y-50317288D01*
X127799886Y-50247042D01*
X127924108Y-50223626D01*
X128011067Y-50234209D01*
X128088855Y-50265959D01*
X128157470Y-50318876D01*
X128229503Y-50420476D01*
X128253514Y-50534776D01*
X128246370Y-50617723D01*
X128224939Y-50691938D01*
X128051901Y-50691938D01*
X128051901Y-50566526D01*
X128039201Y-50496676D01*
X128001895Y-50469688D01*
X127935220Y-50463338D01*
X127867751Y-50470482D01*
X127832826Y-50496676D01*
X127818539Y-50572876D01*
X127818539Y-50852276D01*
X127862989Y-50957051D01*
X127951889Y-50972926D01*
X128301139Y-50972926D01*
X128397976Y-50928476D01*
X128458400Y-50853467D01*
X128501561Y-50761788D01*
X128527457Y-50653442D01*
X128536089Y-50528426D01*
X128533508Y-50501978D01*
X129358148Y-50501978D01*
X129365463Y-50528426D01*
X129378480Y-50575488D01*
X129439478Y-50627101D01*
X130312212Y-51049392D01*
X130391978Y-51075980D01*
X130445546Y-51053302D01*
X130493640Y-50985266D01*
X130520229Y-50901590D01*
X130506153Y-50851541D01*
X130476436Y-50823388D01*
X130429515Y-50799146D01*
X130260599Y-50717815D01*
X130260599Y-50528426D01*
X130260599Y-50284577D01*
X130429515Y-50203246D01*
X130474872Y-50179004D01*
X130503807Y-50150851D01*
X130518665Y-50100802D01*
X130492076Y-50017126D01*
X130445155Y-49949090D01*
X130391978Y-49926412D01*
X130312212Y-49953000D01*
X129437914Y-50375291D01*
X129380044Y-50427686D01*
X129358148Y-50501978D01*
X128533508Y-50501978D01*
X128524927Y-50414027D01*
X128491440Y-50307367D01*
X128435630Y-50208445D01*
X128357495Y-50117263D01*
X128263584Y-50040865D01*
X128160447Y-49986295D01*
X128048081Y-49953552D01*
X127926489Y-49942638D01*
X127805491Y-49953751D01*
X127694912Y-49987088D01*
X127594751Y-50042651D01*
X127505008Y-50120438D01*
X127431040Y-50213307D01*
X127378206Y-50314113D01*
X127346506Y-50422857D01*
X127335939Y-50539538D01*
X127005210Y-50539538D01*
X127005210Y-49926412D01*
X127005210Y-49595682D01*
X128929648Y-48312723D01*
X130854086Y-49595682D01*
X130854086Y-49926412D01*
X130854086Y-50528426D01*
X130854086Y-50901590D01*
G37*
%TO.C,kibuzzard-66439AF0*%
G36*
X121316810Y-113096827D02*
G01*
X121369198Y-113114289D01*
X121371579Y-113142864D01*
X121372373Y-113173027D01*
X121366023Y-113261133D01*
X121343798Y-113336539D01*
X121300142Y-113389721D01*
X121231086Y-113409564D01*
X121173935Y-113393689D01*
X121135042Y-113354002D01*
X121112817Y-113301614D01*
X121105673Y-113246052D01*
X121139010Y-113130958D01*
X121184651Y-113100597D01*
X121254898Y-113090477D01*
X121316810Y-113096827D01*
G37*
G36*
X125079715Y-113908569D02*
G01*
X124748986Y-113908569D01*
X124444185Y-113908569D01*
X123453586Y-113908569D01*
X122496323Y-113908569D01*
X121697810Y-113908569D01*
X121226323Y-113908569D01*
X120110311Y-113908569D01*
X119779581Y-113908569D01*
X119779581Y-113557202D01*
X120110311Y-113557202D01*
X120751660Y-113557202D01*
X120755629Y-113517514D01*
X120754835Y-113484177D01*
X120747493Y-113407977D01*
X120725467Y-113338127D01*
X120692129Y-113274032D01*
X120670310Y-113242877D01*
X120915173Y-113242877D01*
X120933429Y-113358764D01*
X120989785Y-113466714D01*
X121086623Y-113546883D01*
X121150917Y-113570100D01*
X121226323Y-113577839D01*
X121327658Y-113566462D01*
X121350413Y-113557202D01*
X121697810Y-113557202D01*
X122339160Y-113557202D01*
X122496323Y-113557202D01*
X123093223Y-113557202D01*
X123242448Y-113557202D01*
X123453586Y-113557202D01*
X123487121Y-113471874D01*
X123527404Y-113377814D01*
X123572053Y-113279389D01*
X123618686Y-113180964D01*
X123664723Y-113276413D01*
X123710761Y-113375433D01*
X123753623Y-113471279D01*
X123790136Y-113557202D01*
X124001273Y-113557202D01*
X123954442Y-113454014D01*
X123921898Y-113391308D01*
X123886179Y-113323839D01*
X123867298Y-113288914D01*
X124082236Y-113288914D01*
X124104659Y-113411350D01*
X124171929Y-113502433D01*
X124242044Y-113544326D01*
X124332796Y-113569461D01*
X124444185Y-113577839D01*
X124554120Y-113571291D01*
X124639448Y-113551646D01*
X124748986Y-113503227D01*
X124691836Y-113344477D01*
X124589442Y-113392102D01*
X124523362Y-113408771D01*
X124444185Y-113414327D01*
X124362429Y-113404008D01*
X124310836Y-113375433D01*
X124284642Y-113334158D01*
X124277498Y-113287327D01*
X124294961Y-113233352D01*
X124339411Y-113191283D01*
X124399736Y-113157946D01*
X124466411Y-113130164D01*
X124558486Y-113093652D01*
X124645004Y-113041264D01*
X124709298Y-112962683D01*
X124734698Y-112846002D01*
X124712275Y-112722971D01*
X124645004Y-112630102D01*
X124577712Y-112586887D01*
X124495426Y-112560958D01*
X124398148Y-112552314D01*
X124313415Y-112557474D01*
X124240192Y-112572952D01*
X124126686Y-112618989D01*
X124183836Y-112769802D01*
X124271942Y-112731702D01*
X124383861Y-112715827D01*
X124470291Y-112728351D01*
X124522149Y-112765921D01*
X124539436Y-112828539D01*
X124523561Y-112878546D01*
X124483079Y-112916646D01*
X124427517Y-112946014D01*
X124366398Y-112969827D01*
X124270354Y-113008721D01*
X124178279Y-113065871D01*
X124109223Y-113154771D01*
X124088982Y-113214897D01*
X124082236Y-113288914D01*
X123867298Y-113288914D01*
X123847881Y-113252997D01*
X123807598Y-113180171D01*
X123767117Y-113107741D01*
X123728223Y-113038089D01*
X123985398Y-112574539D01*
X123774261Y-112574539D01*
X123618686Y-112888864D01*
X123455173Y-112574539D01*
X123258323Y-112574539D01*
X123509148Y-113033327D01*
X123466682Y-113103177D01*
X123425011Y-113176202D01*
X123385125Y-113249822D01*
X123348017Y-113321458D01*
X123314481Y-113389721D01*
X123285311Y-113453221D01*
X123242448Y-113557202D01*
X123093223Y-113557202D01*
X123093223Y-113395277D01*
X122886848Y-113395277D01*
X122886848Y-112846002D01*
X122988448Y-112902358D01*
X123085286Y-112941252D01*
X123148786Y-112779327D01*
X123066236Y-112742814D01*
X122977336Y-112693602D01*
X122893198Y-112636452D01*
X122824935Y-112574539D01*
X122691586Y-112574539D01*
X122691586Y-113395277D01*
X122496323Y-113395277D01*
X122496323Y-113557202D01*
X122339160Y-113557202D01*
X122343129Y-113517514D01*
X122342335Y-113484177D01*
X122334993Y-113407977D01*
X122312967Y-113338127D01*
X122279629Y-113274032D01*
X122238354Y-113215096D01*
X122191523Y-113160724D01*
X122141517Y-113110321D01*
X122091511Y-113062894D01*
X122044679Y-113017452D01*
X121970067Y-112931727D01*
X121940698Y-112847589D01*
X121977211Y-112754721D01*
X122069285Y-112722177D01*
X122166123Y-112744402D01*
X122266135Y-112819014D01*
X122362973Y-112682489D01*
X122294512Y-112624546D01*
X122216129Y-112584064D01*
X122132984Y-112560252D01*
X122050236Y-112552314D01*
X121934348Y-112569777D01*
X121835923Y-112622164D01*
X121767661Y-112710271D01*
X121742261Y-112833302D01*
X121761311Y-112930933D01*
X121812110Y-113022214D01*
X121883548Y-113107939D01*
X121964511Y-113187314D01*
X122012136Y-113232558D01*
X122062936Y-113286533D01*
X122103417Y-113342889D01*
X122120086Y-113395277D01*
X121697810Y-113395277D01*
X121697810Y-113557202D01*
X121350413Y-113557202D01*
X121411531Y-113532331D01*
X121477942Y-113475446D01*
X121526008Y-113394395D01*
X121554847Y-113287768D01*
X121564461Y-113155564D01*
X121553943Y-113021024D01*
X121522392Y-112903152D01*
X121471393Y-112802346D01*
X121402536Y-112719002D01*
X121316810Y-112653518D01*
X121215210Y-112606289D01*
X121099720Y-112577714D01*
X120972323Y-112568189D01*
X120961210Y-112734877D01*
X121085035Y-112747577D01*
X121196161Y-112784883D01*
X121284267Y-112852352D01*
X121339035Y-112955539D01*
X121280298Y-112935696D01*
X121229498Y-112928552D01*
X121150321Y-112934902D01*
X121084242Y-112953952D01*
X120986610Y-113022214D01*
X120931842Y-113122227D01*
X120915173Y-113242877D01*
X120670310Y-113242877D01*
X120650854Y-113215096D01*
X120604023Y-113160724D01*
X120554017Y-113110321D01*
X120504011Y-113062894D01*
X120457179Y-113017452D01*
X120382567Y-112931727D01*
X120353198Y-112847589D01*
X120389710Y-112754721D01*
X120481786Y-112722177D01*
X120578623Y-112744402D01*
X120678635Y-112819014D01*
X120775473Y-112682489D01*
X120707012Y-112624546D01*
X120628629Y-112584064D01*
X120545484Y-112560252D01*
X120462735Y-112552314D01*
X120346848Y-112569777D01*
X120248423Y-112622164D01*
X120180160Y-112710271D01*
X120154761Y-112833302D01*
X120173810Y-112930933D01*
X120224610Y-113022214D01*
X120296048Y-113107939D01*
X120377010Y-113187314D01*
X120424636Y-113232558D01*
X120475435Y-113286533D01*
X120515917Y-113342889D01*
X120532586Y-113395277D01*
X120110311Y-113395277D01*
X120110311Y-113557202D01*
X119779581Y-113557202D01*
X119779581Y-112221585D01*
X120110311Y-112221585D01*
X124748986Y-112221585D01*
X125079715Y-112221585D01*
X125079715Y-113908569D01*
G37*
%TO.C,kibuzzard-63CD1E7F*%
G36*
X110410699Y-74909638D02*
G01*
X110430702Y-74912416D01*
X110430702Y-75374696D01*
X110418478Y-75375808D01*
X110406254Y-75375808D01*
X110327911Y-75358028D01*
X110276794Y-75309133D01*
X110249013Y-75235235D01*
X110242762Y-75190368D01*
X110240678Y-75141334D01*
X110247346Y-75054656D01*
X110270682Y-74980203D01*
X110316243Y-74928530D01*
X110390697Y-74909083D01*
X110410699Y-74909638D01*
G37*
G36*
X111940150Y-75731778D02*
G01*
X111708639Y-75731778D01*
X111427493Y-75731778D01*
X110788524Y-75731778D01*
X110420701Y-75731778D01*
X110101772Y-75731778D01*
X109870262Y-75731778D01*
X109476632Y-75141334D01*
X110101772Y-75141334D01*
X110107745Y-75229817D01*
X110125664Y-75304132D01*
X110154140Y-75365112D01*
X110191783Y-75413590D01*
X110238039Y-75450123D01*
X110292351Y-75475265D01*
X110353609Y-75489850D01*
X110420701Y-75494711D01*
X110492376Y-75490822D01*
X110567386Y-75478043D01*
X110567386Y-74806848D01*
X110508860Y-74797958D01*
X110678511Y-74797958D01*
X110678511Y-75485821D01*
X110788524Y-75485821D01*
X110820566Y-75409577D01*
X110854459Y-75333457D01*
X110890204Y-75257460D01*
X110927801Y-75181462D01*
X110967251Y-75105342D01*
X111008552Y-75029098D01*
X111008552Y-75485821D01*
X111131901Y-75485821D01*
X111131901Y-74832406D01*
X111223023Y-74832406D01*
X111258583Y-74941309D01*
X111318591Y-74913528D01*
X111391933Y-74901304D01*
X111474166Y-74919084D01*
X111529173Y-74968535D01*
X111560288Y-75044100D01*
X111567372Y-75090355D01*
X111569733Y-75141334D01*
X111565412Y-75216343D01*
X111552447Y-75276906D01*
X111530839Y-75323023D01*
X111482778Y-75366779D01*
X111416381Y-75381364D01*
X111389711Y-75380253D01*
X111363041Y-75376919D01*
X111363041Y-75125776D01*
X111226357Y-75125776D01*
X111226357Y-75469153D01*
X111302478Y-75489155D01*
X111359568Y-75497490D01*
X111427493Y-75500268D01*
X111488751Y-75494573D01*
X111543619Y-75477487D01*
X111591542Y-75449150D01*
X111631963Y-75409701D01*
X111664467Y-75359139D01*
X111688637Y-75297465D01*
X111703639Y-75224817D01*
X111708639Y-75141334D01*
X111702805Y-75058685D01*
X111685303Y-74986315D01*
X111657800Y-74924501D01*
X111621962Y-74873523D01*
X111578345Y-74833657D01*
X111527506Y-74805181D01*
X111471110Y-74788095D01*
X111410824Y-74782400D01*
X111339149Y-74788512D01*
X111284142Y-74802403D01*
X111245804Y-74819071D01*
X111223023Y-74832406D01*
X111131901Y-74832406D01*
X111131901Y-74797958D01*
X111021887Y-74797958D01*
X110990772Y-74848936D01*
X110959657Y-74904082D01*
X110928959Y-74961173D01*
X110899094Y-75017985D01*
X110870757Y-75073826D01*
X110844643Y-75127999D01*
X110821445Y-75178005D01*
X110801859Y-75221344D01*
X110801859Y-74797958D01*
X110678511Y-74797958D01*
X110508860Y-74797958D01*
X110479597Y-74793513D01*
X110402921Y-74790179D01*
X110338052Y-74795180D01*
X110279016Y-74810181D01*
X110227204Y-74835879D01*
X110184004Y-74872967D01*
X110149417Y-74921584D01*
X110123441Y-74981870D01*
X110107189Y-75054795D01*
X110101772Y-75141334D01*
X109476632Y-75141334D01*
X109870262Y-74550890D01*
X110101772Y-74550890D01*
X111708639Y-74550890D01*
X111940150Y-74550890D01*
X111940150Y-75731778D01*
G37*
%TO.C,R3*%
X101716906Y-90537577D02*
X101242390Y-90537577D01*
X101716906Y-89492577D02*
X101242390Y-89492577D01*
%TO.C,C16*%
X116429948Y-79084497D02*
X116429948Y-79365657D01*
X115409948Y-79084497D02*
X115409948Y-79365657D01*
%TO.C,U6*%
X118526248Y-82688777D02*
X116576248Y-82688777D01*
X118526248Y-82688777D02*
X120476248Y-82688777D01*
X118526248Y-87808777D02*
X115076248Y-87808777D01*
X118526248Y-87808777D02*
X120476248Y-87808777D01*
%TO.C,J11*%
X94639648Y-108185077D02*
X94639648Y-110845077D01*
X84359648Y-108185077D02*
X94639648Y-108185077D01*
X84359648Y-108185077D02*
X84359648Y-110845077D01*
X84359648Y-110845077D02*
X94639648Y-110845077D01*
%TO.C,R3*%
X101716906Y-40537563D02*
X101242390Y-40537563D01*
X101716906Y-39492563D02*
X101242390Y-39492563D01*
%TO.C,C22*%
X87119648Y-28955643D02*
X87119648Y-28674483D01*
X88139648Y-28955643D02*
X88139648Y-28674483D01*
%TO.C,C3*%
X107339648Y-35899483D02*
X107339648Y-36180643D01*
X106319648Y-35899483D02*
X106319648Y-36180643D01*
%TO.C,Q2*%
X100929648Y-44225063D02*
X101579648Y-44225063D01*
X100929648Y-44225063D02*
X100279648Y-44225063D01*
X100929648Y-41105063D02*
X102604648Y-41105063D01*
X100929648Y-41105063D02*
X100279648Y-41105063D01*
%TD*%
M02*
