%TF.GenerationSoftware,KiCad,Pcbnew,7.0.11*%
%TF.CreationDate,2024-05-24T13:54:11+08:00*%
%TF.ProjectId,panel,70616e65-6c2e-46b6-9963-61645f706362,rev?*%
%TF.SameCoordinates,Original*%
%TF.FileFunction,Soldermask,Top*%
%TF.FilePolarity,Negative*%
%FSLAX46Y46*%
G04 Gerber Fmt 4.6, Leading zero omitted, Abs format (unit mm)*
G04 Created by KiCad (PCBNEW 7.0.11) date 2024-05-24 13:54:11*
%MOMM*%
%LPD*%
G01*
G04 APERTURE LIST*
G04 Aperture macros list*
%AMRoundRect*
0 Rectangle with rounded corners*
0 $1 Rounding radius*
0 $2 $3 $4 $5 $6 $7 $8 $9 X,Y pos of 4 corners*
0 Add a 4 corners polygon primitive as box body*
4,1,4,$2,$3,$4,$5,$6,$7,$8,$9,$2,$3,0*
0 Add four circle primitives for the rounded corners*
1,1,$1+$1,$2,$3*
1,1,$1+$1,$4,$5*
1,1,$1+$1,$6,$7*
1,1,$1+$1,$8,$9*
0 Add four rect primitives between the rounded corners*
20,1,$1+$1,$2,$3,$4,$5,0*
20,1,$1+$1,$4,$5,$6,$7,0*
20,1,$1+$1,$6,$7,$8,$9,0*
20,1,$1+$1,$8,$9,$2,$3,0*%
G04 Aperture macros list end*
%ADD10C,0.500000*%
%ADD11R,1.500000X0.900000*%
%ADD12R,0.900000X1.500000*%
%ADD13R,0.900000X0.900000*%
%ADD14C,5.700000*%
%ADD15RoundRect,0.218750X0.256250X-0.218750X0.256250X0.218750X-0.256250X0.218750X-0.256250X-0.218750X0*%
%ADD16RoundRect,0.200000X0.200000X0.275000X-0.200000X0.275000X-0.200000X-0.275000X0.200000X-0.275000X0*%
%ADD17R,2.200000X2.200000*%
%ADD18C,2.200000*%
%ADD19R,2.180000X1.600000*%
%ADD20RoundRect,0.218750X-0.218750X-0.256250X0.218750X-0.256250X0.218750X0.256250X-0.218750X0.256250X0*%
%ADD21C,0.600000*%
%ADD22R,1.160000X0.600000*%
%ADD23R,1.160000X0.300000*%
%ADD24O,2.000000X0.900000*%
%ADD25O,1.700000X0.900000*%
%ADD26R,1.050000X1.000000*%
%ADD27R,2.200000X1.050000*%
%ADD28RoundRect,0.225000X-0.375000X0.225000X-0.375000X-0.225000X0.375000X-0.225000X0.375000X0.225000X0*%
%ADD29RoundRect,0.200000X-0.275000X0.200000X-0.275000X-0.200000X0.275000X-0.200000X0.275000X0.200000X0*%
%ADD30R,2.000000X1.500000*%
%ADD31R,2.000000X3.800000*%
%ADD32RoundRect,0.200000X0.600000X-0.200000X0.600000X0.200000X-0.600000X0.200000X-0.600000X-0.200000X0*%
%ADD33RoundRect,0.250001X1.249999X-0.799999X1.249999X0.799999X-1.249999X0.799999X-1.249999X-0.799999X0*%
%ADD34C,1.700000*%
%ADD35O,1.700000X1.700000*%
%ADD36RoundRect,0.200000X-0.200000X-0.275000X0.200000X-0.275000X0.200000X0.275000X-0.200000X0.275000X0*%
%ADD37RoundRect,0.200000X-0.200000X-0.600000X0.200000X-0.600000X0.200000X0.600000X-0.200000X0.600000X0*%
%ADD38RoundRect,0.250001X-0.799999X-1.249999X0.799999X-1.249999X0.799999X1.249999X-0.799999X1.249999X0*%
%ADD39RoundRect,0.150000X-0.150000X0.587500X-0.150000X-0.587500X0.150000X-0.587500X0.150000X0.587500X0*%
%ADD40RoundRect,0.250000X-0.925000X0.412500X-0.925000X-0.412500X0.925000X-0.412500X0.925000X0.412500X0*%
%ADD41RoundRect,0.250000X-0.750000X0.600000X-0.750000X-0.600000X0.750000X-0.600000X0.750000X0.600000X0*%
%ADD42O,2.000000X1.700000*%
%ADD43RoundRect,0.200000X0.275000X-0.200000X0.275000X0.200000X-0.275000X0.200000X-0.275000X-0.200000X0*%
%ADD44RoundRect,0.250000X-0.475000X0.250000X-0.475000X-0.250000X0.475000X-0.250000X0.475000X0.250000X0*%
%ADD45R,1.700000X1.700000*%
%ADD46RoundRect,0.225000X0.225000X0.250000X-0.225000X0.250000X-0.225000X-0.250000X0.225000X-0.250000X0*%
%ADD47C,1.000000*%
%ADD48R,0.900000X1.200000*%
%ADD49RoundRect,0.200000X0.700000X0.200000X-0.700000X0.200000X-0.700000X-0.200000X0.700000X-0.200000X0*%
%ADD50O,1.000000X1.000000*%
%ADD51R,1.000000X1.000000*%
%ADD52C,1.200000*%
G04 APERTURE END LIST*
D10*
%TO.C,KiKit_MB_2_24*%
X109862064Y-68500008D03*
%TD*%
D11*
%TO.C,U8*%
X92879648Y-26245063D03*
X92879648Y-27515063D03*
X92879648Y-28785063D03*
X92879648Y-30055063D03*
X92879648Y-31325063D03*
X92879648Y-32595063D03*
X92879648Y-33865063D03*
X92879648Y-35135063D03*
X92879648Y-36405063D03*
X92879648Y-37675063D03*
X92879648Y-38945063D03*
X92879648Y-40215063D03*
X92879648Y-41485063D03*
X92879648Y-42755063D03*
D12*
X94644648Y-44005063D03*
X95914648Y-44005063D03*
X97184648Y-44005063D03*
X98454648Y-44005063D03*
X99724648Y-44005063D03*
X100994648Y-44005063D03*
X102264648Y-44005063D03*
X103534648Y-44005063D03*
X104804648Y-44005063D03*
X106074648Y-44005063D03*
X107344648Y-44005063D03*
X108614648Y-44005063D03*
D11*
X110379648Y-42755063D03*
X110379648Y-41485063D03*
X110379648Y-40215063D03*
X110379648Y-38945063D03*
X110379648Y-37675063D03*
X110379648Y-36405063D03*
X110379648Y-35135063D03*
X110379648Y-33865063D03*
X110379648Y-32595063D03*
X110379648Y-31325063D03*
X110379648Y-30055063D03*
X110379648Y-28785063D03*
X110379648Y-27515063D03*
X110379648Y-26245063D03*
D13*
X98729648Y-32565063D03*
X100129648Y-32565063D03*
X101529648Y-32565063D03*
X98729648Y-33965063D03*
X100129648Y-33965063D03*
X101529648Y-33965063D03*
X98729648Y-35365063D03*
X100129648Y-35365063D03*
X101529648Y-35365063D03*
%TD*%
D10*
%TO.C,KiKit_MB_2_52*%
X87172406Y-68500001D03*
%TD*%
D14*
%TO.C,H2*%
X81499948Y-65000063D03*
%TD*%
D15*
%TO.C,D2*%
X115685248Y-64302563D03*
X115685248Y-62727563D03*
%TD*%
D16*
%TO.C,R18*%
X89012148Y-79615077D03*
X87362148Y-79615077D03*
%TD*%
D10*
%TO.C,KiKit_MB_3_5*%
X132000010Y-26230770D03*
%TD*%
%TO.C,KiKit_MB_2_56*%
X83931026Y-68500000D03*
%TD*%
D17*
%TO.C,J7*%
X109781248Y-66391263D03*
D18*
X112321248Y-66391263D03*
%TD*%
D10*
%TO.C,KiKit_MB_2_11*%
X120396549Y-68500011D03*
%TD*%
%TO.C,KiKit_MB_6_3*%
X132000010Y-74615398D03*
%TD*%
%TO.C,KiKit_MB_5_24*%
X100137922Y-69500017D03*
%TD*%
%TO.C,KiKit_MB_3_32*%
X132000003Y-48038461D03*
%TD*%
%TO.C,KiKit_MB_3_16*%
X132000007Y-35115385D03*
%TD*%
%TO.C,KiKit_MB_4_32*%
X78000000Y-89961552D03*
%TD*%
%TO.C,KiKit_MB_2_10*%
X121206894Y-68500011D03*
%TD*%
%TO.C,KiKit_MB_4_10*%
X78000008Y-107730783D03*
%TD*%
%TO.C,KiKit_MB_5_55*%
X125258611Y-69500014D03*
%TD*%
%TO.C,KiKit_MB_2_29*%
X105810339Y-68500007D03*
%TD*%
D14*
%TO.C,H4*%
X128499948Y-73000077D03*
%TD*%
D10*
%TO.C,KiKit_MB_4_19*%
X78000005Y-100461552D03*
%TD*%
D14*
%TO.C,H2*%
X81499948Y-115000077D03*
%TD*%
D10*
%TO.C,KiKit_MB_1_51*%
X77999992Y-24615385D03*
%TD*%
D19*
%TO.C,SW1*%
X80431248Y-34378763D03*
X89611248Y-34378763D03*
%TD*%
D10*
%TO.C,KiKit_MB_4_46*%
X77999994Y-78653860D03*
%TD*%
D14*
%TO.C,H3*%
X128499948Y-115000077D03*
%TD*%
D10*
%TO.C,KiKit_MB_5_22*%
X98517233Y-69500017D03*
%TD*%
%TO.C,KiKit_MB_6_33*%
X132000003Y-98846167D03*
%TD*%
D20*
%TO.C,D3*%
X84332148Y-77415077D03*
X85907148Y-77415077D03*
%TD*%
D10*
%TO.C,KiKit_MB_5_10*%
X88793095Y-69500019D03*
%TD*%
D21*
%TO.C,J3*%
X84819648Y-89155077D03*
X84819648Y-94935077D03*
D22*
X85879648Y-88845077D03*
X85879648Y-89645077D03*
D23*
X85879648Y-90795077D03*
X85879648Y-91795077D03*
X85879648Y-92295077D03*
X85879648Y-93295077D03*
D22*
X85879648Y-94445077D03*
X85879648Y-95245077D03*
X85879648Y-95245077D03*
X85879648Y-94445077D03*
D23*
X85879648Y-93795077D03*
X85879648Y-92795077D03*
X85879648Y-91295077D03*
X85879648Y-90295077D03*
D22*
X85879648Y-89645077D03*
X85879648Y-88845077D03*
D24*
X85299648Y-87725077D03*
D25*
X81129648Y-87725077D03*
D24*
X85299648Y-96365077D03*
D25*
X81129648Y-96365077D03*
%TD*%
D10*
%TO.C,KiKit_MB_6_17*%
X132000007Y-85923091D03*
%TD*%
%TO.C,KiKit_MB_5_15*%
X92844819Y-69500018D03*
%TD*%
%TO.C,KiKit_MB_1_39*%
X77999997Y-34307693D03*
%TD*%
D26*
%TO.C,J10*%
X128196248Y-45568763D03*
D27*
X129721248Y-44093763D03*
X129721248Y-47043763D03*
%TD*%
D10*
%TO.C,KiKit_MB_2_46*%
X92034476Y-68500003D03*
%TD*%
%TO.C,KiKit_MB_2_23*%
X110672409Y-68500008D03*
%TD*%
%TO.C,KiKit_MB_6_40*%
X132000001Y-104500014D03*
%TD*%
%TO.C,KiKit_MB_6_7*%
X132000009Y-77846167D03*
%TD*%
%TO.C,KiKit_MB_4_2*%
X78000011Y-114192321D03*
%TD*%
%TO.C,KiKit_MB_2_51*%
X87982751Y-68500001D03*
%TD*%
%TO.C,KiKit_MB_3_3*%
X132000010Y-24615385D03*
%TD*%
%TO.C,KiKit_MB_6_42*%
X132000001Y-106115398D03*
%TD*%
%TO.C,KiKit_MB_1_23*%
X78000003Y-47230769D03*
%TD*%
%TO.C,KiKit_MB_5_48*%
X119586197Y-69500015D03*
%TD*%
%TO.C,KiKit_MB_5_31*%
X105810335Y-69500016D03*
%TD*%
%TO.C,KiKit_MB_1_15*%
X78000006Y-53692307D03*
%TD*%
%TO.C,KiKit_MB_4_39*%
X77999997Y-84307706D03*
%TD*%
%TO.C,KiKit_MB_6_32*%
X132000003Y-98038475D03*
%TD*%
%TO.C,KiKit_MB_5_9*%
X87982750Y-69500019D03*
%TD*%
D28*
%TO.C,D9*%
X86979648Y-62965063D03*
X86979648Y-66265063D03*
%TD*%
D10*
%TO.C,KiKit_MB_2_57*%
X83120681Y-68500000D03*
%TD*%
D29*
%TO.C,R4*%
X120099948Y-104375077D03*
X120099948Y-106025077D03*
%TD*%
D10*
%TO.C,KiKit_MB_3_37*%
X132000002Y-52076923D03*
%TD*%
%TO.C,KiKit_MB_1_22*%
X78000003Y-48038461D03*
%TD*%
%TO.C,KiKit_MB_2_37*%
X99327581Y-68500005D03*
%TD*%
%TO.C,KiKit_MB_3_11*%
X132000008Y-31076924D03*
%TD*%
D30*
%TO.C,U1*%
X96979648Y-97015077D03*
X96979648Y-99315077D03*
D31*
X103279648Y-99315077D03*
D30*
X96979648Y-101615077D03*
%TD*%
D10*
%TO.C,KiKit_MB_4_28*%
X78000001Y-93192321D03*
%TD*%
%TO.C,KiKit_MB_5_11*%
X89603440Y-69500018D03*
%TD*%
%TO.C,KiKit_MB_4_29*%
X78000001Y-92384629D03*
%TD*%
%TO.C,KiKit_MB_1_21*%
X78000004Y-48846154D03*
%TD*%
D32*
%TO.C,J2*%
X125868648Y-107618677D03*
X125868648Y-106368677D03*
X125868648Y-105118677D03*
X125868648Y-103868677D03*
X125868648Y-102618677D03*
D33*
X128768648Y-110168677D03*
X128768648Y-100068677D03*
%TD*%
D10*
%TO.C,KiKit_MB_2_8*%
X122827584Y-68500012D03*
%TD*%
%TO.C,KiKit_MB_2_33*%
X102568960Y-68500006D03*
%TD*%
%TO.C,KiKit_MB_3_15*%
X132000007Y-34307693D03*
%TD*%
D16*
%TO.C,R19*%
X89047148Y-27415063D03*
X87397148Y-27415063D03*
%TD*%
D32*
%TO.C,J2*%
X125868648Y-57618663D03*
X125868648Y-56368663D03*
X125868648Y-55118663D03*
X125868648Y-53868663D03*
X125868648Y-52618663D03*
D33*
X128768648Y-60168663D03*
X128768648Y-50068663D03*
%TD*%
D10*
%TO.C,KiKit_MB_5_27*%
X102568957Y-69500017D03*
%TD*%
%TO.C,KiKit_MB_3_26*%
X132000005Y-43192308D03*
%TD*%
%TO.C,KiKit_MB_6_47*%
X132000000Y-110153860D03*
%TD*%
%TO.C,KiKit_MB_4_37*%
X77999998Y-85923091D03*
%TD*%
%TO.C,KiKit_MB_6_46*%
X132000000Y-109346167D03*
%TD*%
%TO.C,KiKit_MB_1_36*%
X77999998Y-36730770D03*
%TD*%
%TO.C,KiKit_MB_6_9*%
X132000009Y-79461552D03*
%TD*%
%TO.C,KiKit_MB_2_35*%
X100948271Y-68500005D03*
%TD*%
%TO.C,KiKit_MB_3_14*%
X132000007Y-33500001D03*
%TD*%
%TO.C,KiKit_MB_4_25*%
X78000002Y-95615398D03*
%TD*%
%TO.C,KiKit_MB_3_52*%
X131999999Y-64192307D03*
%TD*%
%TO.C,KiKit_MB_1_40*%
X77999997Y-33500001D03*
%TD*%
%TO.C,KiKit_MB_6_2*%
X132000010Y-73807706D03*
%TD*%
%TO.C,KiKit_MB_2_9*%
X122017239Y-68500012D03*
%TD*%
%TO.C,KiKit_MB_2_30*%
X104999995Y-68500006D03*
%TD*%
%TO.C,KiKit_MB_8_1*%
X131500010Y-68000513D03*
%TD*%
%TO.C,KiKit_MB_3_46*%
X132000000Y-59346153D03*
%TD*%
%TO.C,KiKit_MB_4_17*%
X78000005Y-102076937D03*
%TD*%
%TO.C,KiKit_MB_1_7*%
X78000009Y-60153846D03*
%TD*%
D30*
%TO.C,U1*%
X96979648Y-47015063D03*
X96979648Y-49315063D03*
D31*
X103279648Y-49315063D03*
D30*
X96979648Y-51615063D03*
%TD*%
D34*
%TO.C,M3*%
X107221248Y-72128777D03*
D35*
X109761248Y-72128777D03*
X112301248Y-72128777D03*
%TD*%
D10*
%TO.C,KiKit_MB_6_12*%
X132000008Y-81884629D03*
%TD*%
%TO.C,KiKit_MB_5_46*%
X117965508Y-69500015D03*
%TD*%
%TO.C,KiKit_MB_5_30*%
X104999991Y-69500017D03*
%TD*%
%TO.C,KiKit_MB_5_35*%
X109051715Y-69500016D03*
%TD*%
%TO.C,KiKit_MB_2_6*%
X124448274Y-68500012D03*
%TD*%
%TO.C,KiKit_MB_2_27*%
X107431029Y-68500007D03*
%TD*%
%TO.C,KiKit_MB_6_53*%
X131999998Y-115000014D03*
%TD*%
D36*
%TO.C,R1*%
X80279648Y-31565063D03*
X81929648Y-31565063D03*
%TD*%
D15*
%TO.C,D4*%
X106821248Y-114302577D03*
X106821248Y-112727577D03*
%TD*%
D10*
%TO.C,KiKit_MB_4_33*%
X77999999Y-89153860D03*
%TD*%
%TO.C,KiKit_MB_6_24*%
X132000005Y-91576937D03*
%TD*%
%TO.C,KiKit_MB_3_6*%
X132000009Y-27038462D03*
%TD*%
D16*
%TO.C,R16*%
X122610248Y-107761277D03*
X120960248Y-107761277D03*
%TD*%
D10*
%TO.C,KiKit_MB_7_2*%
X78499991Y-69000513D03*
%TD*%
%TO.C,KiKit_MB_4_30*%
X78000000Y-91576937D03*
%TD*%
%TO.C,KiKit_MB_4_43*%
X77999995Y-81076937D03*
%TD*%
%TO.C,KiKit_MB_4_26*%
X78000002Y-94807706D03*
%TD*%
%TO.C,KiKit_MB_1_47*%
X77999994Y-27846155D03*
%TD*%
%TO.C,KiKit_MB_6_31*%
X132000004Y-97230783D03*
%TD*%
D37*
%TO.C,J14*%
X92379648Y-62215063D03*
X93629648Y-62215063D03*
D38*
X89829648Y-65115063D03*
X96179648Y-65115063D03*
%TD*%
D16*
%TO.C,R2*%
X114479648Y-94365077D03*
X112829648Y-94365077D03*
%TD*%
D10*
%TO.C,KiKit_MB_2_36*%
X100137926Y-68500005D03*
%TD*%
D34*
%TO.C,M1*%
X88504548Y-72128777D03*
D35*
X91044548Y-72128777D03*
X93584548Y-72128777D03*
%TD*%
D21*
%TO.C,J3*%
X84819648Y-39155063D03*
X84819648Y-44935063D03*
D22*
X85879648Y-38845063D03*
X85879648Y-39645063D03*
D23*
X85879648Y-40795063D03*
X85879648Y-41795063D03*
X85879648Y-42295063D03*
X85879648Y-43295063D03*
D22*
X85879648Y-44445063D03*
X85879648Y-45245063D03*
X85879648Y-45245063D03*
X85879648Y-44445063D03*
D23*
X85879648Y-43795063D03*
X85879648Y-42795063D03*
X85879648Y-41295063D03*
X85879648Y-40295063D03*
D22*
X85879648Y-39645063D03*
X85879648Y-38845063D03*
D24*
X85299648Y-37725063D03*
D25*
X81129648Y-37725063D03*
D24*
X85299648Y-46365063D03*
D25*
X81129648Y-46365063D03*
%TD*%
D10*
%TO.C,KiKit_MB_6_18*%
X132000007Y-86730783D03*
%TD*%
%TO.C,KiKit_MB_6_20*%
X132000006Y-88346167D03*
%TD*%
%TO.C,KiKit_MB_1_27*%
X78000002Y-44000001D03*
%TD*%
%TO.C,KiKit_MB_8_3*%
X131500010Y-70000513D03*
%TD*%
D39*
%TO.C,Q3*%
X119335248Y-59723763D03*
X117435248Y-59723763D03*
X118385248Y-61598763D03*
%TD*%
D20*
%TO.C,D5*%
X84329648Y-29595063D03*
X85904648Y-29595063D03*
%TD*%
D10*
%TO.C,KiKit_MB_2_18*%
X114724134Y-68500009D03*
%TD*%
%TO.C,KiKit_MB_3_24*%
X132000005Y-41576924D03*
%TD*%
%TO.C,KiKit_MB_6_11*%
X132000008Y-81076937D03*
%TD*%
D40*
%TO.C,C12*%
X106379648Y-98927577D03*
X106379648Y-102002577D03*
%TD*%
D10*
%TO.C,KiKit_MB_3_23*%
X132000005Y-40769231D03*
%TD*%
%TO.C,KiKit_MB_2_43*%
X94465511Y-68500003D03*
%TD*%
D36*
%TO.C,R5*%
X87869948Y-37725063D03*
X89519948Y-37725063D03*
%TD*%
D10*
%TO.C,KiKit_MB_1_42*%
X77999996Y-31884616D03*
%TD*%
D36*
%TO.C,R20*%
X117360248Y-107761277D03*
X119010248Y-107761277D03*
%TD*%
D10*
%TO.C,KiKit_MB_1_18*%
X78000005Y-51269231D03*
%TD*%
%TO.C,KiKit_MB_1_30*%
X78000000Y-41576924D03*
%TD*%
%TO.C,KiKit_MB_4_50*%
X77999993Y-75423091D03*
%TD*%
%TO.C,KiKit_MB_2_40*%
X96896546Y-68500004D03*
%TD*%
%TO.C,KiKit_MB_1_46*%
X77999994Y-28653847D03*
%TD*%
D36*
%TO.C,R24*%
X108496248Y-107791277D03*
X110146248Y-107791277D03*
%TD*%
D10*
%TO.C,KiKit_MB_5_36*%
X109862059Y-69500016D03*
%TD*%
%TO.C,KiKit_MB_1_43*%
X77999995Y-31076924D03*
%TD*%
%TO.C,KiKit_MB_1_6*%
X78000010Y-60961538D03*
%TD*%
%TO.C,KiKit_MB_4_15*%
X78000006Y-103692321D03*
%TD*%
%TO.C,KiKit_MB_4_38*%
X77999997Y-85115398D03*
%TD*%
D17*
%TO.C,J6*%
X118717248Y-66391263D03*
D18*
X121257248Y-66391263D03*
%TD*%
D39*
%TO.C,Q4*%
X114071248Y-109753777D03*
X112171248Y-109753777D03*
X113121248Y-111628777D03*
%TD*%
D10*
%TO.C,KiKit_MB_6_50*%
X131999999Y-112576937D03*
%TD*%
%TO.C,KiKit_MB_3_12*%
X132000008Y-31884616D03*
%TD*%
%TO.C,KiKit_MB_6_21*%
X132000006Y-89153860D03*
%TD*%
D41*
%TO.C,J1*%
X86479648Y-101715077D03*
D42*
X86479648Y-104215077D03*
%TD*%
D15*
%TO.C,D4*%
X106821248Y-64302563D03*
X106821248Y-62727563D03*
%TD*%
D10*
%TO.C,KiKit_MB_6_39*%
X132000002Y-103692321D03*
%TD*%
%TO.C,KiKit_MB_2_26*%
X108241374Y-68500007D03*
%TD*%
%TO.C,KiKit_MB_4_7*%
X78000009Y-110153860D03*
%TD*%
%TO.C,KiKit_MB_3_41*%
X132000001Y-55307692D03*
%TD*%
%TO.C,KiKit_MB_4_40*%
X77999997Y-83500014D03*
%TD*%
%TO.C,KiKit_MB_5_32*%
X106620680Y-69500016D03*
%TD*%
%TO.C,KiKit_MB_2_55*%
X84741371Y-68500000D03*
%TD*%
D16*
%TO.C,R19*%
X89047148Y-77415077D03*
X87397148Y-77415077D03*
%TD*%
D10*
%TO.C,KiKit_MB_4_42*%
X77999996Y-81884629D03*
%TD*%
%TO.C,KiKit_MB_4_14*%
X78000007Y-104500014D03*
%TD*%
%TO.C,KiKit_MB_3_18*%
X132000007Y-36730770D03*
%TD*%
%TO.C,KiKit_MB_6_6*%
X132000009Y-77038475D03*
%TD*%
D39*
%TO.C,Q1*%
X122935248Y-109723777D03*
X121035248Y-109723777D03*
X121985248Y-111598777D03*
%TD*%
D43*
%TO.C,R25*%
X106821248Y-111177577D03*
X106821248Y-109527577D03*
%TD*%
D10*
%TO.C,KiKit_MB_5_41*%
X113913784Y-69500015D03*
%TD*%
%TO.C,KiKit_MB_1_52*%
X77999992Y-23807693D03*
%TD*%
%TO.C,KiKit_MB_1_38*%
X77999997Y-35115385D03*
%TD*%
%TO.C,KiKit_MB_5_50*%
X121206887Y-69500014D03*
%TD*%
%TO.C,KiKit_MB_1_8*%
X78000009Y-59346154D03*
%TD*%
%TO.C,KiKit_MB_4_27*%
X78000002Y-94000014D03*
%TD*%
%TO.C,KiKit_MB_3_8*%
X132000009Y-28653847D03*
%TD*%
%TO.C,KiKit_MB_6_19*%
X132000006Y-87538475D03*
%TD*%
%TO.C,KiKit_MB_3_10*%
X132000008Y-30269231D03*
%TD*%
%TO.C,KiKit_MB_4_4*%
X78000010Y-112576937D03*
%TD*%
%TO.C,KiKit_MB_4_21*%
X78000004Y-98846168D03*
%TD*%
D44*
%TO.C,C5*%
X89729648Y-52315063D03*
X89729648Y-54215063D03*
%TD*%
D10*
%TO.C,KiKit_MB_4_16*%
X78000006Y-102884629D03*
%TD*%
%TO.C,KiKit_MB_1_20*%
X78000004Y-49653846D03*
%TD*%
D41*
%TO.C,J1*%
X86479648Y-51715063D03*
D42*
X86479648Y-54215063D03*
%TD*%
D10*
%TO.C,KiKit_MB_2_19*%
X113913789Y-68500009D03*
%TD*%
%TO.C,KiKit_MB_5_18*%
X95275854Y-69500018D03*
%TD*%
D14*
%TO.C,H4*%
X128499948Y-23000063D03*
%TD*%
D10*
%TO.C,KiKit_MB_4_11*%
X78000008Y-106923091D03*
%TD*%
%TO.C,KiKit_MB_5_3*%
X83120681Y-69500019D03*
%TD*%
%TO.C,KiKit_MB_1_48*%
X77999993Y-27038462D03*
%TD*%
%TO.C,KiKit_MB_4_49*%
X77999993Y-76230783D03*
%TD*%
D43*
%TO.C,R6*%
X120099948Y-52875063D03*
X120099948Y-51225063D03*
%TD*%
D10*
%TO.C,KiKit_MB_1_53*%
X77999992Y-23000001D03*
%TD*%
D26*
%TO.C,J5*%
X128196248Y-28903763D03*
D27*
X129721248Y-27428763D03*
X129721248Y-30378763D03*
%TD*%
D43*
%TO.C,R22*%
X115685248Y-111215077D03*
X115685248Y-109565077D03*
%TD*%
D10*
%TO.C,KiKit_MB_1_50*%
X77999993Y-25423078D03*
%TD*%
%TO.C,KiKit_MB_2_58*%
X82310336Y-68500000D03*
%TD*%
%TO.C,KiKit_MB_3_33*%
X132000003Y-48846153D03*
%TD*%
%TO.C,KiKit_MB_6_37*%
X132000002Y-102076937D03*
%TD*%
%TO.C,KiKit_MB_6_10*%
X132000008Y-80269244D03*
%TD*%
%TO.C,KiKit_MB_1_41*%
X77999996Y-32692308D03*
%TD*%
%TO.C,KiKit_MB_3_13*%
X132000008Y-32692308D03*
%TD*%
%TO.C,KiKit_MB_2_44*%
X93655166Y-68500003D03*
%TD*%
%TO.C,KiKit_MB_3_20*%
X132000006Y-38346154D03*
%TD*%
%TO.C,KiKit_MB_1_37*%
X77999998Y-35923078D03*
%TD*%
D26*
%TO.C,J5*%
X128196248Y-78903777D03*
D27*
X129721248Y-77428777D03*
X129721248Y-80378777D03*
%TD*%
D10*
%TO.C,KiKit_MB_2_38*%
X98517236Y-68500005D03*
%TD*%
D45*
%TO.C,J13*%
X93279648Y-100540077D03*
D35*
X93279648Y-103080077D03*
X93279648Y-105620077D03*
%TD*%
D10*
%TO.C,KiKit_MB_1_5*%
X78000010Y-61769231D03*
%TD*%
%TO.C,KiKit_MB_4_8*%
X78000009Y-109346168D03*
%TD*%
%TO.C,KiKit_MB_2_31*%
X104189650Y-68500006D03*
%TD*%
%TO.C,KiKit_MB_5_54*%
X124448266Y-69500014D03*
%TD*%
%TO.C,KiKit_MB_5_21*%
X97706888Y-69500017D03*
%TD*%
%TO.C,KiKit_MB_5_6*%
X85551716Y-69500019D03*
%TD*%
D43*
%TO.C,R6*%
X120099948Y-102875077D03*
X120099948Y-101225077D03*
%TD*%
D10*
%TO.C,KiKit_MB_6_13*%
X132000008Y-82692321D03*
%TD*%
D37*
%TO.C,J14*%
X92379648Y-112215077D03*
X93629648Y-112215077D03*
D38*
X89829648Y-115115077D03*
X96179648Y-115115077D03*
%TD*%
D10*
%TO.C,KiKit_MB_1_14*%
X78000007Y-54500000D03*
%TD*%
%TO.C,KiKit_MB_2_59*%
X81499991Y-68499999D03*
%TD*%
%TO.C,KiKit_MB_4_23*%
X78000003Y-97230783D03*
%TD*%
%TO.C,KiKit_MB_2_45*%
X92844821Y-68500003D03*
%TD*%
%TO.C,KiKit_MB_3_30*%
X132000004Y-46423077D03*
%TD*%
%TO.C,KiKit_MB_1_24*%
X78000003Y-46423077D03*
%TD*%
D43*
%TO.C,R22*%
X115685248Y-61215063D03*
X115685248Y-59565063D03*
%TD*%
D46*
%TO.C,C6*%
X101534948Y-57035063D03*
X99984948Y-57035063D03*
%TD*%
D39*
%TO.C,Q1*%
X122935248Y-59723763D03*
X121035248Y-59723763D03*
X121985248Y-61598763D03*
%TD*%
D11*
%TO.C,D7*%
X99379648Y-62765063D03*
X99379648Y-66065063D03*
X104279648Y-66065063D03*
X104279648Y-62765063D03*
%TD*%
D10*
%TO.C,KiKit_MB_5_47*%
X118775853Y-69500015D03*
%TD*%
%TO.C,KiKit_MB_5_38*%
X111482749Y-69500016D03*
%TD*%
%TO.C,KiKit_MB_2_39*%
X97706891Y-68500004D03*
%TD*%
%TO.C,KiKit_MB_5_13*%
X91224129Y-69500018D03*
%TD*%
%TO.C,KiKit_MB_2_21*%
X112293099Y-68500009D03*
%TD*%
D46*
%TO.C,C10*%
X104944948Y-107015077D03*
X103394948Y-107015077D03*
%TD*%
D47*
%TO.C,TP2*%
X106629648Y-96465077D03*
%TD*%
D11*
%TO.C,D7*%
X99379648Y-112765077D03*
X99379648Y-116065077D03*
X104279648Y-116065077D03*
X104279648Y-112765077D03*
%TD*%
D10*
%TO.C,KiKit_MB_6_25*%
X132000005Y-92384629D03*
%TD*%
%TO.C,KiKit_MB_3_19*%
X132000006Y-37538462D03*
%TD*%
%TO.C,KiKit_MB_2_7*%
X123637929Y-68500012D03*
%TD*%
D16*
%TO.C,R18*%
X89012148Y-29615063D03*
X87362148Y-29615063D03*
%TD*%
D10*
%TO.C,KiKit_MB_5_20*%
X96896543Y-69500018D03*
%TD*%
%TO.C,KiKit_MB_1_2*%
X78000011Y-64192307D03*
%TD*%
D14*
%TO.C,H1*%
X81499948Y-73000077D03*
%TD*%
D10*
%TO.C,KiKit_MB_7_1*%
X78499991Y-68000513D03*
%TD*%
D34*
%TO.C,M2*%
X97862948Y-72128777D03*
D35*
X100402948Y-72128777D03*
X102942948Y-72128777D03*
%TD*%
D20*
%TO.C,D3*%
X84332148Y-27415063D03*
X85907148Y-27415063D03*
%TD*%
D10*
%TO.C,KiKit_MB_6_8*%
X132000009Y-78653860D03*
%TD*%
%TO.C,KiKit_MB_2_25*%
X109051719Y-68500008D03*
%TD*%
%TO.C,KiKit_MB_6_4*%
X132000010Y-75423091D03*
%TD*%
%TO.C,KiKit_MB_5_51*%
X122017232Y-69500014D03*
%TD*%
%TO.C,KiKit_MB_1_16*%
X78000006Y-52884615D03*
%TD*%
D17*
%TO.C,J6*%
X118717248Y-116391277D03*
D18*
X121257248Y-116391277D03*
%TD*%
D14*
%TO.C,H1*%
X81499948Y-23000063D03*
%TD*%
D10*
%TO.C,KiKit_MB_6_1*%
X132000010Y-73000014D03*
%TD*%
D34*
%TO.C,M2*%
X97862948Y-22128763D03*
D35*
X100402948Y-22128763D03*
X102942948Y-22128763D03*
%TD*%
D10*
%TO.C,KiKit_MB_5_1*%
X81499991Y-69500020D03*
%TD*%
%TO.C,KiKit_MB_5_37*%
X110672404Y-69500016D03*
%TD*%
%TO.C,KiKit_MB_6_5*%
X132000010Y-76230783D03*
%TD*%
%TO.C,KiKit_MB_5_2*%
X82310336Y-69500019D03*
%TD*%
%TO.C,KiKit_MB_6_51*%
X131999999Y-113384629D03*
%TD*%
D15*
%TO.C,D2*%
X115685248Y-114302577D03*
X115685248Y-112727577D03*
%TD*%
D10*
%TO.C,KiKit_MB_3_31*%
X132000004Y-47230769D03*
%TD*%
%TO.C,KiKit_MB_1_4*%
X78000010Y-62576923D03*
%TD*%
D45*
%TO.C,J13*%
X93279648Y-50540063D03*
D35*
X93279648Y-53080063D03*
X93279648Y-55620063D03*
%TD*%
D10*
%TO.C,KiKit_MB_5_17*%
X94465509Y-69500018D03*
%TD*%
D28*
%TO.C,D9*%
X86979648Y-112965077D03*
X86979648Y-116265077D03*
%TD*%
D10*
%TO.C,KiKit_MB_5_34*%
X108241370Y-69500016D03*
%TD*%
%TO.C,KiKit_MB_6_28*%
X132000004Y-94807706D03*
%TD*%
%TO.C,KiKit_MB_5_7*%
X86362060Y-69500019D03*
%TD*%
%TO.C,KiKit_MB_2_15*%
X117155169Y-68500010D03*
%TD*%
D48*
%TO.C,D8*%
X98579648Y-60115063D03*
X101879648Y-60115063D03*
%TD*%
D10*
%TO.C,KiKit_MB_3_28*%
X132000004Y-44807692D03*
%TD*%
D16*
%TO.C,R16*%
X122610248Y-57761263D03*
X120960248Y-57761263D03*
%TD*%
D17*
%TO.C,J7*%
X109781248Y-116391277D03*
D18*
X112321248Y-116391277D03*
%TD*%
D34*
%TO.C,M4*%
X116579548Y-22128763D03*
D35*
X119119548Y-22128763D03*
X121659548Y-22128763D03*
%TD*%
D10*
%TO.C,KiKit_MB_2_3*%
X126879308Y-68500013D03*
%TD*%
%TO.C,KiKit_MB_1_17*%
X78000005Y-52076923D03*
%TD*%
%TO.C,KiKit_MB_5_52*%
X122827577Y-69500014D03*
%TD*%
%TO.C,KiKit_MB_1_10*%
X78000008Y-57730769D03*
%TD*%
%TO.C,KiKit_MB_3_49*%
X131999999Y-61769230D03*
%TD*%
%TO.C,KiKit_MB_3_43*%
X132000001Y-56923077D03*
%TD*%
%TO.C,KiKit_MB_6_27*%
X132000004Y-94000014D03*
%TD*%
%TO.C,KiKit_MB_4_24*%
X78000003Y-96423091D03*
%TD*%
%TO.C,KiKit_MB_6_52*%
X131999999Y-114192321D03*
%TD*%
D39*
%TO.C,Q5*%
X110471248Y-59753763D03*
X108571248Y-59753763D03*
X109521248Y-61628763D03*
%TD*%
D10*
%TO.C,KiKit_MB_5_14*%
X92034474Y-69500018D03*
%TD*%
%TO.C,KiKit_MB_2_54*%
X85551716Y-68500001D03*
%TD*%
%TO.C,KiKit_MB_2_32*%
X103379305Y-68500006D03*
%TD*%
%TO.C,KiKit_MB_3_39*%
X132000002Y-53692307D03*
%TD*%
%TO.C,KiKit_MB_4_48*%
X77999993Y-77038475D03*
%TD*%
%TO.C,KiKit_MB_5_4*%
X83931026Y-69500019D03*
%TD*%
D49*
%TO.C,U7*%
X125481248Y-41798763D03*
X125481248Y-40698763D03*
X125481248Y-39598763D03*
X125481248Y-38498763D03*
X125481248Y-37398763D03*
X125481248Y-36298763D03*
X125481248Y-35198763D03*
X125481248Y-32198763D03*
X125481248Y-31098763D03*
X125481248Y-29998763D03*
X125481248Y-28898763D03*
X125481248Y-27798763D03*
X113481248Y-27798763D03*
X113481248Y-28898763D03*
X113481248Y-29998763D03*
X113481248Y-31098763D03*
X113481248Y-32198763D03*
X113481248Y-35198763D03*
X113481248Y-36298763D03*
X113481248Y-37398763D03*
X113481248Y-38498763D03*
X113481248Y-39598763D03*
X113481248Y-40698763D03*
X113481248Y-41798763D03*
%TD*%
D10*
%TO.C,KiKit_MB_4_36*%
X77999998Y-86730783D03*
%TD*%
%TO.C,KiKit_MB_5_16*%
X93655164Y-69500018D03*
%TD*%
D48*
%TO.C,D8*%
X98579648Y-110115077D03*
X101879648Y-110115077D03*
%TD*%
D10*
%TO.C,KiKit_MB_1_28*%
X78000001Y-43192308D03*
%TD*%
D14*
%TO.C,H3*%
X128499948Y-65000063D03*
%TD*%
D10*
%TO.C,KiKit_MB_3_53*%
X131999998Y-65000000D03*
%TD*%
%TO.C,KiKit_MB_5_39*%
X112293094Y-69500016D03*
%TD*%
%TO.C,KiKit_MB_5_5*%
X84741371Y-69500019D03*
%TD*%
%TO.C,KiKit_MB_1_12*%
X78000007Y-56115384D03*
%TD*%
%TO.C,KiKit_MB_3_47*%
X132000000Y-60153846D03*
%TD*%
%TO.C,KiKit_MB_1_1*%
X78000012Y-65000000D03*
%TD*%
D47*
%TO.C,TP2*%
X106629648Y-46465063D03*
%TD*%
D10*
%TO.C,KiKit_MB_6_44*%
X132000001Y-107730783D03*
%TD*%
%TO.C,KiKit_MB_4_47*%
X77999994Y-77846168D03*
%TD*%
%TO.C,KiKit_MB_2_49*%
X89603441Y-68500002D03*
%TD*%
%TO.C,KiKit_MB_5_19*%
X96086198Y-69500018D03*
%TD*%
D26*
%TO.C,J10*%
X128196248Y-95568777D03*
D27*
X129721248Y-94093777D03*
X129721248Y-97043777D03*
%TD*%
D10*
%TO.C,KiKit_MB_2_41*%
X96086201Y-68500004D03*
%TD*%
%TO.C,KiKit_MB_6_43*%
X132000001Y-106923091D03*
%TD*%
%TO.C,KiKit_MB_4_41*%
X77999996Y-82692321D03*
%TD*%
D16*
%TO.C,R23*%
X113746248Y-107791277D03*
X112096248Y-107791277D03*
%TD*%
D10*
%TO.C,KiKit_MB_2_13*%
X118775859Y-68500011D03*
%TD*%
%TO.C,KiKit_MB_1_32*%
X78000000Y-39961539D03*
%TD*%
%TO.C,KiKit_MB_3_17*%
X132000007Y-35923078D03*
%TD*%
%TO.C,KiKit_MB_1_29*%
X78000001Y-42384616D03*
%TD*%
%TO.C,KiKit_MB_4_34*%
X77999999Y-88346168D03*
%TD*%
D19*
%TO.C,SW1*%
X80431248Y-84378777D03*
X89611248Y-84378777D03*
%TD*%
D39*
%TO.C,Q4*%
X114071248Y-59753763D03*
X112171248Y-59753763D03*
X113121248Y-61628763D03*
%TD*%
D10*
%TO.C,KiKit_MB_2_53*%
X86362061Y-68500001D03*
%TD*%
D46*
%TO.C,C10*%
X104944948Y-57015063D03*
X103394948Y-57015063D03*
%TD*%
D10*
%TO.C,KiKit_MB_4_52*%
X77999992Y-73807706D03*
%TD*%
%TO.C,KiKit_MB_3_7*%
X132000009Y-27846154D03*
%TD*%
%TO.C,KiKit_MB_2_5*%
X125258618Y-68500013D03*
%TD*%
%TO.C,KiKit_MB_3_1*%
X132000010Y-23000001D03*
%TD*%
%TO.C,KiKit_MB_5_57*%
X126879301Y-69500014D03*
%TD*%
%TO.C,KiKit_MB_2_28*%
X106620684Y-68500007D03*
%TD*%
D36*
%TO.C,R1*%
X80279648Y-81565077D03*
X81929648Y-81565077D03*
%TD*%
D10*
%TO.C,KiKit_MB_1_9*%
X78000008Y-58538461D03*
%TD*%
%TO.C,KiKit_MB_4_53*%
X77999992Y-73000014D03*
%TD*%
%TO.C,KiKit_MB_3_48*%
X132000000Y-60961538D03*
%TD*%
%TO.C,KiKit_MB_5_23*%
X99327578Y-69500017D03*
%TD*%
%TO.C,KiKit_MB_5_29*%
X104189647Y-69500017D03*
%TD*%
%TO.C,KiKit_MB_3_25*%
X132000005Y-42384616D03*
%TD*%
%TO.C,KiKit_MB_5_28*%
X103379302Y-69500017D03*
%TD*%
%TO.C,KiKit_MB_5_49*%
X120396542Y-69500015D03*
%TD*%
%TO.C,KiKit_MB_6_34*%
X132000003Y-99653860D03*
%TD*%
%TO.C,KiKit_MB_6_14*%
X132000007Y-83500014D03*
%TD*%
%TO.C,KiKit_MB_3_51*%
X131999999Y-63384615D03*
%TD*%
%TO.C,KiKit_MB_1_13*%
X78000007Y-55307692D03*
%TD*%
%TO.C,KiKit_MB_3_45*%
X132000000Y-58538461D03*
%TD*%
%TO.C,KiKit_MB_1_3*%
X78000011Y-63384615D03*
%TD*%
%TO.C,KiKit_MB_4_22*%
X78000003Y-98038475D03*
%TD*%
%TO.C,KiKit_MB_6_15*%
X132000007Y-84307706D03*
%TD*%
%TO.C,KiKit_MB_6_41*%
X132000001Y-105307706D03*
%TD*%
%TO.C,KiKit_MB_5_44*%
X116344818Y-69500015D03*
%TD*%
%TO.C,KiKit_MB_5_33*%
X107431025Y-69500016D03*
%TD*%
%TO.C,KiKit_MB_5_53*%
X123637921Y-69500014D03*
%TD*%
D36*
%TO.C,R7*%
X87869948Y-46725063D03*
X89519948Y-46725063D03*
%TD*%
D10*
%TO.C,KiKit_MB_1_31*%
X78000000Y-40769232D03*
%TD*%
%TO.C,KiKit_MB_3_42*%
X132000001Y-56115384D03*
%TD*%
D36*
%TO.C,R20*%
X117360248Y-57761263D03*
X119010248Y-57761263D03*
%TD*%
D16*
%TO.C,R2*%
X114479648Y-44365063D03*
X112829648Y-44365063D03*
%TD*%
D10*
%TO.C,KiKit_MB_1_49*%
X77999993Y-26230770D03*
%TD*%
%TO.C,KiKit_MB_3_38*%
X132000002Y-52884615D03*
%TD*%
%TO.C,KiKit_MB_5_12*%
X90413785Y-69500018D03*
%TD*%
%TO.C,KiKit_MB_3_34*%
X132000003Y-49653846D03*
%TD*%
D11*
%TO.C,U8*%
X92879648Y-76245077D03*
X92879648Y-77515077D03*
X92879648Y-78785077D03*
X92879648Y-80055077D03*
X92879648Y-81325077D03*
X92879648Y-82595077D03*
X92879648Y-83865077D03*
X92879648Y-85135077D03*
X92879648Y-86405077D03*
X92879648Y-87675077D03*
X92879648Y-88945077D03*
X92879648Y-90215077D03*
X92879648Y-91485077D03*
X92879648Y-92755077D03*
D12*
X94644648Y-94005077D03*
X95914648Y-94005077D03*
X97184648Y-94005077D03*
X98454648Y-94005077D03*
X99724648Y-94005077D03*
X100994648Y-94005077D03*
X102264648Y-94005077D03*
X103534648Y-94005077D03*
X104804648Y-94005077D03*
X106074648Y-94005077D03*
X107344648Y-94005077D03*
X108614648Y-94005077D03*
D11*
X110379648Y-92755077D03*
X110379648Y-91485077D03*
X110379648Y-90215077D03*
X110379648Y-88945077D03*
X110379648Y-87675077D03*
X110379648Y-86405077D03*
X110379648Y-85135077D03*
X110379648Y-83865077D03*
X110379648Y-82595077D03*
X110379648Y-81325077D03*
X110379648Y-80055077D03*
X110379648Y-78785077D03*
X110379648Y-77515077D03*
X110379648Y-76245077D03*
D13*
X98729648Y-82565077D03*
X100129648Y-82565077D03*
X101529648Y-82565077D03*
X98729648Y-83965077D03*
X100129648Y-83965077D03*
X101529648Y-83965077D03*
X98729648Y-85365077D03*
X100129648Y-85365077D03*
X101529648Y-85365077D03*
%TD*%
D10*
%TO.C,KiKit_MB_2_42*%
X95275856Y-68500004D03*
%TD*%
%TO.C,KiKit_MB_4_9*%
X78000008Y-108538475D03*
%TD*%
D29*
%TO.C,R4*%
X120099948Y-54375063D03*
X120099948Y-56025063D03*
%TD*%
D39*
%TO.C,Q3*%
X119335248Y-109723777D03*
X117435248Y-109723777D03*
X118385248Y-111598777D03*
%TD*%
D10*
%TO.C,KiKit_MB_2_34*%
X101758615Y-68500006D03*
%TD*%
%TO.C,KiKit_MB_2_47*%
X91224131Y-68500002D03*
%TD*%
%TO.C,KiKit_MB_5_26*%
X101758612Y-69500017D03*
%TD*%
%TO.C,KiKit_MB_2_1*%
X128499998Y-68500013D03*
%TD*%
%TO.C,KiKit_MB_3_4*%
X132000010Y-25423078D03*
%TD*%
%TO.C,KiKit_MB_2_2*%
X127689653Y-68500013D03*
%TD*%
%TO.C,KiKit_MB_5_45*%
X117155163Y-69500015D03*
%TD*%
D36*
%TO.C,R24*%
X108496248Y-57791263D03*
X110146248Y-57791263D03*
%TD*%
D46*
%TO.C,C6*%
X101534948Y-107035077D03*
X99984948Y-107035077D03*
%TD*%
D10*
%TO.C,KiKit_MB_6_26*%
X132000005Y-93192321D03*
%TD*%
%TO.C,KiKit_MB_3_22*%
X132000006Y-39961539D03*
%TD*%
%TO.C,KiKit_MB_4_6*%
X78000010Y-110961552D03*
%TD*%
%TO.C,KiKit_MB_3_40*%
X132000001Y-54500000D03*
%TD*%
%TO.C,KiKit_MB_5_8*%
X87172405Y-69500019D03*
%TD*%
%TO.C,KiKit_MB_2_22*%
X111482754Y-68500008D03*
%TD*%
%TO.C,KiKit_MB_4_35*%
X77999998Y-87538475D03*
%TD*%
%TO.C,KiKit_MB_6_30*%
X132000004Y-96423091D03*
%TD*%
D34*
%TO.C,M3*%
X107221248Y-22128763D03*
D35*
X109761248Y-22128763D03*
X112301248Y-22128763D03*
%TD*%
D40*
%TO.C,C12*%
X106379648Y-48927563D03*
X106379648Y-52002563D03*
%TD*%
D10*
%TO.C,KiKit_MB_1_33*%
X77999999Y-39153847D03*
%TD*%
D49*
%TO.C,U7*%
X125481248Y-91798777D03*
X125481248Y-90698777D03*
X125481248Y-89598777D03*
X125481248Y-88498777D03*
X125481248Y-87398777D03*
X125481248Y-86298777D03*
X125481248Y-85198777D03*
X125481248Y-82198777D03*
X125481248Y-81098777D03*
X125481248Y-79998777D03*
X125481248Y-78898777D03*
X125481248Y-77798777D03*
X113481248Y-77798777D03*
X113481248Y-78898777D03*
X113481248Y-79998777D03*
X113481248Y-81098777D03*
X113481248Y-82198777D03*
X113481248Y-85198777D03*
X113481248Y-86298777D03*
X113481248Y-87398777D03*
X113481248Y-88498777D03*
X113481248Y-89598777D03*
X113481248Y-90698777D03*
X113481248Y-91798777D03*
%TD*%
D10*
%TO.C,KiKit_MB_6_22*%
X132000006Y-89961552D03*
%TD*%
%TO.C,KiKit_MB_1_25*%
X78000002Y-45615384D03*
%TD*%
D34*
%TO.C,M4*%
X116579548Y-72128777D03*
D35*
X119119548Y-72128777D03*
X121659548Y-72128777D03*
%TD*%
D10*
%TO.C,KiKit_MB_1_26*%
X78000002Y-44807692D03*
%TD*%
%TO.C,KiKit_MB_1_19*%
X78000005Y-50461538D03*
%TD*%
%TO.C,KiKit_MB_3_21*%
X132000006Y-39153847D03*
%TD*%
%TO.C,KiKit_MB_3_29*%
X132000004Y-45615384D03*
%TD*%
%TO.C,KiKit_MB_2_17*%
X115534479Y-68500010D03*
%TD*%
%TO.C,KiKit_MB_5_58*%
X127689646Y-69500014D03*
%TD*%
%TO.C,KiKit_MB_4_18*%
X78000005Y-101269245D03*
%TD*%
%TO.C,KiKit_MB_4_20*%
X78000004Y-99653860D03*
%TD*%
%TO.C,KiKit_MB_8_2*%
X131500010Y-69000513D03*
%TD*%
%TO.C,KiKit_MB_5_40*%
X113103439Y-69500015D03*
%TD*%
%TO.C,KiKit_MB_4_5*%
X78000010Y-111769245D03*
%TD*%
%TO.C,KiKit_MB_5_59*%
X128499990Y-69500014D03*
%TD*%
D43*
%TO.C,R25*%
X106821248Y-61177563D03*
X106821248Y-59527563D03*
%TD*%
D10*
%TO.C,KiKit_MB_2_50*%
X88793096Y-68500002D03*
%TD*%
%TO.C,KiKit_MB_1_45*%
X77999995Y-29461539D03*
%TD*%
%TO.C,KiKit_MB_3_27*%
X132000004Y-44000001D03*
%TD*%
%TO.C,KiKit_MB_4_12*%
X78000007Y-106115398D03*
%TD*%
%TO.C,KiKit_MB_2_12*%
X119586204Y-68500011D03*
%TD*%
%TO.C,KiKit_MB_3_9*%
X132000009Y-29461539D03*
%TD*%
D39*
%TO.C,Q5*%
X110471248Y-109753777D03*
X108571248Y-109753777D03*
X109521248Y-111628777D03*
%TD*%
D10*
%TO.C,KiKit_MB_2_20*%
X113103444Y-68500009D03*
%TD*%
%TO.C,KiKit_MB_2_48*%
X90413786Y-68500002D03*
%TD*%
%TO.C,KiKit_MB_3_36*%
X132000002Y-51269230D03*
%TD*%
D16*
%TO.C,R23*%
X113746248Y-57791263D03*
X112096248Y-57791263D03*
%TD*%
D10*
%TO.C,KiKit_MB_3_2*%
X132000010Y-23807693D03*
%TD*%
%TO.C,KiKit_MB_5_43*%
X115534473Y-69500015D03*
%TD*%
%TO.C,KiKit_MB_6_29*%
X132000004Y-95615398D03*
%TD*%
%TO.C,KiKit_MB_6_49*%
X131999999Y-111769244D03*
%TD*%
%TO.C,KiKit_MB_2_4*%
X126068963Y-68500013D03*
%TD*%
%TO.C,KiKit_MB_4_51*%
X77999992Y-74615398D03*
%TD*%
%TO.C,KiKit_MB_4_45*%
X77999995Y-79461552D03*
%TD*%
%TO.C,KiKit_MB_1_35*%
X77999998Y-37538462D03*
%TD*%
%TO.C,KiKit_MB_6_23*%
X132000005Y-90769244D03*
%TD*%
D36*
%TO.C,R5*%
X87869948Y-87725077D03*
X89519948Y-87725077D03*
%TD*%
D10*
%TO.C,KiKit_MB_3_44*%
X132000001Y-57730769D03*
%TD*%
%TO.C,KiKit_MB_1_11*%
X78000008Y-56923077D03*
%TD*%
%TO.C,KiKit_MB_3_50*%
X131999999Y-62576923D03*
%TD*%
%TO.C,KiKit_MB_4_1*%
X78000012Y-115000014D03*
%TD*%
%TO.C,KiKit_MB_6_45*%
X132000000Y-108538475D03*
%TD*%
%TO.C,KiKit_MB_5_42*%
X114724128Y-69500015D03*
%TD*%
D44*
%TO.C,C5*%
X89729648Y-102315077D03*
X89729648Y-104215077D03*
%TD*%
D10*
%TO.C,KiKit_MB_6_35*%
X132000003Y-100461552D03*
%TD*%
%TO.C,KiKit_MB_4_44*%
X77999995Y-80269245D03*
%TD*%
%TO.C,KiKit_MB_4_3*%
X78000011Y-113384629D03*
%TD*%
%TO.C,KiKit_MB_6_36*%
X132000002Y-101269244D03*
%TD*%
%TO.C,KiKit_MB_2_14*%
X117965514Y-68500010D03*
%TD*%
D34*
%TO.C,M1*%
X88504548Y-22128763D03*
D35*
X91044548Y-22128763D03*
X93584548Y-22128763D03*
%TD*%
D10*
%TO.C,KiKit_MB_2_16*%
X116344824Y-68500010D03*
%TD*%
%TO.C,KiKit_MB_1_44*%
X77999995Y-30269232D03*
%TD*%
%TO.C,KiKit_MB_6_16*%
X132000007Y-85115398D03*
%TD*%
D20*
%TO.C,D5*%
X84329648Y-79595077D03*
X85904648Y-79595077D03*
%TD*%
D10*
%TO.C,KiKit_MB_5_56*%
X126068956Y-69500014D03*
%TD*%
%TO.C,KiKit_MB_3_35*%
X132000003Y-50461538D03*
%TD*%
%TO.C,KiKit_MB_7_3*%
X78499991Y-70000513D03*
%TD*%
%TO.C,KiKit_MB_1_34*%
X77999999Y-38346155D03*
%TD*%
%TO.C,KiKit_MB_4_13*%
X78000007Y-105307706D03*
%TD*%
%TO.C,KiKit_MB_4_31*%
X78000000Y-90769245D03*
%TD*%
%TO.C,KiKit_MB_6_38*%
X132000002Y-102884629D03*
%TD*%
%TO.C,KiKit_MB_5_25*%
X100948267Y-69500017D03*
%TD*%
D36*
%TO.C,R7*%
X87869948Y-96725077D03*
X89519948Y-96725077D03*
%TD*%
D10*
%TO.C,KiKit_MB_6_48*%
X132000000Y-110961552D03*
%TD*%
D34*
%TO.C,J11*%
X85689648Y-59515063D03*
D35*
X88229648Y-59515063D03*
X90769648Y-59515063D03*
X93309648Y-59515063D03*
%TD*%
D47*
%TO.C,J4*%
X104019948Y-77125077D03*
D50*
X102749948Y-77125077D03*
X101479948Y-77125077D03*
X100209948Y-77125077D03*
D51*
X98939948Y-77125077D03*
%TD*%
D52*
%TO.C,J9*%
X129829648Y-95565077D03*
%TD*%
D47*
%TO.C,J4*%
X104019948Y-27125063D03*
D50*
X102749948Y-27125063D03*
X101479948Y-27125063D03*
X100209948Y-27125063D03*
D51*
X98939948Y-27125063D03*
%TD*%
D52*
%TO.C,J9*%
X129829648Y-45565063D03*
%TD*%
D34*
%TO.C,J11*%
X85689648Y-109515077D03*
D35*
X88229648Y-109515077D03*
X90769648Y-109515077D03*
X93309648Y-109515077D03*
%TD*%
M02*
